<svg width="43" height="43" fill="none" xmlns="http://www.w3.org/2000/svg"><g clip-path="url(#clip0)"><path d="M1.42 22.185c3.604-2.518 7.365-4.063 11.623-4.564-4.412 4.473-.332 11.737 5.526 12.962 9.434 1.972 14.47-7.874 22.799-9.563.36-.074.39-.577.098-.75-6.975-4.13-12.993-12.363-21.582-13.163-3.03-.282-6.423.837-7.695 3.84-.875 2.064-.337 4.277 1.352 5.534-4.694.306-9.178 1.77-12.65 5.008-.359.333.115.986.529.696zm12.83-12.34c1.359-1.336 3.352-1.827 5.202-1.787 3.123.068 6.207 1.636 8.754 3.315 4.194 2.765 7.751 6.359 11.984 9.066-5.141 1.315-8.578 5.72-13.33 7.92-3.368 1.557-7.384 2.13-10.748.211-4.093-2.334-5.423-8.023-1.358-11.091.11-.006.22-.015.332-.02 5.01-.192 9.826 1.1 14.675 2.158.214.047.28-.245.084-.322-4.544-1.79-10.02-3.026-15.304-2.864-2.048-1.663-2.169-4.74-.29-6.586z" fill="#1D1D1B"/></g><defs><clipPath id="clip0"><path fill="#fff" transform="rotate(135 16.82 19.393)" d="M0 0h30v30H0z"/></clipPath></defs></svg>