<svg width="43" height="43" fill="none" xmlns="http://www.w3.org/2000/svg"><g clip-path="url(#clip0)"><path d="M40.998 20.099c-3.586 2.543-7.335 4.116-11.59 4.647 4.38-4.505.25-11.739-5.618-12.922C14.342 9.919 9.376 19.8 1.06 21.549c-.36.077-.386.58-.093.75 7.004 4.081 13.08 12.27 21.675 13.01 3.033.26 6.417-.884 7.668-3.895.86-2.07.306-4.28-1.391-5.524 4.69-.34 9.164-1.837 12.614-5.099.356-.335-.123-.985-.535-.692zM28.256 32.531c-1.349 1.345-3.338 1.85-5.188 1.824-3.124-.046-6.219-1.592-8.778-3.253-4.214-2.736-7.796-6.303-12.048-8.981 5.132-1.351 8.537-5.78 13.274-8.013 3.356-1.583 7.368-2.184 10.746-.29 4.109 2.306 5.48 7.985 1.437 11.083-.112.006-.22.015-.332.02-5.01.23-9.834-1.028-14.69-2.052-.215-.046-.278.247-.082.323 4.557 1.757 10.04 2.954 15.324 2.754 2.06 1.649 2.202 4.725.337 6.585z" fill="#1D1D1B"/></g><defs><clipPath id="clip0"><path fill="#fff" transform="rotate(-45.408 25.53 10.682)" d="M0 0h30v30H0z"/></clipPath></defs></svg>