<svg width="32" height="36" fill="none" xmlns="http://www.w3.org/2000/svg"><path d="M31.601 13.984a.506.506 0 00-.006-.053v-.011l-.002-.005-.001-.008a.534.534 0 00-.016-.057c0-.003-.002-.006-.003-.008a.508.508 0 00-.06-.121l-.003-.004a.543.543 0 00-.042-.053l-.008-.009a.531.531 0 00-.04-.039l-.012-.01a.563.563 0 00-.053-.039l-.006-.003a.555.555 0 00-.053-.03l-.016-.007a.556.556 0 00-.06-.022l-.003-.001-.006-.002a15.547 15.547 0 00-5.093-.652c-1.914.085-3.634.563-4.974 1.384-1.028.63-1.873 1.533-2.38 2.542-.534 1.066-.653 2.165-.352 3.198a25.118 25.118 0 00-1.854 2.022v-7.284c1.759-.642 2.9-2.943 3.012-4.98.172-3.14-1.454-7.304-3.125-9.514L16.437.21a.582.582 0 00-.026-.031l-.014-.015a.54.54 0 00-.032-.03l-.011-.01a.563.563 0 00-.048-.034l-.008-.005a.564.564 0 00-.044-.025l-.015-.007a.578.578 0 00-.099-.035l-.017-.004a.586.586 0 00-.045-.008l-.016-.003a.637.637 0 00-.123 0l-.016.003a.55.55 0 00-.045.008l-.018.004a.58.58 0 00-.099.036l-.014.006a.587.587 0 00-.045.025l-.007.005a.549.549 0 00-.048.035l-.011.01a.551.551 0 00-.032.03l-.014.014a.538.538 0 00-.027.03l-.007.01c-1.672 2.21-3.298 6.372-3.126 9.513.112 2.042 1.26 4.35 3.026 4.985v7.295a24.994 24.994 0 00-1.867-2.038c.3-1.033.182-2.132-.353-3.197-.506-1.01-1.351-1.913-2.38-2.543-1.34-.82-3.06-1.3-4.973-1.383a15.547 15.547 0 00-5.1.653c-.003 0-.005.002-.008.003a.54.54 0 00-.118.054l-.013.007a.553.553 0 00-.101.085l-.012.012a.512.512 0 00-.04.051l-.005.008a.517.517 0 00-.029.05l-.007.014a.523.523 0 00-.022.053l-.004.01a.511.511 0 00-.015.056l-.001.008-.002.005v.01a.525.525 0 00-.007.054V14a.514.514 0 00.013.13l.004.014c.005.018.01.035.017.052l.004.013c.008.02.018.04.029.058.001.004.004.007.006.01a.542.542 0 00.136.154c.002 0 .003.002.005.004.927.69 1.822 1.494 2.687 2.273 1.226 1.102 2.493 2.242 3.915 3.124a7.278 7.278 0 003.816 1.099c.594 0 1.182-.078 1.748-.234 1.81 1.786 2.5 2.883 2.677 3.193v1.085H7.875c-.58 0-1.05.456-1.05 1.017v1.845c0 .561.47 1.017 1.05 1.017h.502l1.657 5.964c.194.695.848 1.181 1.592 1.181h8.749c.744 0 1.398-.486 1.591-1.181l1.658-5.964h.502c.579 0 1.05-.456 1.05-1.017v-1.845c0-.561-.471-1.017-1.05-1.017h-7.568v-1.107c.197-.34.897-1.427 2.664-3.17a6.598 6.598 0 001.747.233 7.28 7.28 0 003.816-1.099c1.423-.882 2.69-2.022 3.916-3.124.865-.778 1.76-1.583 2.686-2.273l.005-.004a.544.544 0 00.137-.154l.006-.01a.545.545 0 00.028-.058l.005-.013a.506.506 0 00.017-.052l.003-.013a.518.518 0 00.014-.131v-.017zm-16.152-.462c-1.007-.635-1.829-2.208-1.919-3.847-.124-2.27.776-5.127 1.92-7.25v11.097zm-7.64 5.412c-1.339-.83-2.57-1.937-3.76-3.008-.312-.28-.628-.565-.948-.846 3.33.959 6.253 2.542 8.723 4.725-1.34.186-2.805-.121-4.014-.871zm4.828.144c-2.624-2.338-5.736-4.027-9.283-5.04 2.254-.303 4.897-.137 6.913 1.098 1.365.836 2.486 2.375 2.37 3.942zm3.914-16.653c1.143 2.123 2.044 4.98 1.92 7.25-.09 1.636-.909 3.205-1.913 3.843V5.837a.504.504 0 00-.007-.078V2.425zm7.523 23.618v1.745h-9.306a.542.542 0 00-.55.534c0 .294.246.533.55.533h7.715l-1.58 5.686a.545.545 0 01-.528.392h-8.75a.545.545 0 01-.527-.392l-1.58-5.686h1.304c.304 0 .55-.239.55-.534a.542.542 0 00-.55-.533H7.927v-1.745h16.147zm3.877-10.116c-1.19 1.07-2.42 2.176-3.76 3.007-1.21.75-2.675 1.057-4.015.871a21.753 21.753 0 014.15-2.883.525.525 0 00.216-.725.56.56 0 00-.749-.21 22.853 22.853 0 00-4.43 3.092c-.116-1.568 1.005-3.107 2.37-3.943 2.018-1.236 4.66-1.401 6.915-1.097-.38.108-.754.223-1.122.346a.53.53 0 00-.34.679.55.55 0 00.7.33c.332-.111.671-.216 1.014-.314-.32.281-.637.566-.949.847z" fill="#696969"/></svg>