<svg width="41" height="27" fill="none" xmlns="http://www.w3.org/2000/svg"><path d="M38.13 11.511l-1.062-4.28a.646.646 0 00.508-.633v-.69c0-1.5-1.21-2.718-2.696-2.718h-4.836V1.766c0-.737-.595-1.337-1.327-1.337H4.066c-.732 0-1.327.6-1.327 1.337V13.5c0 .357.287.647.642.647.354 0 .642-.29.642-.647V1.766c0-.024.02-.043.043-.043h24.651c.024 0 .043.02.043.043V13.5c0 .357.287.647.642.647.354 0 .642-.29.642-.647v-.734h7.576a2.103 2.103 0 011.995 1.467H37.62a.645.645 0 00-.642.647v1.38c0 1.119.902 2.028 2.011 2.028h.728v2.847h-1.679c-.551-1.605-2.065-2.76-3.842-2.76-1.777 0-3.29 1.155-3.842 2.76h-.31V16.26a.645.645 0 00-.641-.647.645.645 0 00-.642.648v4.874H15.44c-.551-1.605-2.064-2.76-3.842-2.76-1.777 0-3.29 1.155-3.842 2.76h-3.69a.043.043 0 01-.043-.043v-1.424h2.782c.354 0 .642-.29.642-.647a.645.645 0 00-.642-.647H.642a.645.645 0 00-.642.647c0 .358.287.647.642.647h2.097v1.424c0 .737.595 1.337 1.327 1.337h3.468l-.002.043c0 2.26 1.824 4.098 4.066 4.098s4.066-1.838 4.066-4.098l-.001-.043H30.13v.043c0 2.26 1.823 4.098 4.065 4.098 2.242 0 4.066-1.838 4.066-4.098l-.001-.043h2.098c.354 0 .642-.29.642-.647V14.88a3.405 3.405 0 00-2.87-3.369zm-8.086-7.027h4.836a1.42 1.42 0 011.412 1.423v.043h-6.248V4.484zm0 6.988V7.245h5.704l1.049 4.227h-6.753zM11.598 25.276c-1.534 0-2.782-1.257-2.782-2.803 0-1.547 1.248-2.804 2.782-2.804s2.782 1.257 2.782 2.803c0 1.547-1.248 2.804-2.782 2.804zm22.597 0c-1.534 0-2.782-1.257-2.782-2.803 0-1.547 1.248-2.804 2.782-2.804s2.782 1.257 2.782 2.803c0 1.547-1.248 2.804-2.782 2.804zm5.521-8.282h-.727a.731.731 0 01-.728-.733v-.734h1.455v1.467z" fill="#696969"/><path d="M11.598 21.136c-.731 0-1.327.6-1.327 1.337 0 .738.596 1.337 1.327 1.337.732 0 1.327-.6 1.327-1.337s-.595-1.337-1.327-1.337zm22.597 0c-.732 0-1.327.6-1.327 1.337 0 .738.595 1.337 1.327 1.337.731 0 1.327-.6 1.327-1.337s-.596-1.337-1.327-1.337zm-7.532-2.761h-9.586a.645.645 0 00-.642.647c0 .358.287.647.642.647h9.586c.355 0 .642-.29.642-.647a.645.645 0 00-.642-.647zm-16.435-2.761H2.011a.645.645 0 00-.642.647c0 .358.288.648.642.648h8.217c.355 0 .642-.29.642-.648a.644.644 0 00-.642-.647zM22.323 6.83a.638.638 0 00-.908 0l-5.709 5.755-2.97-2.994a.638.638 0 00-.907 0 .65.65 0 000 .915l3.423 3.451a.637.637 0 00.908 0l6.163-6.212a.65.65 0 000-.915z" fill="#696969"/></svg>