<svg width="35" height="35" fill="none" xmlns="http://www.w3.org/2000/svg"><g clip-path="url(#clip0)"><path d="M34.46 7.062h-2.85a2.968 2.968 0 00.363-2.746l-.863-2.32a2.964 2.964 0 00-1.659-1.71 2.966 2.966 0 00-2.383.068L20.233 3.6a2.052 2.052 0 00-1.196-.384h-3.073c-.446 0-.86.142-1.197.384L7.932.354A2.967 2.967 0 005.55.285a2.965 2.965 0 00-1.659 1.71l-.863 2.322a2.966 2.966 0 00.363 2.745H.54a.54.54 0 00-.54.54v3.89a.54.54 0 001.08 0v-3.35h3.752c.06.021.121.04.183.058L9.55 9.448A36.085 36.085 0 006.892 14.3H1.08v-.648a.54.54 0 00-1.08 0v1.188c0 .299.242.54.54.54h1.927v19.124c0 .299.241.54.54.54h28.986a.54.54 0 00.54-.54v-3.136a.54.54 0 00-1.08 0v2.596H20.741V15.713a28.928 28.928 0 013.042 9.305.54.54 0 00.966.247 30.108 30.108 0 002.15-3.285 30.773 30.773 0 013.158 2.47.54.54 0 00.894-.482 36.226 36.226 0 00-2.375-8.588h2.877v13.827a.54.54 0 101.08 0V15.38h1.927a.54.54 0 00.54-.54V7.602a.54.54 0 00-.54-.54zM27.53 1.33a1.86 1.86 0 011.514-.044c.493.2.867.586 1.052 1.086l.864 2.32c.186.5.154 1.037-.09 1.512a1.854 1.854 0 01-1.172.954l-8.6 2.368V6.929c1.934-1.183 6.752-3.624 7.951-1.931a.54.54 0 10.882-.625c-.926-1.306-2.876-1.37-5.798-.188A25.727 25.727 0 0021.1 5.677V5.28c0-.29-.06-.565-.168-.815L27.53 1.33zM15.964 4.296h3.073c.542 0 .983.44.983.983v4.465a.984.984 0 01-.983.983h-3.073a.984.984 0 01-.983-.983V5.279c0-.542.44-.983.983-.983zM15.056 14.3a28.813 28.813 0 011.684-2.493h1.52a28.7 28.7 0 011.684 2.493h-4.888zM4.128 6.204a1.859 1.859 0 01-.089-1.511l.864-2.321c.185-.5.56-.885 1.053-1.086a1.859 1.859 0 011.513.044l6.6 3.134a2.05 2.05 0 00-.169.815v.43a25.816 25.816 0 00-3.087-1.524C7.89 3.003 5.94 3.067 5.015 4.373a.54.54 0 00.882.625c1.21-1.709 6.108.794 8.003 1.964v2.564L5.302 7.159a1.858 1.858 0 01-1.174-.955zm10.015 4.509c.269.503.74.882 1.304 1.028a30.052 30.052 0 00-5.081 11.832 29.561 29.561 0 01-1.602-2.625.54.54 0 00-.77-.195c-.9.587-1.78 1.23-2.631 1.921A35.292 35.292 0 0110.645 9.75l3.498.963zM3.547 15.38h2.877a36.24 36.24 0 00-2.375 8.588.54.54 0 00.894.482 30.747 30.747 0 013.158-2.47 30.103 30.103 0 002.15 3.285.54.54 0 00.966-.247 28.941 28.941 0 013.042-9.306v18.252H3.547V15.38zm11.792 18.584V15.38h4.322v18.584h-4.322zm11.667-13.211a.54.54 0 00-.77.195 29.544 29.544 0 01-1.601 2.625 30.046 30.046 0 00-5.082-11.831 2.071 2.071 0 001.304-1.03l3.5-.962a35.31 35.31 0 015.28 12.924 31.343 31.343 0 00-2.63-1.921zM33.92 14.3h-5.812a36.11 36.11 0 00-2.657-4.852L29.985 8.2a2.86 2.86 0 00.183-.058h3.752V14.3z" fill="#696969"/></g><defs><clipPath id="clip0"><path fill="#fff" d="M0 0h35v35H0z"/></clipPath></defs></svg>