<svg width="159" height="194" fill="none" xmlns="http://www.w3.org/2000/svg"><path opacity=".2" d="M97.984 123.979c-1.777-.975-3.548-1.955-5.33-2.92-2.264-1.223-4.608-2.241-7.064-3.011-.905-.286-1.81-.576-2.687-.943-1.541-.641-3.136-1.136-4.677-1.756-.878-.355-1.761-.7-2.66-1.007-2.184-.738-4.372-1.471-6.561-2.209-.343-.113-.69-.221-1.006-.377-.696-.345-1.424-.576-2.152-.83-.872-.301-1.74-.619-2.617-.905-1.07-.344-2.076-.878-3.2-1.066-1.033-.178-2.044-.485-3.088-.598a10.812 10.812 0 01-1.734-.334c-1.108-.318-2.22-.614-3.36-.808a38.47 38.47 0 01-2.034-.415c-.664-.156-1.274-.447-1.627-1.067-.257-.447-.632-.727-1.05-.996-.93-.604-1.963-.873-3.044-.948-.776-.054-1.531.107-2.275.307a48.19 48.19 0 01-6.706 1.314c-2.146.264-4.297.226-6.427-.194-.503-.097-.99-.258-1.493-.355-2.194-.437-4.185-1.374-6.058-2.559-1.67-1.061-3.227-2.284-4.704-3.604a12.11 12.11 0 01-.878-.862 46.532 46.532 0 01-2.895-3.512c-1.633-2.188-3.136-4.466-4.63-6.745-.845-1.293-1.642-2.613-2.493-3.905-1.242-1.891-2.516-3.766-3.768-5.652a49.418 49.418 0 01-1.268-2.03 5.583 5.583 0 01-.44-.9c-.133-.366-.031-.663.231-.819.262-.156.562-.108.84.156.166.162.305.345.45.528.417.523.824 1.05 1.252 1.568 1.183 1.427 2.473 2.753 3.752 4.094.979 1.024 2.001 1.999 3.136 2.85 2.43 1.826 5.009 3.399 7.7 4.805 1.323.69 2.607 1.438 3.822 2.3 1.659 1.17 3.318 2.333 4.977 3.502 2.365 1.67 4.934 2.93 7.68 3.835.363.119.727.243 1.102.35.889.248 1.782.47 2.665.739a84.35 84.35 0 014.817 1.605c.15.054.348.237.476.027.08-.129-.107-.27-.198-.383a17.268 17.268 0 01-2.692-4.487 2.627 2.627 0 00-.498-.776c-.867-.953-1.578-2.03-2.306-3.087-.835-1.206-1.552-2.483-2.382-3.7a13.85 13.85 0 00-2.408-2.689c-.744-.646-1.605-1.093-2.494-1.508a20.05 20.05 0 00-3.842-1.33 23.583 23.583 0 01-2.286-.658c-.85-.29-1.664-.678-2.51-.964-1.402-.474-2.648-1.207-3.847-2.063-1.595-1.137-3.056-2.43-4.48-3.76-1.413-1.326-2.45-2.904-3.023-4.773-.675-2.198-1.263-4.412-1.456-6.712a29.92 29.92 0 00-.294-2.3c-.305-1.86-.707-3.696-1.114-5.533-.198-.905-.412-1.81-.604-2.72a2.713 2.713 0 01-.113-.787c0-.307.214-.55.487-.625.241-.065.482.027.653.296.14.216.246.453.353.684.68 1.444 1.37 2.883 2.029 4.337.808 1.778 1.921 3.345 3.227 4.778.605.663 1.23 1.315 1.723 2.074a20.853 20.853 0 012.125 4.37c.588 1.653.995 3.36 1.402 5.063a9.98 9.98 0 00.76 2.1c.481.976 1.065 1.88 1.685 2.77.402.57.884 1.072 1.397 1.535.348.313.728.56 1.167.738.765.302 1.563.496 2.355.695.792.2 1.595.372 2.392.576.396.103.776.254 1.15.431.852.415 1.713.82 2.57 1.218.064.032.17.06.213.027.108-.076.043-.183 0-.275-.24-.485-.486-.964-.722-1.454-1.183-2.462-2.242-4.978-3.516-7.397-.947-1.799-1.766-3.668-2.628-5.51-.117-.26-.23-.518-.326-.787-.23-.63-.386-1.299-.696-1.88-.433-.814-.894-1.622-1.493-2.338-1.52-1.81-3.03-3.631-4.544-5.452-.61-.732-1.241-1.454-1.69-2.3-.766-1.433-1.719-2.753-2.527-4.154a25.07 25.07 0 01-1.504-3.043c-.835-2.053-1.578-4.143-2.29-6.238-.53-1.563-1.006-3.14-1.343-4.762-.61-2.936-.873-5.915-.932-8.91-.08-4.052.065-8.097.273-12.137.156-3.066.573-6.11.942-9.153.214-1.794.477-3.577.867-5.338.102-.453.252-.89.402-1.331.09-.27.24-.517.433-.727.385-.42.942-.367 1.226.124.101.177.165.377.208.576.086.377.15.76.214 1.142.284 1.68.61 3.35 1.13 4.972.476 1.498.979 2.985 1.482 4.477 1.049 3.124 2.098 6.254 3.227 9.352 1.092 3.006 2.382 5.925 3.703 8.834.541 1.196 1.081 2.398 1.563 3.615 1.081 2.72 1.825 5.527 1.986 8.474.107 1.988.09 3.965-.268 5.93a99.962 99.962 0 00-.76 4.892c-.39 3-.423 6.018-.15 9.029.091.98.188 1.96.535 2.882.407 1.083.803 2.176 1.312 3.216 1.23 2.494 2.456 4.994 3.692 7.483.594 1.2 1.113 2.434 1.643 3.668a64.902 64.902 0 001.472 3.232c.626 1.272 1.306 2.51 1.97 3.766.133.248.272.5.449.716.653.803 1.172 1.686 1.675 2.591.364.652.776 1.277 1.167 1.907.053.087.117.173.187.243.027.032.091.06.128.048.033-.01.08-.075.075-.113a5.803 5.803 0 00-.112-.608c-.712-2.98-.92-6.012-.953-9.056-.043-3.766-.005-7.531-.01-11.297-.006-2.71-.156-5.414-.568-8.096-.32-2.096-.428-4.207-.508-6.32-.01-.23-.01-.463.005-.694.038-.447.273-.722.632-.76.316-.032.572.162.712.582.112.345.187.695.262 1.05.3 1.385.605 2.775 1.124 4.1a43.47 43.47 0 003.698 7.38c.781 1.245 1.61 2.451 2.413 3.68.98 1.486 1.836 3.043 2.414 4.735.39 1.147.765 2.3 1.124 3.453.481 1.524.98 3.043 1.621 4.509a42.39 42.39 0 012.205 6.265c.423 1.605.642 3.232.707 4.886.043 1.126-.123 2.214-.573 3.243-.177.398-.37.797-.583 1.174a58.8 58.8 0 01-1.092 1.864 5.019 5.019 0 00-.444.9 1.658 1.658 0 00-.032 1.136c.139.447.347.857.545 1.277.348.738.916 1.153 1.734 1.223.434.038.867.081 1.296.156 1.99.356 3.97.77 5.913 1.331.295.086.6.145.889.253 1.964.749 3.965 1.39 5.956 2.074.364.124.739.226 1.086.393 1.188.566 2.435.948 3.682 1.336 3.527 1.099 6.958 2.467 10.43 3.712.076.027.145.048.215.086.824.426 1.712.679 2.58.997 1.589.576 3.221 1.023 4.768 1.729 1 .458 2.007.916 2.975 1.433 1.381.738 2.746 1.503 4.121 2.246 1.172.636 2.36 1.255 3.452 2.02.797.555 1.659.895 2.569 1.18 1.418.447 2.82.937 4.228 1.417.192.064.385.14.567.231.878.426 1.75.857 2.628 1.277.139.065.283.119.433.156.086.022.161-.059.139-.134a4.306 4.306 0 00-.203-.582c-.755-1.821-1.285-3.701-1.515-5.662-.273-2.305-1.182-4.363-2.37-6.319-.787-1.298-1.579-2.591-2.371-3.889-.787-1.298-1.542-2.618-2.478-3.82-.466-.598-1.028-1.077-1.643-1.492a1.945 1.945 0 00-1.006-.339 12.06 12.06 0 00-1.076 0c-.46.021-.92.07-1.38.091-2.141.108-4.25-.059-6.283-.818-.867-.324-1.745-.609-2.617-.9a9.173 9.173 0 01-2.767-1.487c-.953-.738-1.9-1.492-2.837-2.252-1.182-.953-2.226-2.057-3.334-3.092-.995-.932-1.996-1.858-2.922-2.855-1.91-2.058-3.655-4.25-4.934-6.782-.889-1.762-2.055-3.324-3.275-4.854-1.89-2.376-3.944-4.611-5.909-6.927-.711-.846-1.493-1.633-2.242-2.446-.225-.248-.47-.48-.605-.792-.112-.253-.101-.501.102-.717a.617.617 0 01.706-.161c.166.06.327.156.477.253.904.587 1.809 1.169 2.708 1.762 1.91 1.26 3.885 2.397 6.058 3.151 1.21.42 2.397.9 3.596 1.358.096.037.187.08.284.123 1.215.555 2.44 1.078 3.703 1.503 1.723.588 3.447 1.17 5.18 1.73 1.44.468 2.848 1.012 4.19 1.718 3.5 1.832 6.45 4.272 8.59 7.65a54.005 54.005 0 012.002 3.388c.583 1.088 1.145 2.187 1.61 3.34.338.84.627 1.691.905 2.548.386 1.18.883 2.316 1.579 3.34.781 1.147 1.605 2.268 2.424 3.388a28.339 28.339 0 011.761 2.721c.642 1.115 1.311 2.214 1.975 3.318.712 1.191 1.493 2.344 2.06 3.62.584 1.299 1.06 2.629 1.231 4.051.075.614.155 1.229.257 1.837.353 2.069.888 4.078 1.964 5.91.225.382.46.738.83.996.572.404 1.016.938 1.455 1.476.246.297.493.593.749.884a425.76 425.76 0 002.152 2.424c.685.765 1.348 1.557 2.108 2.252a26.675 26.675 0 005.604 3.916c2.847 1.487 5.533 3.238 8.091 5.182.161.124.348.216.53.302.23.108.482.178.712.291 1.252.636 2.617.905 3.966 1.174 2.386.48 4.763 1.002 7.064 1.816.412.145.819.302 1.193.528.792.474 1.6.926 2.382 1.411.829.512 1.675.991 2.536 1.455 1.312.711 2.708 1.223 4.068 1.831.84.377 1.675.771 2.515 1.153.166.075.321.167.423.323a.527.527 0 01.037.582.478.478 0 01-.444.259 1.1 1.1 0 01-.375-.06c-.647-.237-1.3-.474-1.937-.738-.733-.307-1.439-.678-2.183-.958-1.424-.534-2.756-1.25-4.073-1.994-.979-.555-1.943-1.153-2.911-1.734-.728-.437-1.488-.808-2.307-1.04a192.669 192.669 0 00-3.478-.964 7.223 7.223 0 00-1.14-.183c-2.093-.211-4.196-.114-6.294-.141-.102 0-.203.017-.305.017-1.092 0-1.98.458-2.74 1.212-.129.124-.246.264-.369.393-.375.388-.744.781-1.13 1.158-.369.356-.749.706-1.188.975a28.523 28.523 0 01-2.772 1.503 4.62 4.62 0 00-1.092.711c-.251.221-.492.447-.738.674-1.857 1.713-3.029 3.808-3.505 6.297-.166.862-.322 1.724-.52 2.575-.165.727-.369 1.449-.717 2.117a17.285 17.285 0 01-1.857 2.839c-1.386 1.724-2.863 3.372-4.324 5.032-1.493 1.696-2.997 3.393-4.319 5.236a33.031 33.031 0 00-3.114 5.322c-.76 1.638-1.349 3.345-1.868 5.075-.118.393-.204.797-.289 1.201-.145.652-.273 1.314-.412 1.966a2.122 2.122 0 01-.139.442.55.55 0 01-.557.339c-.23-.01-.385-.156-.455-.361a2.856 2.856 0 01-.123-.603 71.393 71.393 0 00-.722-5.522 33.776 33.776 0 01-.391-2.833c-.225-2.462-.396-4.935-.632-7.397a20.459 20.459 0 01.038-4.088 28.76 28.76 0 01.193-1.536c.17-1.066.289-2.149.545-3.199a18.845 18.845 0 012.216-5.334c1.638-2.672 3.628-4.988 6.39-6.545 1.375-.776 2.804-1.39 4.34-1.745 1.729-.399 3.489-.544 5.261-.63a18.144 18.144 0 001.53-.135 112.58 112.58 0 002.735-.41c.947-.145 1.847-.436 2.671-.931.417-.254.829-.523 1.257-.744.744-.377 1.376-.889 1.948-1.487.423-.447.862-.883 1.295-1.32.889-.899 1.948-1.406 3.217-1.438.514-.011 1.022-.005 1.536-.016.107 0 .246.07.321-.102a15.89 15.89 0 01-4.078-2.301 25.906 25.906 0 00-3.275-2.16c-1.408-.792-2.831-1.562-4.228-2.37-1.921-1.11-3.698-2.43-5.229-4.035-1.595-1.67-3.104-3.431-4.64-5.161-.604-.678-1.273-1.266-2.092-1.664-.551-.27-1.092-.571-1.643-.841-.947-.452-1.884-.948-2.863-1.319-1.413-.539-2.864-.981-4.298-1.455a6.13 6.13 0 00-.819-.205c-1.418-.258-2.847-.318-4.286-.307-.23 0-.46.033-.68.113a14.584 14.584 0 00-3.575 1.934c-1.391 1.029-2.574 2.263-3.644 3.631-.91 1.164-1.504 2.446-1.868 3.863a6.036 6.036 0 00-.129 2.456c.193 1.169.428 2.333.632 3.502.326 1.864.433 3.738.085 5.613-.09.479-.165.964-.272 1.444-.284 1.255-.562 2.515-.883 3.76-.434 1.675-1.156 3.254-1.799 4.853-.385.954-.78 1.907-1.295 2.802-1.108 1.944-2.2 3.9-3.205 5.898a12.725 12.725 0 00-1.21 3.734c-.16.996-.171 2.004-.257 3.006-.021.28-.053.565-.08.845-.037.351-.22.631-.46.873-.295.291-.733.172-.846-.232a1.979 1.979 0 01-.053-.533c-.006-.463 0-.926.01-1.39.08-3.35.166-6.701.118-10.052-.048-3.507.043-7.014.29-10.51a23.091 23.091 0 011.24-6.039c.514-1.47 1.215-2.844 1.986-4.18 1.274-2.203 2.606-4.38 4.132-6.427.289-.393.588-.786.84-1.201.894-1.476 2.114-2.715 2.986-4.213.027-.043.064-.081.096-.118.942-1.137 1.997-2.144 3.228-2.963.101-.065.24-.102.246-.259-.07-.107-.177-.086-.273-.075-1.044.129-2.087.248-3.115.474-.626.14-1.236.35-1.862.453-.509.086-1.001.21-1.493.355-1.852.544-3.591 1.368-5.32 2.209a4.932 4.932 0 00-1.033.662 29.23 29.23 0 00-1.648 1.509c-.236.231-.45.495-.626.775-.263.415-.557.803-.937 1.116-.348.285-.567.651-.696 1.082a8.7 8.7 0 01-.519 1.374c-.84 1.713-1.76 3.378-2.708 5.031-.385.674-.83 1.304-1.348 1.881a38.622 38.622 0 01-2.558 2.564 148.02 148.02 0 00-2.553 2.348c-.787.744-1.6 1.45-2.505 2.042-1.011.663-1.959 1.412-2.879 2.187-.551.464-1.118.905-1.745 1.266-1.257.717-2.365 1.627-3.473 2.548-.294.248-.6.49-.926.69-.856.517-1.728 1.018-2.772 1.056-.337.01-.648.145-.931.339-.337.232-.685.453-1.017.695-.872.636-1.664 1.368-2.489 2.069-1.418 1.195-2.932 2.251-4.58 3.097-.916.469-1.847.889-2.805 1.266-1.332.528-2.654 1.094-3.981 1.643-1.017.42-2.06.776-3.062 1.25-.556.258-1.15.436-1.728.641-.268.091-.546.156-.83.14-.47-.027-.7-.49-.46-.9.112-.183.278-.301.455-.404.6-.35 1.193-.705 1.803-1.034a8.913 8.913 0 001.408-.937c1.568-1.293 3.056-2.672 4.383-4.213 1.413-1.638 2.665-3.399 3.928-5.155 1.29-1.794 2.531-3.631 3.837-5.414 2.173-2.969 4.512-5.813 6.941-8.571.766-.867 1.536-1.735 2.43-2.473.337-.28.653-.576.98-.867.78-.706 1.594-1.379 2.488-1.939.546-.34 1.076-.695 1.627-1.029.77-.463 1.52-.964 2.35-1.315 3.14-1.314 6.421-2.101 9.788-2.553.101-.016.203-.022.305-.011.262.027.503-.048.754-.118.867-.237 1.697-.582 2.542-.878a8.602 8.602 0 001.98-1.008 142.742 142.742 0 013.019-1.988c.455-.29.947-.517 1.418-.775.037-.022.08-.076.085-.119.011-.091-.069-.129-.144-.134a16.783 16.783 0 01-2.58-.41c-.219-.054-.46-.043-.684-.032a31.203 31.203 0 00-4.94.722c-1.68.387-3.366.684-5.1.581a78.38 78.38 0 01-3.217-.264c-1.402-.145-2.772-.495-4.158-.738-1.038-.183-2.034-.522-3.061-.748-.755-.167-1.434-.555-2.157-.814-1.67-.598-3.248-1.395-4.811-2.23a135.855 135.855 0 01-3.307-1.815c-1.499-.852-3.094-1.487-4.651-2.214a17.653 17.653 0 01-2.542-1.439c-.214-.145-.428-.291-.578-.501-.321-.447-.091-.975.45-1.023.128-.011.256 0 .38.021.984.162 1.974.313 2.916.657.482.178.969.34 1.477.421 2.783.441 5.593.7 8.397.969 1.375.135 2.767.108 4.148.103 1.873-.011 3.74.086 5.603.22 1.38.097 2.767.162 4.126.442.701.14 1.418.243 2.087.517 1 .41 1.916.975 2.74 1.692.851.743 1.718 1.465 2.574 2.203.568.49 1.172.932 1.863 1.212 2.253.911 4.56 1.552 7.016 1.492.62-.016 1.215-.075 1.814-.247 2.098-.609 4.228-1.051 6.411-1.212 1.585-.119 3.174-.14 4.763-.135.198 0 .407.075.621-.07-.032-.119-.176-.178-.305-.248z" fill="#CBD7C9"/></svg>