<svg width="353" height="428" fill="none" xmlns="http://www.w3.org/2000/svg"><path opacity=".5" d="M217.526 273.48c-3.944-2.151-7.877-4.314-11.832-6.441-5.025-2.697-10.229-4.943-15.681-6.642-2.008-.63-4.016-1.272-5.964-2.08-3.421-1.414-6.961-2.507-10.383-3.874-1.948-.784-3.908-1.544-5.904-2.222-4.847-1.628-9.705-3.244-14.564-4.872-.76-.249-1.532-.487-2.233-.832-1.545-.76-3.16-1.271-4.776-1.83-1.936-.665-3.861-1.366-5.809-1.996-2.376-.76-4.609-1.937-7.104-2.353-2.293-.392-4.538-1.069-6.854-1.319a23.882 23.882 0 01-3.849-.736c-2.459-.702-4.93-1.355-7.461-1.783a83.687 83.687 0 01-4.514-.915c-1.473-.344-2.827-.986-3.611-2.353-.571-.986-1.402-1.604-2.329-2.198-2.067-1.331-4.36-1.925-6.76-2.091-1.722-.119-3.397.237-5.048.677a107.637 107.637 0 01-14.885 2.899c-4.764.583-9.54.499-14.267-.427-1.117-.214-2.198-.571-3.315-.785-4.87-.962-9.29-3.03-13.447-5.644-3.707-2.341-7.164-5.039-10.442-7.95a26.857 26.857 0 01-1.949-1.901 102.838 102.838 0 01-6.427-7.748c-3.623-4.824-6.96-9.851-10.275-14.877-1.877-2.852-3.647-5.763-5.536-8.615-2.756-4.171-5.584-8.307-8.363-12.466a108.644 108.644 0 01-2.816-4.479c-.38-.63-.713-1.296-.974-1.985-.297-.808-.071-1.462.51-1.806.583-.345 1.248-.238 1.866.344.368.357.677.761.998 1.165.926 1.153 1.83 2.317 2.78 3.458 2.625 3.149 5.488 6.072 8.327 9.031 2.174 2.258 4.443 4.409 6.962 6.286 5.393 4.028 11.119 7.498 17.094 10.6 2.934 1.521 5.786 3.172 8.482 5.074 3.683 2.578 7.365 5.145 11.048 7.724 5.25 3.683 10.953 6.464 17.047 8.46.808.262 1.616.535 2.448.773 1.972.546 3.955 1.033 5.916 1.628a186.71 186.71 0 0110.691 3.541c.333.119.772.523 1.057.059.178-.285-.237-.594-.44-.844-2.482-3.006-4.501-6.286-5.975-9.898a5.79 5.79 0 00-1.104-1.711c-1.925-2.103-3.505-4.48-5.12-6.809-1.854-2.662-3.445-5.478-5.287-8.164-1.532-2.234-3.314-4.182-5.346-5.929-1.65-1.426-3.564-2.413-5.535-3.328-2.745-1.283-5.608-2.234-8.53-2.935a52.762 52.762 0 01-5.072-1.449c-1.89-.642-3.695-1.498-5.572-2.127-3.113-1.046-5.88-2.662-8.541-4.552-3.54-2.507-6.784-5.359-9.944-8.294-3.136-2.923-5.44-6.405-6.712-10.528-1.496-4.848-2.803-9.732-3.23-14.806-.143-1.7-.38-3.399-.654-5.074-.677-4.1-1.568-8.152-2.471-12.204-.44-1.996-.915-3.993-1.342-6.001a5.95 5.95 0 01-.25-1.735c0-.677.475-1.212 1.081-1.378.535-.143 1.07.059 1.45.653.308.476.546.998.784 1.509 1.508 3.185 3.04 6.358 4.502 9.566 1.794 3.922 4.265 7.379 7.163 10.54 1.343 1.462 2.733 2.9 3.825 4.575 1.96 3.019 3.505 6.239 4.716 9.637 1.307 3.648 2.21 7.415 3.113 11.17a22.09 22.09 0 001.687 4.635c1.069 2.15 2.364 4.147 3.742 6.108.89 1.259 1.96 2.364 3.1 3.386a8.756 8.756 0 002.59 1.628c1.699.666 3.469 1.093 5.227 1.533 1.758.44 3.54.82 5.31 1.271.88.226 1.723.559 2.554.951 1.89.915 3.802 1.806 5.703 2.686.142.071.38.13.475.059.237-.166.095-.404 0-.606-.535-1.069-1.081-2.127-1.604-3.208-2.625-5.431-4.978-10.98-7.805-16.316-2.102-3.969-3.92-8.092-5.833-12.156a22.4 22.4 0 01-.724-1.735c-.511-1.39-.856-2.864-1.545-4.147-.962-1.794-1.983-3.577-3.314-5.157-3.374-3.993-6.724-8.009-10.086-12.026-1.354-1.616-2.756-3.208-3.754-5.074-1.698-3.161-3.813-6.072-5.607-9.161-1.259-2.175-2.388-4.397-3.338-6.714-1.853-4.528-3.504-9.138-5.084-13.76-1.176-3.447-2.234-6.928-2.982-10.505-1.354-6.477-1.936-13.048-2.067-19.655-.178-8.936.142-17.86.606-26.772.344-6.761 1.27-13.475 2.09-20.19.476-3.956 1.058-7.89 1.925-11.775.226-.998.558-1.96.89-2.935a4.53 4.53 0 01.963-1.604c.855-.927 2.091-.808 2.72.273.226.392.369.832.464 1.271.19.832.332 1.676.475 2.52.63 3.707 1.354 7.39 2.507 10.967 1.057 3.304 2.174 6.584 3.29 9.875 2.329 6.892 4.657 13.796 7.164 20.63 2.423 6.63 5.286 13.07 8.22 19.487 1.2 2.638 2.4 5.288 3.47 7.974 2.399 6 4.05 12.191 4.406 18.691.238 4.385.202 8.746-.594 13.084a218.892 218.892 0 00-1.687 10.789c-.867 6.619-.938 13.274-.332 19.916.202 2.163.416 4.325 1.188 6.357.903 2.389 1.782 4.801 2.91 7.095 2.733 5.501 5.453 11.015 8.197 16.505 1.319 2.65 2.471 5.371 3.647 8.092 1.034 2.401 2.103 4.789 3.267 7.13 1.39 2.804 2.899 5.538 4.372 8.306.297.547.606 1.105.998 1.581 1.449 1.77 2.601 3.719 3.718 5.715.808 1.438 1.722 2.817 2.59 4.207.118.19.261.38.415.535.06.071.202.13.285.107.072-.024.179-.167.167-.25a12.91 12.91 0 00-.25-1.343c-1.58-6.571-2.043-13.261-2.114-19.975-.095-8.306-.012-16.612-.024-24.918-.012-5.978-.344-11.943-1.26-17.861-.712-4.622-.95-9.28-1.128-13.938a13.178 13.178 0 01.012-1.533c.083-.986.606-1.592 1.402-1.676.7-.071 1.271.357 1.58 1.284.25.76.416 1.533.582 2.317.665 3.054 1.342 6.12 2.495 9.043a95.872 95.872 0 008.209 16.279c1.734 2.745 3.575 5.407 5.357 8.117 2.174 3.279 4.075 6.713 5.358 10.445a296.757 296.757 0 012.494 7.617c1.07 3.362 2.174 6.713 3.6 9.946 1.984 4.479 3.635 9.078 4.894 13.819.939 3.542 1.426 7.13 1.568 10.778.095 2.484-.273 4.884-1.271 7.154a28.953 28.953 0 01-1.295 2.59 127.348 127.348 0 01-2.423 4.112c-.392.63-.725 1.283-.986 1.984a3.641 3.641 0 00-.071 2.508c.309.986.772 1.889 1.211 2.816.773 1.628 2.032 2.543 3.849 2.697.963.083 1.925.179 2.875.345 4.419.784 8.815 1.699 13.127 2.935.654.19 1.331.321 1.972.558 4.36 1.652 8.803 3.066 13.222 4.575.808.274 1.639.499 2.412.868 2.637 1.248 5.405 2.091 8.173 2.947 7.828 2.424 15.443 5.442 23.153 8.187.166.06.321.107.475.19 1.83.939 3.802 1.498 5.726 2.199 3.528 1.271 7.152 2.257 10.585 3.814 2.221 1.01 4.455 2.02 6.605 3.161 3.065 1.628 6.094 3.315 9.147 4.955 2.602 1.402 5.239 2.769 7.662 4.456 1.77 1.224 3.683 1.973 5.702 2.603 3.148.986 6.261 2.067 9.385 3.125a9.48 9.48 0 011.259.511c1.949.939 3.885 1.889 5.833 2.816.309.143.63.261.963.345.19.047.356-.131.308-.297a9.574 9.574 0 00-.451-1.284c-1.675-4.016-2.851-8.163-3.362-12.489-.606-5.086-2.625-9.625-5.263-13.938-1.746-2.864-3.504-5.716-5.262-8.58-1.746-2.864-3.421-5.775-5.5-8.425-1.034-1.319-2.281-2.377-3.647-3.292a4.327 4.327 0 00-2.234-.748 26.414 26.414 0 00-2.388 0c-1.021.047-2.043.154-3.064.202-4.752.237-9.433-.131-13.947-1.806-1.925-.713-3.873-1.343-5.809-1.985-2.245-.737-4.277-1.842-6.142-3.28a356.415 356.415 0 01-6.296-4.967c-2.625-2.103-4.942-4.539-7.401-6.82-2.21-2.056-4.431-4.1-6.486-6.298-4.241-4.54-8.114-9.376-10.953-14.961-1.972-3.886-4.562-7.332-7.27-10.707-4.194-5.24-8.756-10.171-13.115-15.281-1.58-1.866-3.315-3.601-4.978-5.395-.499-.546-1.045-1.057-1.342-1.747-.25-.558-.226-1.105.225-1.58.44-.464.986-.57 1.569-.357.368.131.724.345 1.057.559 2.008 1.295 4.015 2.579 6.011 3.886 4.241 2.78 8.624 5.288 13.448 6.951 2.684.927 5.322 1.985 7.983 2.995.213.083.415.178.629.273 2.697 1.224 5.417 2.377 8.221 3.315a758.512 758.512 0 0011.499 3.815c3.196 1.034 6.32 2.234 9.302 3.79 7.769 4.041 14.315 9.424 19.066 16.874a118.527 118.527 0 014.443 7.475c1.295 2.4 2.543 4.824 3.576 7.367.749 1.854 1.39 3.731 2.008 5.621.855 2.602 1.96 5.109 3.504 7.367 1.735 2.531 3.564 5.003 5.382 7.474a62.765 62.765 0 013.908 6.001c1.426 2.46 2.911 4.884 4.384 7.32 1.58 2.626 3.314 5.169 4.573 7.986 1.295 2.863 2.352 5.798 2.732 8.936.167 1.354.345 2.709.571 4.052.784 4.563 1.972 8.995 4.359 13.035.499.844 1.022 1.628 1.842 2.199 1.271.891 2.257 2.067 3.231 3.255.547.654 1.093 1.308 1.663 1.949a957.335 957.335 0 004.776 5.348c1.52 1.687 2.993 3.434 4.68 4.967a59.281 59.281 0 0012.438 8.639c6.32 3.279 12.284 7.141 17.962 11.431.356.273.772.475 1.176.665.511.238 1.069.393 1.58.642 2.78 1.402 5.809 1.996 8.803 2.591 5.298 1.057 10.573 2.21 15.681 4.004.914.321 1.817.666 2.649 1.165 1.758 1.045 3.552 2.044 5.286 3.113a109.722 109.722 0 005.631 3.208c2.911 1.569 6.011 2.698 9.029 4.041 1.865.831 3.718 1.699 5.583 2.543.368.166.713.368.938.713.286.415.321.855.084 1.283-.202.38-.559.57-.986.57a2.44 2.44 0 01-.832-.13c-1.437-.523-2.887-1.046-4.3-1.628-1.628-.678-3.196-1.498-4.847-2.116-3.16-1.176-6.118-2.756-9.041-4.396-2.173-1.224-4.312-2.543-6.462-3.827-1.616-.962-3.302-1.782-5.12-2.293a432.34 432.34 0 00-7.722-2.127c-.819-.214-1.675-.321-2.53-.404-4.645-.463-9.314-.25-13.97-.309-.226 0-.452.036-.678.036-2.423 0-4.395 1.01-6.082 2.673-.285.274-.546.583-.82.868-.831.855-1.651 1.723-2.506 2.555-.82.784-1.663 1.556-2.637 2.15a63.826 63.826 0 01-6.154 3.316c-.891.416-1.687.927-2.423 1.568-.559.488-1.093.987-1.64 1.486-4.122 3.778-6.724 8.401-7.781 13.891-.368 1.901-.713 3.802-1.152 5.68-.368 1.604-.82 3.196-1.592 4.67a38.207 38.207 0 01-4.122 6.262c-3.077 3.803-6.356 7.439-9.599 11.099-3.314 3.743-6.652 7.486-9.587 11.55a72.88 72.88 0 00-6.914 11.74c-1.686 3.613-2.993 7.38-4.145 11.194-.262.868-.452 1.759-.642 2.65-.321 1.438-.606 2.9-.915 4.337a4.61 4.61 0 01-.309.975c-.237.511-.665.772-1.235.748-.511-.023-.855-.344-1.01-.796a6.368 6.368 0 01-.273-1.331c-.392-4.076-.891-8.139-1.604-12.18-.368-2.067-.677-4.159-.867-6.25-.499-5.431-.879-10.885-1.402-16.315-.285-3.019-.237-6.025.083-9.02.119-1.128.25-2.257.428-3.386.38-2.353.642-4.741 1.212-7.059a41.392 41.392 0 014.918-11.764c3.635-5.894 8.054-11.003 14.184-14.438 3.053-1.711 6.225-3.065 9.634-3.85 3.837-.879 7.746-1.2 11.678-1.39a40.526 40.526 0 003.397-.297c2.032-.273 4.051-.582 6.071-.903 2.103-.321 4.098-.963 5.928-2.056.926-.558 1.841-1.153 2.791-1.64 1.652-.832 3.054-1.96 4.325-3.279.938-.987 1.912-1.949 2.874-2.912 1.972-1.984 4.325-3.101 7.14-3.172 1.141-.024 2.269-.012 3.409-.036.238 0 .547.154.713-.226-3.267-1.259-6.284-2.923-9.052-5.074-2.293-1.782-4.74-3.351-7.27-4.765-3.125-1.747-6.284-3.446-9.385-5.228-4.265-2.448-8.209-5.36-11.606-8.901-3.54-3.684-6.89-7.569-10.3-11.384-1.342-1.497-2.827-2.792-4.645-3.671-1.223-.595-2.423-1.26-3.647-1.854-2.102-.998-4.181-2.092-6.355-2.912-3.137-1.188-6.356-2.162-9.54-3.208a13.398 13.398 0 00-1.817-.451c-3.148-.571-6.32-.702-9.516-.678-.51 0-1.021.071-1.508.25a32.303 32.303 0 00-7.936 4.266c-3.089 2.269-5.714 4.991-8.09 8.009-2.019 2.567-3.338 5.395-4.146 8.52-.451 1.782-.582 3.6-.285 5.418.428 2.579.95 5.146 1.402 7.724.725 4.112.962 8.247.19 12.382-.202 1.058-.368 2.127-.606 3.185-.63 2.769-1.247 5.549-1.96 8.294-.962 3.696-2.566 7.178-3.992 10.707-.855 2.103-1.734 4.206-2.874 6.179-2.459 4.29-4.883 8.603-7.116 13.012a27.88 27.88 0 00-2.685 8.235c-.356 2.198-.38 4.42-.57 6.63-.048.618-.119 1.248-.178 1.866-.084.772-.487 1.39-1.022 1.925-.653.642-1.628.38-1.877-.511-.107-.38-.119-.784-.119-1.176-.012-1.022 0-2.044.024-3.066.178-7.391.368-14.782.261-22.174-.107-7.735.095-15.471.642-23.183a50.65 50.65 0 012.756-13.321c1.14-3.244 2.697-6.274 4.407-9.221 2.828-4.86 5.786-9.661 9.171-14.177.642-.867 1.307-1.735 1.865-2.649 1.984-3.256 4.693-5.99 6.629-9.293.059-.095.143-.178.214-.261 2.091-2.508 4.431-4.73 7.163-6.536.226-.143.535-.226.547-.57-.155-.238-.392-.191-.606-.167-2.317.285-4.633.547-6.914 1.046-1.39.309-2.744.772-4.134.998a28.72 28.72 0 00-3.315.784c-4.11 1.201-7.971 3.019-11.808 4.872-.808.393-1.604.88-2.293 1.462-1.271 1.058-2.47 2.175-3.658 3.327a9.609 9.609 0 00-1.39 1.711c-.582.915-1.236 1.771-2.079 2.46-.772.63-1.259 1.438-1.545 2.389-.308 1.033-.665 2.043-1.152 3.03-1.865 3.779-3.908 7.45-6.011 11.098a23.846 23.846 0 01-2.994 4.148 84.861 84.861 0 01-5.678 5.656c-1.901 1.711-3.801 3.422-5.667 5.181-1.746 1.64-3.551 3.196-5.559 4.503-2.245 1.462-4.348 3.114-6.391 4.825-1.224 1.022-2.483 1.996-3.873 2.792-2.792 1.581-5.251 3.589-7.71 5.621-.653.547-1.33 1.081-2.055 1.521-1.901 1.141-3.837 2.246-6.154 2.329-.748.024-1.437.321-2.067.749-.748.511-1.52.998-2.257 1.533-1.936 1.402-3.694 3.018-5.524 4.563-3.148 2.638-6.51 4.967-10.169 6.832a69.552 69.552 0 01-6.225 2.793c-2.957 1.164-5.892 2.412-8.838 3.624-2.257.927-4.573 1.711-6.795 2.757-1.235.57-2.554.963-3.837 1.414-.594.202-1.212.345-1.841.309-1.046-.059-1.556-1.081-1.022-1.984.25-.404.618-.666 1.01-.892 1.33-.772 2.649-1.556 4.003-2.281 1.105-.606 2.162-1.272 3.124-2.068 3.481-2.852 6.784-5.894 9.73-9.292 3.136-3.613 5.916-7.498 8.72-11.372 2.862-3.957 5.618-8.009 8.517-11.943 4.823-6.547 10.014-12.821 15.408-18.905 1.699-1.913 3.409-3.827 5.393-5.455.748-.618 1.449-1.271 2.174-1.913 1.734-1.556 3.54-3.042 5.524-4.278 1.212-.748 2.388-1.533 3.611-2.269 1.711-1.022 3.374-2.127 5.215-2.9 6.974-2.899 14.256-4.634 21.728-5.632.226-.036.452-.048.677-.024.582.059 1.117-.107 1.675-.261 1.925-.523 3.766-1.284 5.643-1.937a19.149 19.149 0 004.395-2.222 305.76 305.76 0 016.701-4.385c1.009-.642 2.102-1.141 3.148-1.711.083-.048.178-.167.19-.262.023-.202-.155-.285-.321-.297-1.936-.142-3.837-.463-5.726-.903-.487-.119-1.022-.095-1.521-.071-3.694.249-7.353.76-10.964 1.592-3.731.856-7.473 1.509-11.322 1.283a177.094 177.094 0 01-7.139-.582c-3.113-.321-6.154-1.093-9.231-1.628-2.304-.404-4.514-1.152-6.795-1.652-1.675-.368-3.183-1.224-4.787-1.794-3.707-1.319-7.211-3.078-10.68-4.919-2.459-1.308-4.918-2.627-7.341-4.005-3.327-1.877-6.867-3.28-10.324-4.884-1.96-.915-3.86-1.949-5.642-3.173-.476-.32-.95-.641-1.283-1.105-.713-.986-.202-2.151.998-2.258.285-.023.57 0 .843.048 2.186.357 4.383.689 6.474 1.45 1.069.392 2.15.748 3.279.927 6.177.974 12.414 1.544 18.639 2.139 3.053.297 6.142.237 9.207.225 4.157-.023 8.303.19 12.437.488 3.065.213 6.142.356 9.16.974 1.556.309 3.148.535 4.633 1.141a21.86 21.86 0 016.082 3.731c1.889 1.64 3.813 3.232 5.714 4.86 1.259 1.081 2.602 2.056 4.134 2.674 5.001 2.008 10.121 3.422 15.574 3.291 1.378-.035 2.697-.166 4.027-.546 4.657-1.343 9.385-2.317 14.232-2.674 3.516-.261 7.044-.309 10.573-.297.439 0 .903.166 1.378-.155-.072-.261-.392-.392-.677-.546z" fill="#CBD7C9"/></svg>