<svg width="251" height="502" fill="none" xmlns="http://www.w3.org/2000/svg"><g opacity=".45" clip-path="url(#clip0)"><path d="M65.268 159.609c3.27 3.512 6.527 7.051 9.825 10.536 4.18 4.433 8.698 8.474 13.651 12.054 1.819 1.315 3.637 2.658 5.333 4.122 2.986 2.59 6.202 4.895 9.214 7.458 1.71 1.464 3.447 2.901 5.238 4.257l13.109 9.885c.678.516 1.384 1.004 1.981 1.6 1.303 1.288 2.782 2.36 4.22 3.472 1.737 1.328 3.447 2.698 5.211 3.986 2.158 1.573 4.017 3.526 6.405 4.8 2.198 1.18 4.234 2.617 6.514 3.675a26.158 26.158 0 013.65 2.047c2.253 1.546 4.546 3.038 6.961 4.339 1.439.773 2.864 1.6 4.261 2.468 1.384.854 2.524 1.953 2.864 3.62.244 1.194.882 2.102 1.614 3.011 1.642 2.047 3.759 3.43 6.148 4.42 1.696.705 3.528.922 5.346 1.031a112.49 112.49 0 0116.08 2.128c5.021 1.031 9.839 2.726 14.317 5.275 1.058.597 2.049 1.315 3.094 1.926 4.613 2.63 8.386 6.223 11.724 10.291 2.972 3.634 5.55 7.539 7.884 11.607.489.841.937 1.709 1.33 2.59a110.912 110.912 0 013.881 10.034c2.036 6.115 3.718 12.339 5.36 18.563.937 3.526 1.737 7.078 2.687 10.604 1.384 5.166 2.85 10.305 4.247 15.471.489 1.817.923 3.647 1.344 5.492.176.772.285 1.559.312 2.345.027.922-.434 1.505-1.14 1.655-.706.149-1.357-.19-1.778-.977-.257-.474-.434-1.003-.624-1.518-.556-1.478-1.072-2.97-1.642-4.448-1.587-4.081-3.501-8.014-5.373-11.973-1.439-3.024-3.013-5.966-4.926-8.719-4.098-5.912-8.726-11.376-13.733-16.542-2.456-2.536-4.79-5.18-6.88-8.014-2.85-3.864-5.727-7.715-8.576-11.58-4.071-5.518-8.916-10.264-14.412-14.359-.732-.543-1.465-1.099-2.211-1.6-1.805-1.221-3.664-2.4-5.456-3.648a200.05 200.05 0 01-9.634-7.213c-.299-.245-.611-.787-1.059-.421-.271.231.041.678.163 1.017 1.506 3.878 2.429 7.892 2.701 12.055.04.745.244 1.437.542 2.101 1.235 2.794 2.036 5.722 2.877 8.638.964 3.322 1.629 6.725 2.579 10.061.787 2.78 1.94 5.356 3.406 7.824 1.194 2.006 2.795 3.647 4.478 5.247 2.347 2.238 4.926 4.177 7.653 5.871a54.452 54.452 0 014.655 3.201c1.696 1.288 3.243 2.766 4.925 4.04 2.809 2.116 5.062 4.692 7.125 7.512 2.741 3.743 5.061 7.729 7.273 11.783 2.185 4.028 3.338 8.34 3.23 12.95-.122 5.41-.462 10.807-1.751 16.095a65.955 65.955 0 00-1.058 5.369c-.706 4.38-1.181 8.801-1.642 13.207-.231 2.17-.434 4.353-.679 6.536a8.714 8.714 0 01-.366 1.776c-.231.692-.896 1.072-1.561 1.031-.597-.041-1.058-.434-1.248-1.153-.149-.583-.217-1.193-.285-1.803-.448-3.742-.923-7.485-1.316-11.227-.475-4.583-1.819-8.922-3.678-13.112-.868-1.939-1.777-3.865-2.32-5.939-.964-3.729-1.439-7.512-1.506-11.363-.082-4.15.285-8.258.651-12.38a23.638 23.638 0 00-.136-5.275c-.353-2.535-.977-5.003-1.723-7.458-.475-1.586-1.181-3.064-1.995-4.488a9.262 9.262 0 00-2.076-2.522c-1.493-1.261-3.148-2.278-4.777-3.322-1.642-1.044-3.311-2.034-4.953-3.091a15.429 15.429 0 01-2.266-1.831c-1.601-1.573-3.243-3.119-4.872-4.664-.122-.122-.339-.258-.461-.217-.285.081-.231.379-.203.61.176 1.261.379 2.522.542 3.796.828 6.387 1.317 12.814 2.362 19.174.787 4.745 1.221 9.518 1.791 14.291.081.665.122 1.329.149 1.994.054 1.572-.109 3.186.149 4.732.367 2.142.801 4.298 1.615 6.346 2.063 5.193 4.098 10.4 6.134 15.607.814 2.101 1.696 4.19 2.076 6.413.651 3.783 1.805 7.444 2.578 11.187.543 2.63.923 5.261 1.099 7.932.34 5.221.448 10.441.475 15.675.027 3.892-.081 7.783-.542 11.648-.828 7.023-2.47 13.885-4.574 20.624-2.849 9.112-6.215 18.047-9.716 26.915-2.646 6.726-5.875 13.221-8.969 19.743-1.832 3.837-3.759 7.634-5.944 11.281-.556.936-1.235 1.804-1.9 2.672a4.68 4.68 0 01-1.52 1.301c-1.18.651-2.401.109-2.659-1.206-.095-.475-.082-.977-.041-1.451.095-.909.231-1.804.366-2.712.625-3.973 1.14-7.946 1.181-11.96.041-3.701.027-7.417.014-11.118-.028-7.784-.041-15.553-.258-23.336-.204-7.54-.923-15.038-1.71-22.536-.326-3.078-.638-6.17-.814-9.261-.394-6.902.027-13.723 1.886-20.421 1.248-4.529 2.768-8.922 5.048-13.058a240.946 240.946 0 005.374-10.359c3.134-6.414 5.455-13.126 7.097-20.068.529-2.251 1.045-4.516.963-6.848-.108-2.725-.176-5.464-.543-8.176a4641.473 4641.473 0 00-2.714-19.512c-.434-3.133-.678-6.279-.95-9.424-.23-2.78-.502-5.573-.895-8.339-.462-3.309-1.059-6.604-1.615-9.899-.109-.651-.244-1.329-.475-1.939-.855-2.291-1.37-4.651-1.832-7.051-.326-1.735-.787-3.43-1.194-5.152a4.103 4.103 0 00-.231-.692c-.04-.095-.163-.203-.258-.203-.081 0-.23.108-.257.19-.082.474-.163.962-.204 1.437-.624 7.186-2.429 14.129-4.641 20.963-2.727 8.447-5.631 16.827-8.44 25.248-2.022 6.061-3.705 12.217-4.791 18.522-.841 4.922-2.184 9.722-3.596 14.509a12.237 12.237 0 01-.542 1.545c-.421.963-1.154 1.397-1.982 1.221-.732-.163-1.18-.787-1.167-1.831.014-.854.109-1.695.19-2.549.367-3.322.72-6.658.543-10.007-.325-6.509-1.235-12.949-2.795-19.282-.828-3.362-1.778-6.698-2.673-10.047-1.086-4.068-1.86-8.177-1.887-12.407-.013-2.861 0-5.709.055-8.57.067-3.769.081-7.539-.272-11.295-.488-5.207-.597-10.427-.271-15.661.244-3.905.977-7.702 2.076-11.458.746-2.549 1.927-4.854 3.718-6.82a32.843 32.843 0 012.185-2.183 150.246 150.246 0 013.854-3.349 13.02 13.02 0 001.669-1.668c.597-.733.909-1.56.923-2.509.027-1.098-.15-2.183-.272-3.268-.23-1.912-1.194-3.268-2.985-4.04-.95-.407-1.9-.828-2.809-1.329-4.22-2.292-8.359-4.719-12.308-7.431-.597-.407-1.249-.773-1.805-1.234-3.867-3.159-7.884-6.102-11.846-9.125-.72-.556-1.493-1.058-2.144-1.695-2.24-2.156-4.777-3.96-7.288-5.763-7.11-5.112-13.814-10.766-20.707-16.163a2.59 2.59 0 01-.42-.353c-1.548-1.572-3.353-2.82-5.063-4.176-3.148-2.481-6.486-4.719-9.444-7.458-1.913-1.789-3.827-3.566-5.632-5.45-2.55-2.685-5.048-5.424-7.599-8.123-2.171-2.305-4.37-4.583-6.256-7.118-1.37-1.844-3.066-3.241-4.898-4.57-2.864-2.061-5.645-4.23-8.468-6.346-.394-.298-.76-.61-1.113-.949-1.655-1.614-3.297-3.227-4.953-4.841a4.543 4.543 0 00-.855-.664c-.176-.109-.407.013-.407.203-.027.475-.013.963.027 1.451.34 4.638.123 9.234-.827 13.79-1.113 5.356-.611 10.644.597 15.905.8 3.499 1.614 6.984 2.415 10.482.8 3.498 1.506 7.01 2.714 10.4.597 1.695 1.506 3.173 2.578 4.583a4.577 4.577 0 002.022 1.519 31.59 31.59 0 002.416.813c1.045.299 2.117.543 3.175.841 4.899 1.37 9.513 3.336 13.53 6.563a165.8 165.8 0 005.224 3.986 21.819 21.819 0 015.116 5.411 361.336 361.336 0 014.695 7.173c1.94 3.023 3.474 6.278 5.197 9.424 1.547 2.833 3.094 5.654 4.438 8.583 2.754 6.047 5.047 12.257 6.025 18.875.678 4.596 2.144 8.976 3.731 13.315 2.47 6.739 5.428 13.275 8.102 19.932.977 2.428 2.144 4.773 3.216 7.146.325.719.705 1.424.773 2.224.054.651-.149 1.193-.773 1.519-.611.325-1.195.23-1.71-.163-.326-.258-.611-.597-.882-.922-1.601-1.993-3.203-3.987-4.777-5.98-3.365-4.257-6.948-8.285-11.276-11.607-2.402-1.857-4.723-3.823-7.084-5.749-.19-.149-.366-.325-.543-.488-2.32-2.156-4.681-4.244-7.205-6.156-3.447-2.604-6.88-5.207-10.368-7.77-2.89-2.129-5.645-4.42-8.155-6.996-6.5-6.726-11.318-14.401-13.611-23.567-.746-3.01-1.438-6.034-1.968-9.085-.502-2.874-.936-5.749-1.112-8.678-.136-2.129-.136-4.244-.123-6.373.014-2.929-.244-5.844-1.044-8.664-.896-3.16-1.914-6.278-2.918-9.397a65.906 65.906 0 01-1.927-7.403c-.61-2.984-1.289-5.94-1.954-8.909-.706-3.2-1.601-6.373-1.927-9.654-.34-3.336-.42-6.672.258-9.98.298-1.424.584-2.861.8-4.299.76-4.895 1.059-9.79.014-14.685-.217-1.03-.488-1.993-1.126-2.847-.977-1.342-1.588-2.861-2.171-4.407a82.997 82.997 0 00-1.018-2.536c-1.004-2.345-2.008-4.691-3.026-7.037-.964-2.224-1.86-4.502-3.067-6.617a63.605 63.605 0 00-9.675-12.976C10.486 96.666 5.75 90.74 1.449 84.462c-.272-.393-.624-.746-.977-1.071-.448-.42-.964-.76-1.384-1.193-2.334-2.373-5.211-3.987-8.047-5.614-5.021-2.875-9.96-5.83-14.534-9.383-.814-.637-1.615-1.288-2.293-2.075-1.438-1.654-2.904-3.268-4.315-4.95-1.48-1.775-3.04-3.484-4.614-5.165-2.43-2.577-5.184-4.773-7.776-7.16-1.614-1.478-3.202-2.983-4.79-4.474-.312-.299-.597-.61-.719-1.044-.15-.516-.04-.977.353-1.33.339-.311.76-.379 1.194-.243.285.095.57.23.8.42 1.276 1.03 2.579 2.034 3.814 3.119 1.425 1.234 2.727 2.603 4.193 3.783 2.795 2.264 5.265 4.868 7.667 7.525 1.791 1.98 3.5 4.041 5.251 6.062 1.317 1.518 2.742 2.928 4.41 4.067 2.362 1.6 4.723 3.214 7.111 4.773.76.502 1.588.895 2.43 1.261 4.559 2.048 9.363 3.417 14.071 5.058.231.081.475.108.706.19 2.456.827 4.804.474 7.07-.638.38-.19.746-.406 1.126-.596 1.14-.583 2.266-1.193 3.42-1.736 1.099-.515 2.212-1.017 3.406-1.288a71.527 71.527 0 017.368-1.274 10.646 10.646 0 002.986-.773 61.64 61.64 0 002.17-.95c5.456-2.427 9.676-6.223 12.607-11.43 1.018-1.804 2.022-3.607 3.094-5.37.923-1.505 1.927-2.956 3.203-4.19a40.327 40.327 0 016.31-4.935c4.41-2.807 8.97-5.37 13.502-7.987 4.64-2.671 9.282-5.329 13.638-8.447a76.836 76.836 0 0011.005-9.56c2.945-3.091 5.536-6.454 8.006-9.925.557-.787 1.059-1.628 1.547-2.468.814-1.356 1.601-2.726 2.402-4.082.19-.312.394-.61.651-.881.408-.434.937-.556 1.507-.339.515.203.746.637.76 1.153 0 .474-.068.962-.177 1.437-.99 4.258-1.859 8.556-2.51 12.881-.339 2.224-.733 4.448-1.249 6.631-1.343 5.681-2.809 11.322-4.125 17.004-.733 3.159-1.805 6.183-3.148 9.112-.502 1.098-1.018 2.21-1.588 3.281-1.18 2.264-2.266 4.583-3.637 6.74-2.456 3.864-5.441 7.294-8.983 10.236-5.686 4.733-11.9 8.407-19.296 9.804-3.678.692-7.355.99-11.073.624-4.194-.42-8.264-1.424-12.308-2.563a44.89 44.89 0 00-3.542-.854c-2.144-.42-4.315-.787-6.473-1.153-2.239-.38-4.478-.42-6.704.068-1.126.244-2.252.542-3.392.705-1.954.285-3.772.95-5.51 1.858-1.288.678-2.605 1.329-3.907 1.98-2.674 1.342-5.442 1.667-8.319.786-1.167-.353-2.307-.76-3.474-1.112-.244-.081-.502-.339-.8-.014 2.89 2.387 5.373 5.099 7.45 8.218 1.71 2.576 3.663 5.003 5.753 7.308 2.578 2.834 5.197 5.627 7.749 8.488 3.487 3.933 6.5 8.217 8.752 12.963 2.348 4.936 4.41 10.007 6.582 15.038.855 1.966 1.913 3.783 3.46 5.301 1.045 1.017 2.022 2.102 3.067 3.119 1.791 1.736 3.528 3.539 5.455 5.112 2.782 2.265 5.713 4.353 8.576 6.495.53.393 1.1.759 1.683 1.085 2.999 1.654 6.174 2.861 9.417 3.919a4.629 4.629 0 001.615.257c3.243-.108 6.419-.637 9.499-1.627 3.908-1.247 7.49-3.119 10.924-5.37 2.917-1.911 5.224-4.339 7.097-7.227 1.072-1.654 1.818-3.444 2.13-5.396.448-2.767.787-5.533 1.194-8.299.665-4.42 1.832-8.678 4.017-12.61.557-1.004 1.099-2.034 1.696-3.01 1.588-2.59 3.149-5.194 4.804-7.743 2.226-3.43 5.048-6.386 7.694-9.478 1.575-1.844 3.189-3.661 5.008-5.288 3.962-3.512 7.884-7.051 11.643-10.766a29.94 29.94 0 005.523-7.431c1.112-2.102 1.886-4.34 2.822-6.522.258-.61.543-1.22.814-1.83.353-.76.964-1.248 1.683-1.6.882-.435 1.778.162 1.723 1.165-.013.42-.149.841-.271 1.234a83.35 83.35 0 01-1.072 3.106c-2.7 7.43-5.387 14.847-7.803 22.373-2.524 7.878-5.346 15.634-8.535 23.268a54.396 54.396 0 01-7.328 12.556c-2.253 2.902-4.872 5.437-7.599 7.837-4.519 3.96-9.146 7.824-14.113 11.241-.95.651-1.913 1.315-2.795 2.048-3.121 2.63-6.799 4.474-9.88 7.159a1.483 1.483 0 01-.311.19c-2.972 1.83-6.107 3.281-9.486 4.19-.271.068-.61.054-.746.393.081.298.34.325.556.38 2.443.488 4.886 1.017 7.369 1.288 1.506.162 3.04.149 4.532.393 1.208.19 2.416.285 3.623.325 4.573.19 9.106-.352 13.638-.935a12.45 12.45 0 002.823-.692c1.642-.637 3.257-1.369 4.844-2.115a10.54 10.54 0 001.995-1.261c.909-.732 1.859-1.383 2.945-1.79 1.004-.38 1.764-1.03 2.388-1.898.665-.949 1.371-1.844 2.198-2.671 3.176-3.201 6.5-6.224 9.866-9.207 1.37-1.207 2.836-2.292 4.437-3.187a86.084 86.084 0 017.681-3.797c2.51-1.084 5.02-2.169 7.504-3.322 2.32-1.071 4.681-2.034 7.165-2.671 2.768-.718 5.468-1.681 8.128-2.725 1.588-.624 3.203-1.18 4.872-1.505 3.365-.651 6.554-1.844 9.729-3.065.855-.325 1.71-.651 2.592-.841 2.321-.515 4.655-.976 7.029-.271.76.231 1.575.163 2.348-.054.936-.258 1.886-.502 2.809-.786 2.443-.773 4.777-1.804 7.151-2.739 4.085-1.6 8.292-2.821 12.648-3.472 2.401-.366 4.83-.583 7.259-.718 3.406-.177 6.799-.448 10.191-.665 2.606-.176 5.225-.19 7.83-.474 1.439-.163 2.918-.109 4.37-.122.665-.014 1.343.054 1.967.312 1.032.42 1.208 1.627.353 2.359-.38.325-.855.461-1.33.556-1.614.325-3.216.678-4.83.963-1.33.23-2.619.555-3.868 1.03-4.492 1.709-8.875 3.661-13.027 6.115-4.41 2.604-8.549 5.587-12.701 8.556-4.248 3.038-8.427 6.197-12.702 9.207-7.124 5.004-14.506 9.587-22.051 13.912-2.375 1.356-4.75 2.712-7.328 3.689-.963.366-1.913.8-2.863 1.206-2.293.99-4.614 1.885-7.056 2.455-1.48.352-2.945.745-4.438 1.071-2.076.461-4.139 1.017-6.269 1.166-8.061.569-16.04-.149-23.951-1.668a3.12 3.12 0 01-.692-.203c-.57-.258-1.167-.271-1.778-.312-2.13-.122-4.261.013-6.378.041a20.675 20.675 0 00-5.224.759c-2.755.759-5.51 1.491-8.291 2.169-1.235.299-2.511.434-3.773.665a.437.437 0 00-.285.203c-.095.204.055.339.217.407 1.914.8 3.732 1.776 5.496 2.861.462.285 1.004.448 1.52.583a73.95 73.95 0 0011.657 2.102c4.071.393 8.101 1.003 11.914 2.549 2.375.949 4.722 1.966 7.043 3.024 3.053 1.383 5.876 3.2 8.807 4.786 2.198 1.194 4.179 2.699 6.323 3.987 1.574.935 2.809 2.319 4.248 3.444 3.311 2.603 6.269 5.573 9.159 8.61a312.588 312.588 0 016.08 6.549c2.727 3.038 5.848 5.655 8.807 8.448 1.682 1.587 3.243 3.281 4.64 5.126.367.488.747.962.923 1.559.38 1.247-.529 2.251-1.777 1.952a3.679 3.679 0 01-.842-.325c-2.103-1.098-4.206-2.183-6.079-3.675-.95-.759-1.927-1.491-3.013-2.061-5.943-3.091-12.063-5.79-18.17-8.501-2.999-1.329-6.147-2.333-9.254-3.35-4.221-1.383-8.36-3.01-12.458-4.718-3.026-1.261-6.093-2.455-8.956-4.095-1.479-.841-3.012-1.614-4.301-2.726a23.274 23.274 0 01-4.899-5.844c-1.371-2.305-2.768-4.57-4.153-6.875-.909-1.518-1.94-2.969-3.284-4.108-4.383-3.729-9.105-6.902-14.682-8.624-1.412-.434-2.796-.746-4.275-.814-5.17-.23-10.313-.84-15.334-2.115-3.65-.922-7.246-2.074-10.815-3.295-.448-.149-.855-.474-1.452-.312.19.285.475.529.72.787z" fill="#E8EDEA"/></g><defs><clipPath id="clip0"><path fill="#fff" transform="translate(-48)" d="M0 0h299v502H0z"/></clipPath></defs></svg>