<svg width="227" height="276" fill="none" xmlns="http://www.w3.org/2000/svg"><path opacity=".2" d="M139.889 176.383c-2.536-1.388-5.065-2.782-7.61-4.154-3.231-1.74-6.578-3.189-10.085-4.284-1.291-.407-2.582-.82-3.835-1.342-2.201-.912-4.478-1.617-6.678-2.498a72.765 72.765 0 00-3.798-1.433c-3.117-1.05-6.242-2.093-9.367-3.143-.489-.16-.985-.314-1.436-.536-.993-.49-2.033-.82-3.072-1.18-1.245-.429-2.483-.882-3.736-1.288-1.528-.49-2.964-1.249-4.569-1.517-1.475-.253-2.919-.69-4.408-.851a15.327 15.327 0 01-2.476-.475c-1.582-.452-3.17-.874-4.798-1.15-.97-.168-1.94-.368-2.903-.59-.948-.222-1.819-.636-2.323-1.517-.367-.636-.902-1.035-1.498-1.418-1.33-.859-2.804-1.242-4.347-1.349-1.108-.077-2.185.153-3.247.437a69.074 69.074 0 01-9.574 1.87c-3.064.375-6.135.322-9.176-.276-.718-.138-1.414-.368-2.132-.506-3.132-.621-5.975-1.954-8.649-3.64-2.384-1.51-4.607-3.25-6.716-5.127a17.33 17.33 0 01-1.253-1.227 66.304 66.304 0 01-4.133-4.997c-2.33-3.111-4.478-6.353-6.61-9.595-1.207-1.839-2.345-3.717-3.56-5.556-1.772-2.69-3.59-5.357-5.379-8.04a70.757 70.757 0 01-1.81-2.889 7.95 7.95 0 01-.627-1.28c-.191-.521-.046-.943.329-1.165.374-.222.802-.153 1.2.222.236.23.435.491.64.751.597.744 1.178 1.495 1.789 2.231 1.688 2.031 3.53 3.916 5.356 5.824 1.398 1.456 2.857 2.844 4.477 4.054 3.469 2.599 7.152 4.836 10.995 6.837 1.887.981 3.72 2.046 5.455 3.272 2.369 1.663 4.737 3.319 7.106 4.982 3.377 2.376 7.044 4.169 10.964 5.457.52.168 1.039.344 1.574.498 1.268.352 2.544.667 3.805 1.05 2.315.697 4.607 1.448 6.876 2.284.214.076.497.337.68.038.115-.184-.153-.383-.283-.544-1.596-1.939-2.895-4.055-3.843-6.384a3.743 3.743 0 00-.71-1.104c-1.238-1.356-2.254-2.889-3.293-4.391-1.192-1.717-2.216-3.534-3.4-5.266a19.764 19.764 0 00-3.439-3.824c-1.062-.92-2.292-1.556-3.56-2.146-1.765-.828-3.606-1.441-5.486-1.893a33.597 33.597 0 01-3.262-.935c-1.215-.414-2.377-.966-3.584-1.372-2.002-.674-3.782-1.716-5.493-2.935-2.277-1.617-4.363-3.456-6.395-5.349-2.018-1.886-3.5-4.131-4.317-6.791-.963-3.127-1.803-6.277-2.079-9.55a42.524 42.524 0 00-.42-3.272c-.435-2.644-1.008-5.257-1.589-7.87-.283-1.288-.588-2.576-.863-3.87a3.847 3.847 0 01-.16-1.12c0-.437.305-.782.695-.889.343-.092.687.038.932.422.198.306.351.644.504.973.97 2.054 1.956 4.1 2.896 6.17 1.153 2.529 2.743 4.759 4.607 6.797.863.943 1.757 1.87 2.46 2.951 1.26 1.947 2.254 4.024 3.033 6.216.84 2.352 1.422 4.782 2.002 7.204a14.262 14.262 0 001.085 2.989c.688 1.387 1.52 2.674 2.407 3.939.573.812 1.26 1.525 1.994 2.184a5.62 5.62 0 001.666 1.05c1.092.429 2.23.705 3.361.989 1.131.283 2.277.529 3.416.82.565.146 1.108.36 1.642.613a227.66 227.66 0 003.668 1.732c.092.046.244.084.306.038.152-.107.06-.26 0-.39-.344-.69-.696-1.372-1.032-2.07-1.688-3.502-3.201-7.081-5.02-10.522-1.352-2.56-2.521-5.22-3.751-7.84a14.396 14.396 0 01-.466-1.12c-.329-.896-.55-1.847-.993-2.674-.62-1.158-1.277-2.307-2.132-3.326-2.17-2.576-4.325-5.166-6.487-7.756-.871-1.043-1.773-2.07-2.414-3.273-1.093-2.039-2.453-3.916-3.607-5.909a35.613 35.613 0 01-2.147-4.33c-1.192-2.92-2.254-5.894-3.27-8.875-.756-2.223-1.436-4.468-1.918-6.775-.87-4.177-1.245-8.415-1.329-12.676-.115-5.763.092-11.52.39-17.267.221-4.36.817-8.691 1.344-13.021.306-2.552.68-5.089 1.238-7.595.145-.644.36-1.265.573-1.893.13-.383.344-.736.62-1.035.55-.598 1.344-.521 1.749.176.145.253.237.537.298.82.122.537.214 1.081.305 1.625.405 2.391.871 4.767 1.613 7.074.68 2.13 1.398 4.246 2.116 6.369 1.497 4.445 2.995 8.898 4.607 13.305 1.559 4.276 3.4 8.43 5.287 12.569.772 1.7 1.544 3.41 2.231 5.142 1.544 3.87 2.606 7.863 2.835 12.056.153 2.828.13 5.64-.382 8.438-.42 2.306-.78 4.629-1.085 6.958-.558 4.27-.604 8.561-.214 12.845.13 1.395.267 2.79.764 4.1.58 1.541 1.146 3.097 1.872 4.576 1.757 3.548 3.507 7.104 5.272 10.645.848 1.709 1.59 3.464 2.346 5.219a92.359 92.359 0 002.1 4.599c.895 1.808 1.865 3.571 2.812 5.357.191.352.39.713.642 1.019.932 1.142 1.673 2.399 2.392 3.687.52.927 1.107 1.816 1.665 2.713.077.122.168.245.268.344.038.046.13.085.183.069.046-.015.115-.107.107-.16a8.247 8.247 0 00-.16-.867c-1.017-4.238-1.315-8.553-1.36-12.883-.061-5.357-.008-10.714-.016-16.071-.007-3.855-.221-7.702-.81-11.519-.458-2.981-.61-5.986-.725-8.99a8.368 8.368 0 01.007-.989c.054-.636.39-1.026.902-1.08.45-.046.817.23 1.016.828.16.49.267.988.374 1.494.428 1.97.864 3.947 1.605 5.832a61.91 61.91 0 005.28 10.5c1.115 1.77 2.3 3.487 3.445 5.235 1.398 2.115 2.62 4.33 3.446 6.736a194.396 194.396 0 011.605 4.913c.687 2.169 1.398 4.33 2.315 6.415a60.167 60.167 0 013.147 8.913c.604 2.284.917 4.598 1.01 6.951.06 1.602-.177 3.15-.818 4.614a18.823 18.823 0 01-.833 1.67 82.934 82.934 0 01-1.559 2.652 7.12 7.12 0 00-.634 1.28 2.353 2.353 0 00-.046 1.617c.199.636.497 1.219.78 1.816.496 1.05 1.306 1.641 2.475 1.74.619.054 1.238.115 1.849.222 2.842.506 5.67 1.096 8.443 1.893.42.123.855.207 1.268.361 2.804 1.065 5.662 1.977 8.504 2.95.52.177 1.054.322 1.55.56 1.697.805 3.477 1.349 5.257 1.9 5.036 1.564 9.933 3.511 14.892 5.281.107.038.206.069.305.123 1.177.605 2.445.965 3.683 1.417 2.269.82 4.6 1.457 6.808 2.461 1.428.651 2.865 1.302 4.248 2.038 1.971 1.05 3.919 2.138 5.883 3.196 1.673.904 3.369 1.786 4.928 2.874 1.139.789 2.369 1.272 3.668 1.678 2.024.637 4.026 1.334 6.035 2.016.276.092.551.199.81.33 1.253.605 2.499 1.218 3.752 1.816.199.092.405.169.619.222.122.031.229-.084.198-.191a6.102 6.102 0 00-.29-.828c-1.077-2.59-1.834-5.265-2.162-8.055-.39-3.28-1.689-6.208-3.385-8.99-1.123-1.847-2.254-3.686-3.385-5.533-1.123-1.847-2.2-3.725-3.537-5.434-.665-.851-1.467-1.533-2.346-2.123a2.777 2.777 0 00-1.436-.483 17.105 17.105 0 00-1.536 0c-.657.031-1.314.1-1.971.131-3.056.153-6.067-.085-8.97-1.165-1.238-.46-2.491-.866-3.736-1.28a13.113 13.113 0 01-3.95-2.115 230.41 230.41 0 01-4.05-3.204c-1.688-1.357-3.178-2.928-4.76-4.399-1.421-1.326-2.85-2.644-4.172-4.062-2.727-2.928-5.218-6.047-7.044-9.649-1.268-2.506-2.934-4.729-4.676-6.905-2.697-3.38-5.631-6.561-8.435-9.856-1.016-1.203-2.132-2.322-3.201-3.48-.321-.352-.673-.682-.864-1.126-.16-.36-.145-.713.145-1.019.283-.299.634-.368 1.009-.23.237.084.466.222.68.36 1.291.835 2.582 1.663 3.866 2.506 2.727 1.793 5.547 3.41 8.649 4.483 1.727.598 3.423 1.28 5.134 1.932.138.053.268.115.405.176 1.735.789 3.484 1.533 5.287 2.138a488.86 488.86 0 007.396 2.46c2.056.667 4.065 1.441 5.983 2.445 4.997 2.606 9.207 6.078 12.263 10.883a76.967 76.967 0 012.857 4.821c.833 1.548 1.635 3.111 2.3 4.751.482 1.196.894 2.407 1.291 3.625.551 1.679 1.261 3.296 2.254 4.752 1.116 1.632 2.293 3.227 3.462 4.821a40.343 40.343 0 012.513 3.87c.917 1.586 1.872 3.15 2.82 4.721 1.016 1.694 2.131 3.334 2.941 5.15.833 1.847 1.513 3.74 1.757 5.764.107.873.222 1.747.367 2.613.504 2.943 1.269 5.802 2.804 8.407.321.544.657 1.05 1.185 1.418.817.575 1.451 1.334 2.078 2.1.351.422.703.843 1.069 1.257 1.017 1.15 2.04 2.299 3.072 3.449.978 1.088 1.925 2.215 3.01 3.203a38.083 38.083 0 008 5.572c4.065 2.115 7.9 4.606 11.552 7.373.229.176.497.306.757.429.328.153.687.253 1.016.414 1.788.904 3.736 1.287 5.661 1.671 3.408.682 6.8 1.425 10.086 2.582.588.207 1.169.43 1.704.751 1.13.675 2.284 1.319 3.4 2.008a70.107 70.107 0 003.621 2.07c1.872 1.011 3.866 1.739 5.807 2.605 1.199.537 2.391 1.096 3.591 1.641.237.107.458.237.604.459.183.269.206.552.053.828a.683.683 0 01-.634.368c-.183 0-.367-.023-.535-.084-.924-.338-1.857-.675-2.766-1.05-1.047-.437-2.055-.966-3.117-1.365-2.032-.758-3.935-1.778-5.815-2.835-1.398-.79-2.773-1.64-4.156-2.468-1.039-.621-2.124-1.15-3.293-1.479-1.65-.468-3.308-.935-4.966-1.372-.527-.138-1.078-.207-1.628-.261-2.987-.298-5.99-.161-8.985-.199-.145 0-.29.023-.435.023-1.559 0-2.827.652-3.912 1.725-.184.176-.352.375-.527.559-.535.552-1.063 1.111-1.613 1.648-.527.506-1.069 1.004-1.696 1.387a41.12 41.12 0 01-3.958 2.138 6.536 6.536 0 00-1.558 1.012c-.359.314-.703.636-1.055.958-2.651 2.437-4.324 5.418-5.004 8.959-.237 1.226-.459 2.453-.741 3.663-.237 1.035-.527 2.062-1.024 3.012a24.642 24.642 0 01-2.651 4.039c-1.979 2.453-4.088 4.798-6.174 7.158-2.132 2.415-4.278 4.829-6.166 7.45a46.916 46.916 0 00-4.446 7.572c-1.085 2.33-1.926 4.759-2.667 7.219-.168.56-.29 1.135-.413 1.709-.206.928-.389 1.87-.588 2.798a2.999 2.999 0 01-.199.628c-.152.33-.427.498-.794.483-.329-.015-.55-.222-.65-.513a4.093 4.093 0 01-.175-.859c-.252-2.629-.573-5.25-1.032-7.855a48.054 48.054 0 01-.558-4.032c-.32-3.502-.565-7.02-.901-10.522a29.06 29.06 0 01.053-5.817c.077-.728.161-1.456.275-2.184.245-1.518.413-3.058.78-4.553a26.714 26.714 0 013.163-7.587c2.338-3.802 5.18-7.097 9.123-9.312 1.963-1.104 4.003-1.977 6.196-2.483 2.468-.567 4.982-.774 7.511-.897a26.138 26.138 0 002.185-.191c1.306-.177 2.605-.376 3.904-.583 1.352-.207 2.636-.621 3.813-1.326.596-.36 1.184-.743 1.795-1.057 1.062-.537 1.964-1.265 2.781-2.116.604-.636 1.23-1.257 1.849-1.877 1.269-1.28 2.781-2.001 4.592-2.047.734-.015 1.46-.007 2.193-.023.153 0 .352.1.458-.145a22.75 22.75 0 01-5.822-3.273c-1.474-1.149-3.048-2.161-4.676-3.073-2.009-1.127-4.041-2.223-6.035-3.372-2.743-1.579-5.28-3.457-7.465-5.74-2.277-2.376-4.432-4.882-6.625-7.343-.863-.965-1.818-1.801-2.987-2.368-.787-.383-1.559-.812-2.346-1.195-1.352-.644-2.689-1.349-4.087-1.878-2.017-.766-4.088-1.395-6.136-2.069a8.631 8.631 0 00-1.168-.291c-2.025-.368-4.065-.453-6.121-.437-.328 0-.657.046-.97.161a20.815 20.815 0 00-5.104 2.751c-1.986 1.464-3.675 3.219-5.203 5.166-1.299 1.655-2.147 3.479-2.666 5.495-.291 1.149-.375 2.322-.184 3.494.275 1.663.612 3.319.902 4.982.466 2.652.619 5.319.122 7.986-.13.682-.237 1.372-.39 2.054-.405 1.785-.802 3.579-1.26 5.349-.619 2.384-1.651 4.629-2.567 6.905-.551 1.357-1.116 2.714-1.849 3.986-1.582 2.766-3.141 5.548-4.577 8.392a18.035 18.035 0 00-1.727 5.311c-.229 1.418-.244 2.851-.367 4.276-.03.399-.076.805-.114 1.204-.054.498-.313.896-.657 1.241-.42.414-1.047.246-1.207-.329-.069-.246-.077-.506-.077-.759-.008-.659 0-1.318.015-1.977.115-4.767.237-9.534.169-14.301-.069-4.99.061-9.979.412-14.953a32.74 32.74 0 011.773-8.591c.733-2.092 1.734-4.047 2.834-5.947 1.819-3.135 3.721-6.231 5.899-9.143.412-.56.84-1.119 1.199-1.71 1.276-2.099 3.018-3.862 4.264-5.993.038-.061.091-.115.137-.168 1.345-1.617 2.85-3.051 4.607-4.216.146-.092.344-.145.352-.367-.099-.154-.252-.123-.39-.108-1.49.184-2.98.353-4.447.675-.893.199-1.764.498-2.658.643-.726.123-1.429.299-2.132.506-2.644.774-5.127 1.947-7.595 3.143a7.083 7.083 0 00-1.474.942 41.536 41.536 0 00-2.354 2.146c-.336.33-.641.705-.894 1.104-.374.59-.794 1.142-1.337 1.586-.496.406-.81.928-.993 1.541a12.44 12.44 0 01-.741 1.954c-1.2 2.437-2.514 4.805-3.866 7.158a15.361 15.361 0 01-1.926 2.675 54.637 54.637 0 01-3.652 3.648c-1.222 1.104-2.445 2.207-3.644 3.341-1.123 1.058-2.285 2.062-3.576 2.905-1.444.943-2.796 2.008-4.11 3.112-.787.659-1.597 1.287-2.491 1.801-1.796 1.019-3.377 2.314-4.959 3.625-.42.352-.856.697-1.322.981-1.222.735-2.468 1.448-3.957 1.502-.482.015-.925.207-1.33.483-.481.329-.978.643-1.452.988-1.245.905-2.376 1.947-3.553 2.943-2.024 1.702-4.186 3.204-6.54 4.407a44.474 44.474 0 01-4.003 1.801c-1.903.751-3.79 1.556-5.685 2.338-1.451.597-2.941 1.103-4.37 1.778-.795.368-1.643.62-2.468.912-.382.13-.78.222-1.184.199-.673-.038-1.001-.697-.657-1.28.16-.26.397-.429.65-.575.855-.498 1.703-1.004 2.574-1.471.71-.391 1.39-.82 2.01-1.334 2.238-1.839 4.362-3.801 6.257-5.993 2.017-2.33 3.805-4.836 5.608-7.334 1.841-2.552 3.614-5.166 5.478-7.703 3.102-4.223 6.441-8.269 9.91-12.193 1.093-1.234 2.193-2.468 3.469-3.518.481-.398.932-.82 1.398-1.234 1.115-1.004 2.277-1.962 3.553-2.759.779-.483 1.535-.988 2.322-1.464 1.1-.659 2.17-1.371 3.355-1.87 4.484-1.87 9.168-2.989 13.974-3.632a1.67 1.67 0 01.435-.016c.375.039.719-.069 1.078-.168 1.238-.337 2.422-.828 3.629-1.25a12.226 12.226 0 002.827-1.433 201.992 201.992 0 014.309-2.828c.65-.414 1.353-.735 2.025-1.103.053-.031.115-.108.122-.169.015-.13-.099-.184-.206-.192a23.764 23.764 0 01-3.683-.582c-.313-.077-.657-.061-.978-.046a44.77 44.77 0 00-7.052 1.027c-2.399.552-4.806.973-7.281.828a115.218 115.218 0 01-4.592-.376c-2.002-.207-3.958-.705-5.937-1.05-1.482-.26-2.903-.743-4.37-1.065-1.078-.238-2.048-.789-3.08-1.157-2.383-.851-4.637-1.985-6.868-3.173a187.885 187.885 0 01-4.722-2.583c-2.14-1.211-4.416-2.115-6.64-3.15-1.26-.59-2.483-1.257-3.629-2.046-.305-.207-.611-.414-.825-.713-.458-.636-.13-1.387.642-1.456.183-.015.367 0 .542.031 1.406.229 2.82.444 4.164.935.688.253 1.383.482 2.11.597 3.972.629 7.984.997 11.987 1.38 1.964.192 3.95.153 5.922.146 2.674-.016 5.34.122 7.999.314 1.971.138 3.95.23 5.89.628 1.002.199 2.026.345 2.981.736a14.052 14.052 0 013.912 2.406c1.214 1.058 2.452 2.085 3.675 3.135.81.697 1.673 1.326 2.658 1.724 3.217 1.296 6.51 2.208 10.017 2.123.886-.023 1.735-.107 2.59-.352 2.995-.866 6.036-1.495 9.154-1.725 2.261-.168 4.53-.199 6.8-.191.282 0 .58.107.886-.1-.046-.168-.252-.253-.436-.352z" fill="#CBD7C9"/></svg>