<svg width="20" height="18" fill="none" xmlns="http://www.w3.org/2000/svg"><path d="M10 17.98a1.16 1.16 0 01-.773-.293 232.902 232.902 0 00-2.274-1.976l-.004-.003c-2.015-1.736-3.755-3.234-4.965-4.71C.63 9.348 0 7.783 0 6.074 0 4.414.564 2.88 1.587 1.76a5.352 5.352 0 014-1.76C6.742 0 7.8.369 8.73 1.096c.47.367.895.817 1.27 1.34.375-.523.8-.973 1.27-1.34C12.202.37 13.26 0 14.414 0c1.544 0 2.965.625 4 1.76C19.438 2.88 20 4.413 20 6.074c0 1.71-.63 3.274-1.983 4.924-1.211 1.476-2.95 2.974-4.965 4.71a229.89 229.89 0 00-2.279 1.98 1.167 1.167 0 01-.773.293zM5.587 1.185a4.2 4.2 0 00-3.14 1.378c-.822.902-1.276 2.15-1.276 3.512 0 1.437.53 2.723 1.715 4.168 1.145 1.398 2.85 2.865 4.823 4.565l.004.003c.69.594 1.471 1.267 2.285 1.987a275.02 275.02 0 012.294-1.99c1.973-1.7 3.677-3.167 4.823-4.565 1.185-1.445 1.714-2.73 1.714-4.168 0-1.363-.454-2.61-1.277-3.512a4.199 4.199 0 00-3.139-1.378 3.86 3.86 0 00-2.426.849c-.642.502-1.09 1.136-1.352 1.58a.732.732 0 01-.635.365.732.732 0 01-.635-.365c-.262-.444-.71-1.078-1.352-1.58a3.86 3.86 0 00-2.426-.85z" fill="#6A994E"/></svg>