<svg width="27" height="25" fill="none" xmlns="http://www.w3.org/2000/svg"><g opacity=".8"><path fill="#fff" d="M10 3.75h6.25V22.5H10z"/><path d="M25.978 19.13L16.607 1.902c-1.506-2.534-5.176-2.538-6.684 0L.552 19.13C-.988 21.72.876 25 3.892 25h18.744c3.015 0 4.881-3.277 3.342-5.87zm-12.713 2.76a1.557 1.557 0 01-1.555-1.554c0-.857.698-1.555 1.555-1.555s1.554.698 1.554 1.555-.697 1.554-1.554 1.554zm1.554-6.218c0 .857-.697 1.555-1.554 1.555a1.556 1.556 0 01-1.555-1.555V7.901c0-.857.698-1.555 1.555-1.555s1.554.698 1.554 1.555v7.772z" fill="red"/></g></svg>