<svg width="62" height="70" fill="none" xmlns="http://www.w3.org/2000/svg"><path d="M61.227 27.19a1.005 1.005 0 00-.01-.102c-.002-.007-.002-.015-.003-.022l-.003-.009c0-.005 0-.01-.002-.015a1.028 1.028 0 00-.03-.111l-.006-.017a1.004 1.004 0 00-.117-.235l-.005-.007a1.029 1.029 0 00-.082-.104l-.015-.016a1.016 1.016 0 00-.078-.076l-.022-.02a1.114 1.114 0 00-.104-.076c-.003-.002-.007-.003-.01-.006a1.055 1.055 0 00-.251-.115l-.005-.002h-.003l-.01-.004c-3.132-.96-6.636-1.41-9.868-1.266-3.708.164-7.04 1.094-9.636 2.69-1.993 1.224-3.63 2.98-4.612 4.944-1.035 2.071-1.266 4.208-.683 6.218-1.58 1.567-2.744 2.882-3.591 3.93V28.608c3.407-1.248 5.62-5.722 5.836-9.684.334-6.107-2.817-14.201-6.056-18.499l-.014-.016a1.11 1.11 0 00-.05-.06L31.769.32a.85.85 0 00-.062-.058l-.022-.02a1.095 1.095 0 00-.093-.067l-.014-.008a1.084 1.084 0 00-.086-.05l-.028-.012a1.075 1.075 0 00-.193-.07l-.033-.008a1.116 1.116 0 00-.087-.015l-.03-.005a1.23 1.23 0 00-.24 0l-.03.005c-.03.004-.06.01-.087.016l-.034.008a1.114 1.114 0 00-.192.069l-.029.013a.917.917 0 00-.086.05l-.014.007a1.229 1.229 0 00-.093.068l-.022.02a1.053 1.053 0 00-.062.057l-.027.029-.051.06c-.005.006-.01.01-.014.017-3.24 4.297-6.39 12.391-6.056 18.498.216 3.972 2.44 8.46 5.862 9.693v14.186c-.85-1.054-2.022-2.38-3.617-3.963.582-2.01.352-4.146-.683-6.218-.982-1.963-2.62-3.72-4.612-4.944-2.596-1.596-5.928-2.526-9.636-2.69-3.237-.143-6.746.308-9.881 1.27-.005.002-.01.005-.016.006a1.045 1.045 0 00-.228.105l-.025.015a1.07 1.07 0 00-.097.072l-.031.026a1.095 1.095 0 00-.068.066l-.023.024a1.007 1.007 0 00-.078.1l-.01.015a1.01 1.01 0 00-.112.227l-.007.018a.99.99 0 00-.03.111l-.002.015-.003.01c0 .006 0 .014-.002.02-.005.035-.01.07-.011.104l-.002.032a.99.99 0 00.027.256l.007.026c.009.034.02.068.032.101l.01.024c.015.04.033.077.054.114l.012.019c.018.03.037.06.058.088l.021.028c.054.068.116.13.186.183l.009.007c1.795 1.342 3.529 2.907 5.206 4.42 2.374 2.143 4.83 4.36 7.586 6.075a14.06 14.06 0 007.393 2.136c1.15 0 2.29-.151 3.386-.454 3.506 3.473 4.845 5.606 5.187 6.209v2.109h-14.69c-1.12 0-2.033.887-2.033 1.977v3.589c0 1.09.912 1.977 2.034 1.977h.973l3.212 11.596C19.816 69.055 21.084 70 22.525 70h16.952c1.44 0 2.708-.945 3.083-2.297l3.211-11.596h.973c1.122 0 2.034-.886 2.034-1.977v-3.589c0-1.09-.912-1.977-2.034-1.977H32.081V46.41c.382-.661 1.738-2.774 5.162-6.164 1.096.302 2.235.454 3.385.454 2.541 0 5.13-.728 7.393-2.137 2.757-1.715 5.212-3.932 7.587-6.075 1.676-1.513 3.41-3.078 5.205-4.42l.01-.007a1.053 1.053 0 00.264-.299l.012-.019a1.03 1.03 0 00.055-.114l.009-.024c.013-.033.023-.067.033-.101l.006-.026a.99.99 0 00.027-.256l-.002-.033zm-31.294-.898c-1.952-1.234-3.543-4.292-3.718-7.48-.24-4.413 1.503-9.97 3.718-14.097v21.577zM15.131 36.816c-2.595-1.615-4.98-3.767-7.285-5.848a215.736 215.736 0 00-1.838-1.646c6.451 1.865 12.116 4.943 16.902 9.188-2.596.36-5.436-.236-7.779-1.694zm9.353.28c-5.084-4.547-11.113-7.83-17.986-9.798 4.368-.59 9.488-.269 13.395 2.133 2.645 1.626 4.816 4.617 4.591 7.666zm7.584-32.381c2.215 4.128 3.959 9.684 3.718 14.098-.174 3.18-1.759 6.232-3.706 7.471V11.35a.978.978 0 00-.012-.152V4.715zm14.575 45.924v3.393h-18.03c-.589 0-1.066.464-1.066 1.038 0 .573.477 1.037 1.067 1.037H43.56l-3.062 11.056a1.055 1.055 0 01-1.021.761H22.525c-.478 0-.898-.313-1.022-.76L18.44 56.106h2.526c.59 0 1.068-.464 1.068-1.038 0-.573-.478-1.037-1.068-1.037h-5.61v-3.393h31.286zm7.512-19.67c-2.306 2.08-4.69 4.232-7.285 5.847-2.343 1.458-5.183 2.055-7.779 1.694a42.143 42.143 0 018.04-5.605c.516-.277.703-.908.419-1.41a1.083 1.083 0 00-1.45-.408 44.272 44.272 0 00-8.583 6.01c-.225-3.048 1.946-6.04 4.591-7.666 3.909-2.402 9.029-2.724 13.397-2.133-.735.21-1.461.434-2.173.673a1.03 1.03 0 00-.66 1.32c.153.43.566.699 1.009.699.115 0 .233-.018.348-.057.644-.217 1.3-.42 1.965-.611-.622.548-1.234 1.1-1.839 1.646z" fill="#6A994E"/></svg>