<svg width="10" height="11" fill="none" xmlns="http://www.w3.org/2000/svg"><path d="M7.055.729h-4.4C1.223.729.06 1.879.06 3.293v4.345c0 1.414 1.164 2.564 2.596 2.564h4.4c1.431 0 2.596-1.15 2.596-2.564V3.293c0-1.414-1.165-2.564-2.596-2.564zm-2.2 7.326c-1.446 0-2.623-1.161-2.623-2.59 0-1.428 1.177-2.59 2.623-2.59 1.446 0 2.623 1.162 2.623 2.59 0 1.429-1.177 2.59-2.623 2.59zm2.685-4.57a.771.771 0 01-.775-.765c0-.422.348-.765.775-.765.428 0 .776.343.776.765a.771.771 0 01-.776.766z" fill="#454F44"/><path d="M4.855 3.43c-1.136 0-2.06.913-2.06 2.035S3.718 7.5 4.854 7.5c1.136 0 2.06-.913 2.06-2.035S5.991 3.43 4.855 3.43zm2.685-.92a.212.212 0 00-.212.21c0 .116.095.21.213.21a.212.212 0 00.212-.21.212.212 0 00-.212-.21z" fill="#454F44"/></svg>