<svg width="13" height="8" fill="none" xmlns="http://www.w3.org/2000/svg"><path d="M12.931 7.225a.952.952 0 00-.044-.091c-.226-.439-.657-.976-1.293-1.614l-.013-.015-.007-.007-.007-.007h-.007a8.118 8.118 0 01-.548-.599c-.14-.195-.171-.391-.095-.591.054-.151.258-.47.61-.956l.44-.62c.78-1.12 1.119-1.836 1.015-2.147l-.04-.073c-.028-.044-.098-.084-.21-.12a.988.988 0 00-.434-.019L10.35.381a.237.237 0 00-.135.003l-.088.023-.034.018-.027.022a.316.316 0 00-.075.076.511.511 0 00-.067.128c-.212.59-.454 1.137-.725 1.643-.167.301-.32.563-.46.785a3.75 3.75 0 01-.352.488c-.095.105-.18.189-.257.252-.077.064-.135.09-.176.08l-.115-.029a.476.476 0 01-.152-.178.851.851 0 01-.078-.285 3.371 3.371 0 01-.02-.646 14.1 14.1 0 00.006-.307c0-.185.004-.385.01-.602l.017-.515c.005-.126.007-.26.007-.401 0-.142-.008-.252-.024-.333a1.209 1.209 0 00-.07-.233.386.386 0 00-.14-.175.75.75 0 00-.226-.099 4.218 4.218 0 00-.914-.095c-.839-.01-1.378.05-1.617.175a.929.929 0 00-.258.22C4.3.502 4.287.56 4.345.57c.271.043.463.148.576.314l.04.087c.032.063.064.176.095.336.032.16.052.338.061.533.023.355.023.66 0 .912-.023.254-.044.45-.064.592a1.264 1.264 0 01-.173.503.12.12 0 01-.034.037.468.468 0 01-.182.037c-.064 0-.14-.035-.23-.103a1.676 1.676 0 01-.281-.28 3.757 3.757 0 01-.329-.501 9.012 9.012 0 01-.379-.759l-.108-.212a18.64 18.64 0 01-.278-.595c-.117-.26-.22-.512-.31-.756a.48.48 0 00-.163-.233L2.552.46a.462.462 0 00-.108-.062.701.701 0 00-.156-.048L.433.366c-.19 0-.318.046-.386.139L.02.549A.253.253 0 000 .665c0 .054.014.12.04.197.271.686.566 1.348.884 1.986.318.638.594 1.151.829 1.54.235.39.474.757.717 1.103.244.345.405.567.484.664.08.097.141.17.187.219l.169.175c.108.117.267.257.477.42.21.163.442.324.697.482.255.158.552.287.89.387.339.1.668.14.988.12h.779a.52.52 0 00.359-.16l.027-.037a.508.508 0 00.05-.135.791.791 0 00.024-.2c-.005-.21.01-.399.044-.566.034-.168.072-.295.115-.38a.931.931 0 01.26-.321.452.452 0 01.055-.026c.108-.038.236 0 .382.114.147.114.285.255.413.423.129.168.283.356.464.566.18.209.338.365.474.467l.135.088c.09.058.208.112.352.16.144.049.27.061.379.037l1.733-.03c.171 0 .304-.03.399-.09.095-.061.151-.129.17-.201a.61.61 0 00.003-.249.972.972 0 00-.048-.193z" fill="#454F44"/></svg>