<svg width="61" height="71" fill="none" xmlns="http://www.w3.org/2000/svg"><path d="M60.24 27.579a1.097 1.097 0 00-.012-.104c0-.008 0-.015-.002-.022l-.002-.01-.003-.015a1.096 1.096 0 00-.03-.112l-.005-.017a.997.997 0 00-.116-.239l-.004-.007a1.05 1.05 0 00-.08-.105l-.016-.017a.995.995 0 00-.2-.174l-.01-.006a1.059 1.059 0 00-.247-.117l-.005-.002h-.003l-.01-.004c-3.082-.973-6.53-1.43-9.71-1.284-3.647.166-6.925 1.11-9.48 2.728-1.96 1.242-3.571 3.023-4.537 5.015-1.018 2.1-1.245 4.268-.672 6.307-1.554 1.59-2.7 2.923-3.533 3.987V29.015c3.352-1.265 5.53-5.803 5.742-9.822.328-6.194-2.772-14.404-5.958-18.763l-.014-.016a1.107 1.107 0 00-.05-.061l-.027-.03c-.02-.02-.04-.04-.061-.058l-.022-.02a1.055 1.055 0 00-.09-.068l-.015-.009a1.073 1.073 0 00-.085-.05l-.027-.013a1.038 1.038 0 00-.19-.07l-.033-.008a1.067 1.067 0 00-.085-.016l-.03-.004a1.172 1.172 0 00-.236 0l-.03.005a1.008 1.008 0 00-.085.015l-.034.009a1.071 1.071 0 00-.189.07l-.027.013a.917.917 0 00-.086.05l-.013.008a1.074 1.074 0 00-.092.069l-.021.02a1.076 1.076 0 00-.061.058l-.027.029-.05.06-.014.018C26.466 4.79 23.366 13 23.694 19.193c.214 4.029 2.401 8.58 5.768 9.832v14.388c-.836-1.069-1.989-2.413-3.559-4.019.574-2.038.347-4.206-.672-6.307-.965-1.991-2.577-3.772-4.537-5.015-2.554-1.618-5.832-2.561-9.48-2.728-3.185-.145-6.637.312-9.722 1.288l-.015.006a1.048 1.048 0 00-.225.107l-.025.015a1.065 1.065 0 00-.095.072l-.03.027a1.073 1.073 0 00-.067.067l-.023.025a1.022 1.022 0 00-.077.1l-.01.016a.83.83 0 00-.054.097l-.015.03a1.162 1.162 0 00-.041.103l-.007.02a1.026 1.026 0 00-.03.112c0 .005 0 .01-.002.015l-.002.01-.002.02a.764.764 0 00-.011.105l-.002.033c-.002.089.007.175.026.26l.007.025c.009.035.02.07.032.103l.009.025c.016.04.033.078.054.115l.011.02a1.07 1.07 0 00.261.302l.01.008c1.765 1.361 3.471 2.948 5.12 4.483 2.337 2.174 4.753 4.422 7.465 6.162 2.226 1.429 4.773 2.167 7.274 2.167a12.18 12.18 0 003.33-.46c3.45 3.521 4.767 5.685 5.104 6.296v2.14H15.01c-1.103 0-2 .9-2 2.005v3.64c0 1.106.897 2.006 2 2.006h.958l3.16 11.761A3.148 3.148 0 0022.16 71h16.678a3.148 3.148 0 003.034-2.33l3.16-11.761h.957c1.103 0 2-.9 2-2.006v-3.64a2.006 2.006 0 00-2-2.005H31.563v-2.184c.376-.67 1.71-2.814 5.078-6.252 1.079.306 2.2.46 3.331.46 2.5 0 5.047-.738 7.274-2.167 2.712-1.74 5.128-3.988 7.464-6.162 1.65-1.535 3.355-3.122 5.122-4.483l.009-.007a1.054 1.054 0 00.26-.303l.012-.02c.02-.037.038-.076.054-.115l.009-.024a1.07 1.07 0 00.032-.104l.007-.025c.019-.084.028-.171.026-.26l-.002-.033zm-30.79-.911c-1.921-1.252-3.487-4.354-3.658-7.587-.237-4.476 1.479-10.112 3.658-14.299v21.886zM14.886 37.342c-2.553-1.638-4.899-3.82-7.167-5.932a213.998 213.998 0 00-1.809-1.67c6.348 1.892 11.92 5.015 16.63 9.32-2.554.366-5.349-.239-7.654-1.718zm9.203.285c-5.003-4.613-10.934-7.944-17.696-9.94 4.297-.598 9.334-.272 13.179 2.165 2.602 1.648 4.738 4.683 4.517 7.775zM31.55 4.782c2.18 4.187 3.895 9.823 3.658 14.3-.17 3.225-1.73 6.321-3.645 7.578V11.51a.99.99 0 00-.013-.154V4.782zm14.34 46.58v3.442H28.152a1.051 1.051 0 000 2.105h14.705l-3.013 11.213a1.043 1.043 0 01-1.005.773H22.161c-.47 0-.884-.318-1.006-.772l-3.012-11.214h2.485c.58 0 1.05-.471 1.05-1.053a1.05 1.05 0 00-1.05-1.052H15.11v-3.441h30.78zm7.391-19.952c-2.268 2.111-4.614 4.294-7.167 5.932-2.305 1.48-5.1 2.084-7.654 1.718a41.465 41.465 0 017.91-5.685c.508-.281.692-.921.412-1.43a1.048 1.048 0 00-1.426-.414 43.564 43.564 0 00-8.445 6.097c-.221-3.093 1.915-6.127 4.517-7.776 3.846-2.437 8.884-2.764 13.181-2.164a48.28 48.28 0 00-2.138.683 1.053 1.053 0 00.686 1.99c.634-.22 1.28-.426 1.933-.62-.612.555-1.214 1.116-1.809 1.67z" fill="#696969"/></svg>