<svg width="47" height="65" fill="none" xmlns="http://www.w3.org/2000/svg"><path d="M45.548 64.051H2.54l.204-3.485c.399-6.805 5.766-11.998 11.909-11.998h4.675v.696h-4.302c-5.92 0-11.094 4.998-11.478 11.548l-.142 2.418h42.03l-.078-2.418c-.384-6.55-5.558-11.548-11.478-11.548h-5.758v-.696h6.093c6.143 0 11.51 5.193 11.91 11.998l.204 3.485h-.781z" fill="#696969"/><path d="M23.756 56.404a6.134 6.134 0 01-5.894-7.836h1.781v.696h-1.297a5.501 5.501 0 005.41 6.509 5.501 5.501 0 005.41-6.51h-1.297v-.695h1.781a6.133 6.133 0 01-5.894 7.836z" fill="#696969"/><path d="M20.147 46.063v3.898a3.666 3.666 0 003.67 3.662c2.027 0 3.67-1.64 3.67-3.662v-3.817c.213-.065.424-.136.632-.212v4.055a4.332 4.332 0 01-4.334 4.331 4.332 4.332 0 01-4.334-4.33v-4.175c.23.09.462.173.696.25z" fill="#696969"/><path fill-rule="evenodd" clip-rule="evenodd" d="M38.489 22.3l-.225 9.763c-.2 8.654-6.609 15.494-14.32 15.494-7.712 0-14.121-6.84-14.32-15.494L9.397 22.3c-.211-9.185 6.298-16.83 14.546-16.83 8.247 0 14.756 7.645 14.545 16.83zM23.912 6.48c-7.763 0-13.89 7.29-13.691 16.048l.211 9.308c.188 8.251 6.22 14.773 13.48 14.773 7.259 0 13.292-6.522 13.48-14.773l.211-9.308c.2-8.758-5.928-16.047-13.691-16.047z" fill="#696969"/><path d="M22.425 41.87h3.037a.253.253 0 110 .505h-3.037a.253.253 0 110-.506zm-2.655-3.025l.352-.493a7.9 7.9 0 003.923 1.023c1.46 0 2.82-.384 3.96-1.045l.37.509a8.597 8.597 0 01-4.308 1.134 8.598 8.598 0 01-4.297-1.128zM9.58 23.855s-2.992-.926-2.886 2.146c0 0 .445 4.455.639 4.866 0 0 1.175 2.594 3.114 2.709 1.895.112 0 0 0 0l.023.836s-3.408-.437-4.066-4.36l-.52-3.564s-.403-4.717 3.51-3.517c3.812 1.168 0 0 0 0l.186.884z" fill="#696969"/><path d="M8.594 30.044s-.168.126-.312.126-.309-.126-.309-.126l-.309-3.108s.426-1.53 2.234-.722l.043.889s-1.586-.562-1.553.138c.031.673.206 2.803.206 2.803zm29.656-6.181s3.005-.925 2.9 2.145c0 0-.448 4.452-.642 4.862 0 0-1.18 2.592-3.128 2.707-1.903.112 0 0 0 0l-.023.836s3.423-.437 4.084-4.357l.522-3.562s.405-4.713-3.525-3.515c-3.83 1.168 0 0 0 0l-.188.884z" fill="#696969"/><path d="M39.245 30.047s.168.126.313.126c.144 0 .31-.126.31-.126l.31-3.106s-.428-1.53-2.243-.72l-.043.887s1.593-.561 1.56.138c-.032.673-.207 2.801-.207 2.801z" fill="#696969"/><path fill-rule="evenodd" clip-rule="evenodd" d="M25.115 29.798h.221c.458.62.644 1.575.886 2.401.075.256.002.704-.063.885-.24.663-.993.65-1.614.948-.166.08-.29.217-.506.253-.14-.124-.31-.148-.38-.348-.17-.235.05-.382.222-.474.312-.167 1.277-.332 1.392-.632.143-.162.048-.65 0-.821-.123-.44-.181-.805-.348-1.201-.11-.263-.305-.54-.19-.853.096-.041.302-.088.38-.158z" fill="#696969"/><path d="M15.908 25.338h2.278c.314 0 .57.305.57.682 0 .377-.256.683-.57.683h-2.278c-.314 0-.57-.306-.57-.683 0-.377.256-.682.57-.682zm13.922-.152h2.277c.315 0 .57.306.57.683 0 .377-.255.683-.57.683H29.83c-.315 0-.57-.306-.57-.683 0-.377.255-.683.57-.683z" fill="#696969"/><path fill-rule="evenodd" clip-rule="evenodd" d="M36.598 23.29v4.676c0 1.142-1.116 2.926-2.935 3.028-.267-.013-5.67.005-5.67.005-2.429 0-2.91-2.907-2.91-2.907v-3.16h-2.278v3.16S22.323 31 19.895 31c0 0-5.403-.018-5.67-.005-1.819-.102-2.935-1.886-2.935-3.028V23.29H9.265v-1.264h11.768s1.772.286 1.772 1.517h2.278c0-1.23 1.771-1.517 1.771-1.517h11.768v1.264h-2.024zm-15.058.631c0-.45-.506-.505-.506-.505h-8.479v4.423c0 1.379 1.899 1.896 1.899 1.896h5.188c1.785 0 1.898-1.896 1.898-1.896v-3.918zm13.792-.505h-8.478s-.506.055-.506.505v3.918s.113 1.896 1.898 1.896h5.188s1.898-.517 1.898-1.896v-4.423zm-1.771 7.583c.034 0 .068-.003.102-.005.029.001 0 .003-.102.005zm-19.336-.005l.102.005c-.102-.002-.13-.004-.102-.005z" fill="#696969"/><path d="M10.18 23.14s-.566-6.02 3.136-9.203c0 0 8.8 8.64 20.752 0 0 0 4.295 4.29 3.923 8.974 0 0 7.242-8.297 1.645-9.859 0 0-1.38.402-1.898-1.643-.518-2.044-1.483-8.647-14.552-8.847-13.069-.2-12.148 7.836-12.148 7.836.042.026-7.258 3.571-.857 12.742z" fill="#696969"/><path fill-rule="evenodd" clip-rule="evenodd" d="M38.053 23.605c-.152-5.196-3.986-9.1-3.986-9.1-11.952 8.27-20.689 0-20.689 0-2.798 2.14-3.163 9.037-3.163 9.037-7.219-9.203.42-13.246.38-13.271 0 0-.731-8.376 12.337-8.152 13.611.233 14.604 6.779 15.185 9.1.463 1.85 2.087 1.516 2.087 1.516 5.815 2.256-2.15 10.87-2.15 10.87zm1.392-10.175s-1.548.404-2.151-2.022c-.509-2.046-1.04-8.204-14.109-8.405-13.069-.2-11.768 7.71-11.768 7.71.041.025-6.568 3.162-1.708 10.933 0 0-.16-5.095 3.543-8.279 0 0 8.514 8.983 20.942.063 0 0 3.938 3.745 4.239 8.342 0 0 5.807-7.291 1.012-8.341z" fill="#696969"/></svg>