<svg width="60" height="60" fill="none" xmlns="http://www.w3.org/2000/svg"><g clip-path="url(#clip0)" fill="#696969"><path d="M26 32H6a2 2 0 00-2 2v20a2 2 0 002 2h20a2 2 0 002-2V34a2 2 0 00-2-2zM6 54V34h20v20H6z"/><path d="M11 42a3 3 0 100-6 3 3 0 000 6zm0-4a1 1 0 110 2 1 1 0 010-2zm10 8a3 3 0 100 6 3 3 0 000-6zm0 4a1 1 0 110-2 1 1 0 010 2zm1.293-13.707l-14 14a1 1 0 101.414 1.414l14-14a1 1 0 00-1.414-1.414zM31 34a1 1 0 00-1 1v2a1 1 0 102 0v-2a1 1 0 00-1-1zm0 6a1 1 0 00-1 1v2a1 1 0 102 0v-2a1 1 0 00-1-1zm0 6a1 1 0 00-1 1v2a1 1 0 102 0v-2a1 1 0 00-1-1zm0 6a1 1 0 00-1 1v2a1 1 0 102 0v-2a1 1 0 00-1-1z"/><path d="M40.742.888a3.061 3.061 0 00-4.249 0l-18.375 18.37-.009.007-.005.008L9.376 28H3a3 3 0 00-3 3v26a3 3 0 003 3h54a3 3 0 003-3V31a3 3 0 00-3-3h-2.376l4.488-4.488a2.984 2.984 0 000-4.25L40.742.889zM58 31v26a1 1 0 01-1 1H3a1 1 0 01-1-1V31a1 1 0 011-1h27v1a1 1 0 102 0v-1h25a1 1 0 011 1zm-.3-8.907L51.8 28H28.254l-.247-.247a1 1 0 00-1.414 0 .948.948 0 00-.164.247H12.2l6.614-6.614.7.706a1 1 0 001.414-1.414l-.705-.706 17.68-17.68a1.007 1.007 0 011.411.005l18.394 18.385a.985.985 0 010 1.41H57.7z"/><path d="M23.766 23.506a1 1 0 10-1.414 1.415l1.414 1.413a1 1 0 101.414-1.413l-1.414-1.415zM36 35h5a1 1 0 100-2h-5a1 1 0 100 2zm8-1a1 1 0 001 1h10a1 1 0 100-2H45a1 1 0 00-1 1zm-8 9h5a1 1 0 100-2h-5a1 1 0 100 2zm19-2H45a1 1 0 100 2h10a1 1 0 100-2zm-19-2h11a1 1 0 100-2H36a1 1 0 100 2zm19-2h-4a1 1 0 100 2h4a1 1 0 100-2zm-1 9H37a2 2 0 00-2 2v6a2 2 0 002 2h17a2 2 0 002-2v-6a2 2 0 00-2-2zm-17 8v-6h17v6H37z"/></g><defs><clipPath id="clip0"><path fill="#fff" d="M0 0h60v60H0z"/></clipPath></defs></svg>