<svg width="61" height="61" fill="none" xmlns="http://www.w3.org/2000/svg"><g clip-path="url(#clip0)" fill="#696969"><path d="M57.949 26.211c-.986-.827-2.007-1.682-2.2-2.408-.21-.78.257-2.072.708-3.32.653-1.804 1.327-3.67.46-5.168-.88-1.516-2.852-1.868-4.753-2.205-1.291-.228-2.63-.464-3.18-1.018-.551-.553-.79-1.89-1.017-3.181-.338-1.906-.687-3.878-2.207-4.753-1.496-.867-3.364-.191-5.168.46-1.248.452-2.539.917-3.32.708-.725-.194-1.581-1.213-2.408-2.2C33.6 1.62 32.297.068 30.5.068c-1.796 0-3.098 1.552-4.359 3.054-.827.985-1.683 2.006-2.407 2.199-.782.208-2.073-.258-3.32-.708-1.806-.653-3.674-1.326-5.168-.46-1.517.88-1.87 2.852-2.206 4.758-.229 1.292-.464 2.63-1.017 3.18-.554.551-1.89.79-3.182 1.018-1.907.338-3.878.687-4.753 2.207-.867 1.496-.192 3.363.46 5.168.452 1.247.918 2.539.708 3.32-.195.725-1.214 1.58-2.2 2.407C1.552 27.472 0 28.774 0 30.57c0 1.797 1.553 3.099 3.053 4.359.986.827 2.006 1.683 2.2 2.408.209.78-.257 2.072-.708 3.32-.652 1.804-1.327 3.67-.46 5.168.88 1.517 2.851 1.869 4.758 2.205 1.291.229 2.63.465 3.18 1.018.552.553.79 1.89 1.018 3.181.338 1.907.687 3.879 2.207 4.754 1.495.866 3.363.19 5.167-.46 1.25-.452 2.543-.917 3.32-.709.726.195 1.581 1.214 2.408 2.201 1.26 1.5 2.563 3.053 4.36 3.053 1.795 0 3.098-1.552 4.358-3.053.827-.986 1.682-2.006 2.408-2.2.779-.21 2.07.257 3.32.708 1.804.652 3.671 1.325 5.168.46 1.517-.88 1.868-2.851 2.205-4.753.229-1.291.464-2.629 1.018-3.18.553-.551 1.89-.79 3.181-1.018 1.906-.337 3.879-.686 4.753-2.206.867-1.497.192-3.364-.46-5.168-.452-1.248-.918-2.54-.708-3.32.194-.725 1.214-1.58 2.2-2.408C59.449 33.67 61 32.367 61 30.57c0-1.796-1.55-3.1-3.051-4.36zm-1.3 7.169c-1.228 1.028-2.496 2.093-2.855 3.438-.371 1.395.203 2.989.762 4.53.471 1.306 1.006 2.786.607 3.468-.405.708-1.977.982-3.36 1.227-1.6.283-3.255.576-4.26 1.58-1.004 1.004-1.296 2.658-1.578 4.258-.245 1.384-.522 2.953-1.227 3.36-.681.394-2.162-.14-3.468-.607-1.54-.558-3.135-1.135-4.53-.76-1.341.357-2.406 1.626-3.439 2.853-.917 1.093-1.956 2.326-2.81 2.326-.851 0-1.892-1.238-2.808-2.326-1.029-1.227-2.094-2.495-3.439-2.854a3.698 3.698 0 00-.954-.118c-1.232.092-2.44.39-3.575.879-1.307.472-2.788 1.006-3.47.607-.708-.405-.982-1.976-1.226-3.36-.284-1.6-.575-3.255-1.58-4.259-1.004-1.004-2.657-1.297-4.257-1.579-1.385-.245-2.953-.522-3.361-1.227-.394-.682.14-2.162.612-3.467.558-1.542 1.134-3.135.76-4.53-.358-1.342-1.626-2.407-2.852-3.44-1.094-.917-2.326-1.956-2.326-2.809 0-.852 1.237-1.892 2.326-2.81 1.226-1.028 2.494-2.093 2.853-3.438.373-1.394-.202-2.988-.761-4.53-.471-1.306-1.012-2.785-.612-3.468.404-.708 1.976-.982 3.36-1.227 1.6-.283 3.255-.575 4.26-1.58 1.004-1.004 1.295-2.657 1.578-4.257.244-1.385.522-2.953 1.227-3.36.68-.395 2.162.14 3.468.611 1.542.557 3.134 1.135 4.53.76 1.34-.358 2.406-1.626 3.439-2.852.916-1.094 1.957-2.326 2.809-2.326.853 0 1.892 1.237 2.81 2.326 1.028 1.226 2.093 2.494 3.438 2.854 1.395.372 2.988-.203 4.53-.762 1.305-.471 2.785-1.011 3.468-.612.708.405.982 1.976 1.227 3.361.283 1.6.575 3.254 1.58 4.258 1.004 1.005 2.657 1.297 4.257 1.58 1.384.244 2.953.521 3.36 1.226.395.683-.14 2.162-.606 3.468-.558 1.542-1.133 3.135-.76 4.53.357 1.341 1.625 2.406 2.852 3.439 1.094.917 2.326 1.957 2.326 2.809 0 .853-1.232 1.892-2.325 2.81z"/><path d="M30.501 9.332c-11.73 0-21.237 9.509-21.237 21.238S18.772 51.806 30.5 51.806s21.24-9.507 21.24-21.237C51.726 18.846 42.225 9.346 30.5 9.333zm0 40.452c-10.612 0-19.215-8.602-19.215-19.214 0-10.612 8.603-19.215 19.215-19.215s19.215 8.603 19.215 19.215c-.012 10.607-8.608 19.203-19.215 19.214z"/><path d="M20.684 38.956l18.203-18.203 1.43 1.43-18.203 18.204-1.43-1.43zm15.885-6.364a4.045 4.045 0 100 8.09 4.045 4.045 0 000-8.09zm0 6.068a2.023 2.023 0 110-4.046 2.023 2.023 0 010 4.046zM24.433 28.547a4.045 4.045 0 100-8.09 4.045 4.045 0 000 8.09zm0-6.068a2.023 2.023 0 110 4.045 2.023 2.023 0 010-4.045z"/></g><defs><clipPath id="clip0"><path fill="#fff" d="M0 0h61v61H0z"/></clipPath></defs></svg>