<svg width="61" height="61" fill="none" xmlns="http://www.w3.org/2000/svg"><g clip-path="url(#clip0)" fill="#696969"><path d="M7.82 44.682c.103.1.225.178.36.227v15.078c0 .56.454 1.013 1.013 1.013h46.585c.559 0 1.012-.453 1.012-1.013V35.682c0-.559-.453-1.013-1.012-1.013h-5.072c1.027-1.338 2.033-2.954 2.033-4.05a4.05 4.05 0 00-7.088-2.677 4.051 4.051 0 00-7.09 2.677c0 1.096 1.007 2.712 2.034 4.05h-21.33l4.309-4.307 7.16-7.162L45.057 8.878a1.013 1.013 0 000-1.432L37.897.285a1.042 1.042 0 00-1.433 0L27.028 9.72c-3.308-2.589-7.25-4.207-9.183-2.275-1.268 1.269-1 3.409.064 5.664l-4.423 4.425c-2.256-1.065-4.396-1.333-5.665-.063-1.932 1.93-.313 5.873 2.276 9.18L.66 36.087a1.012 1.012 0 000 1.432l7.16 7.163zM40.588 30.62a2.026 2.026 0 014.05 0v.273a1.013 1.013 0 102.026 0v-.273a2.026 2.026 0 014.051 0 11.431 11.431 0 01-2.64 4.05h-4.848a11.438 11.438 0 01-2.64-4.05zm-3.038 6.076h17.216v22.28H37.549v-22.28zm-8.102 0h6.076v22.28h-6.076v-22.28zm-2.025 0v22.28H10.206V43.784h-.056l7.144-7.144v.055h10.128zm-4.564-8.483l-5.729-5.729 5.73-5.728 5.728 5.728-5.729 5.73zM37.18 2.432l5.729 5.73-12.89 12.89-5.728-5.725L37.18 2.433zM19.277 8.879c.243-.195.551-.288.861-.26 1.13 0 3.1.738 5.448 2.545l-3.444 3.443-.579.58c-2.446-3.175-2.934-5.66-2.286-6.308zm-.342 6.076a21.5 21.5 0 001.187 1.678l-3.12 3.12a21.68 21.68 0 00-1.677-1.187l3.61-3.611zm-9.682 3.95c.242-.195.55-.288.859-.26 1.13 0 3.101.737 5.449 2.544l-.58.58-3.443 3.443c-2.447-3.175-2.934-5.66-2.285-6.307zm6.444 5.011l5.73 5.73-12.89 12.89-5.724-5.73 12.884-12.89z"/><path d="M40.587 19.479a1.013 1.013 0 11-2.025 0 1.013 1.013 0 012.025 0zm6.451 1.597c.56 0 1.013-.453 1.013-1.012V19.05h1.013a1.013 1.013 0 000-2.026H48.05v-1.012a1.013 1.013 0 10-2.026 0v1.012h-1.012a1.013 1.013 0 000 2.026h1.012v1.013c0 .559.454 1.012 1.013 1.012zm11.778 8.531a1.013 1.013 0 11-2.025 0 1.013 1.013 0 012.026 0zm-23.791 2.406a1.013 1.013 0 11-2.025 0 1.013 1.013 0 012.025 0zM54.326 12.2V22h-2.268v-7.98h-1.96V12.2h4.228z"/></g><defs><clipPath id="clip0"><path fill="#fff" d="M0 0h61v61H0z"/></clipPath></defs></svg>