<svg width="23" height="23" fill="none" xmlns="http://www.w3.org/2000/svg"><path d="M11.5 0C5.149 0 0 5.149 0 11.5S5.149 23 11.5 23 23 17.851 23 11.5C22.993 5.152 17.848.007 11.5 0zm0 22.233C5.572 22.233.767 17.428.767 11.5.767 5.572 5.572.767 11.5.767c5.928 0 10.733 4.805 10.733 10.733-.006 5.925-4.808 10.727-10.733 10.733z" fill="url(#paint0_linear)"/><path d="M16.483 4.6H6.517A1.919 1.919 0 004.6 6.516v9.967A1.919 1.919 0 006.517 18.4h9.966a1.919 1.919 0 001.917-1.917V6.516A1.919 1.919 0 0016.483 4.6zm1.15 11.883a1.15 1.15 0 01-1.15 1.15H6.517a1.15 1.15 0 01-1.15-1.15V6.516c0-.635.515-1.15 1.15-1.15h9.966c.636 0 1.15.515 1.15 1.15v9.967z" fill="url(#paint1_linear)"/><path d="M11.5 7.667a3.833 3.833 0 100 7.667 3.833 3.833 0 000-7.667zm0 6.9a3.067 3.067 0 110-6.133 3.067 3.067 0 010 6.133z" fill="url(#paint2_linear)"/><path d="M15.717 6.134a1.15 1.15 0 100 2.3 1.15 1.15 0 000-2.3zm0 1.533a.383.383 0 110-.767.383.383 0 010 .767z" fill="url(#paint3_linear)"/><defs><linearGradient id="paint0_linear" x1="-.83" y1="23.181" x2="23.447" y2=".181" gradientUnits="userSpaceOnUse"><stop stop-color="#FFF200"/><stop offset="1" stop-color="#CD118C"/></linearGradient><linearGradient id="paint1_linear" x1="-.83" y1="23.181" x2="23.447" y2=".181" gradientUnits="userSpaceOnUse"><stop stop-color="#FFF200"/><stop offset="1" stop-color="#CD118C"/></linearGradient><linearGradient id="paint2_linear" x1="-.83" y1="23.182" x2="23.447" y2=".182" gradientUnits="userSpaceOnUse"><stop stop-color="#FFF200"/><stop offset="1" stop-color="#CD118C"/></linearGradient><linearGradient id="paint3_linear" x1="-.941" y1="23.065" x2="23.337" y2=".065" gradientUnits="userSpaceOnUse"><stop stop-color="#FFF200"/><stop offset="1" stop-color="#CD118C"/></linearGradient></defs></svg>