<svg width="193" height="48" fill="none" xmlns="http://www.w3.org/2000/svg"><path d="M9.137 23.944l-1.82-4.883-1.652 4.883h3.472zM0 30.11v-1.6h.436c.53 0 .927-.094 1.189-.284.261-.19.488-.55.68-1.083l3.91-11.154h2.943l4.187 11.154c.237.648.457 1.041.659 1.171.199.13.544.197 1.035.197h.419v1.599H8.196v-1.6h1.133c.457 0 .767-.038.927-.119.157-.077.237-.22.237-.428 0-.073-.01-.16-.034-.256a4.299 4.299 0 00-.147-.431l-.603-1.67H5.083l-.603 1.782c-.014.05-.039.12-.07.218-.07.196-.105.336-.105.42 0 .186.067.313.2.383.132.066.445.102.933.102h1.085v1.599H0zm18.912-4.946c0 1.193.199 2.084.593 2.673.394.59.993.884 1.799.884.732 0 1.314-.316 1.74-.947.425-.628.637-1.498.637-2.61 0-1.108-.212-1.978-.638-2.599-.425-.624-1.007-.936-1.74-.936-.812 0-1.411.29-1.805.873-.39.582-.586 1.47-.586 2.662zm4.77-6.5c0-.543-.08-.886-.241-1.037-.16-.151-.478-.228-.952-.228h-.879v-1.41h4.602v11.448c0 .54.08.888.24 1.038.161.151.478.225.956.225h.603v1.41h-4.33v-1.73c-.341.692-.784 1.204-1.335 1.53-.547.33-1.227.495-2.036.495-1.335 0-2.377-.463-3.123-1.393-.746-.926-1.12-2.227-1.12-3.907 0-1.677.374-2.978 1.12-3.911.746-.93 1.788-1.396 3.123-1.396.802 0 1.478.165 2.03.498.547.33.993.842 1.341 1.54v-3.171zm12.424 5.196c-.063-.92-.248-1.59-.558-2.014-.31-.424-.767-.638-1.366-.638-.614 0-1.113.225-1.5.673-.383.45-.637 1.109-.763 1.979h4.187zm.941 2.693h1.757c-.15 1.221-.634 2.182-1.454 2.883-.822.702-1.872 1.053-3.151 1.053-1.59 0-2.862-.484-3.807-1.452-.945-.972-1.419-2.266-1.419-3.89 0-1.6.478-2.894 1.437-3.876.955-.982 2.22-1.473 3.793-1.473 1.516 0 2.673.473 3.468 1.424.799.947 1.196 2.325 1.196 4.132h-7.049c.042 1.122.279 1.978.711 2.567.432.59 1.039.884 1.823.884.802 0 1.409-.172 1.824-.519.411-.347.7-.922.871-1.733zm2.974 3.557V28.7h.697c.478 0 .795-.074.952-.225.157-.15.233-.498.233-1.038v-4.595c0-.543-.076-.887-.233-1.034-.157-.148-.474-.221-.952-.221h-.697v-1.41h4.413v1.74c.544-.688 1.105-1.2 1.68-1.544.576-.34 1.162-.512 1.754-.512 1.137 0 1.953.28 2.45.842.5.561.747 1.501.747 2.816v3.918c0 .54.08.888.237 1.038.16.151.478.225.952.225h.61v1.41h-5.94V28.7h.418c.474 0 .791-.074.952-.225.16-.15.24-.498.24-1.038V23.52c0-.73-.122-1.252-.362-1.567-.24-.313-.638-.47-1.19-.47-.787 0-1.408.301-1.864.901-.457.603-.684 1.43-.684 2.483v2.571c0 .54.08.888.24 1.038.161.151.479.225.953.225h.418v1.41h-6.024zm13.739 0V28.7h.774c.474 0 .791-.074.952-.225.16-.15.24-.498.24-1.038v-4.595c0-.543-.08-.887-.24-1.034-.16-.148-.478-.221-.952-.221h-.774v-1.41h4.518v7.26c0 .533.08.877.24 1.031.16.155.481.232.966.232h.634v1.41H53.76zm1.506-12.732c0-.439.15-.807.446-1.105a1.478 1.478 0 011.098-.453c.443 0 .816.151 1.12.453.302.298.453.666.453 1.105 0 .438-.15.81-.454 1.119-.303.305-.676.46-1.119.46-.432 0-.795-.155-1.095-.46-.3-.309-.45-.68-.45-1.12zm7.509 9.379v-3.915c0-.536-.08-.88-.244-1.03-.164-.152-.488-.225-.97-.225h-.48v-1.41h4.204v6.58c0 .733.122 1.259.362 1.575.245.315.635.473 1.182.473.792 0 1.42-.302 1.883-.905.464-.603.694-1.434.694-2.49v-2.568c0-.536-.08-.88-.24-1.03-.161-.152-.486-.225-.977-.225h-.959v-1.41h4.686v7.26c0 .533.08.877.243 1.031.164.155.489.232.973.232h.54v1.41h-4.266v-1.75c-.537.68-1.099 1.192-1.68 1.543-.583.347-1.176.523-1.775.523-1.13 0-1.942-.281-2.437-.842-.492-.561-.739-1.505-.739-2.827zm22.363-4.883c.624-.712 1.21-1.224 1.754-1.54a3.366 3.366 0 011.715-.473c.446 0 .861.07 1.245.21.38.14.69.334.927.583.251.273.429.596.537.968.105.375.157 1.006.157 1.897v3.918c0 .54.077.888.234 1.038.156.151.474.225.951.225h.593v1.41h-5.71V28.7h.226c.485 0 .809-.077.973-.232.164-.154.244-.498.244-1.03v-3.919c0-.806-.105-1.347-.31-1.624-.21-.277-.58-.414-1.109-.414-.638 0-1.186.263-1.642.79-.457.526-.683 1.182-.683 1.967v3.2c0 .54.08.887.24 1.037.157.151.474.225.948.225h.255v1.41h-5.376V28.7h.234c.481 0 .802-.077.966-.232.163-.154.243-.498.243-1.03v-3.919c0-.806-.104-1.347-.317-1.624-.209-.277-.578-.414-1.112-.414-.638 0-1.185.263-1.635.79-.453.526-.68 1.182-.68 1.967v3.2c0 .54.08.887.24 1.037.161.151.482.225.96.225h.244v1.41h-5.815V28.7h.697c.478 0 .795-.074.952-.225.157-.15.233-.498.233-1.038v-4.595c0-.543-.076-.887-.233-1.034-.157-.148-.474-.221-.952-.221h-.697v-1.41h4.371v1.676c.537-.698 1.078-1.203 1.621-1.518a3.484 3.484 0 011.792-.474c.673 0 1.238.168 1.691.502.453.336.795.841 1.028 1.511zm67.708 8.236v-1.6h.816c.621 0 1.008-.073 1.158-.22.149-.148.223-.509.223-1.084v-8.317c0-.571-.074-.933-.223-1.08-.15-.147-.537-.22-1.158-.22h-.816v-1.6h7.531v1.6h-.984c-.627 0-1.018.073-1.171.224-.153.15-.23.508-.23 1.076v3.119h6.066v-3.119c0-.571-.073-.933-.223-1.08-.15-.147-.534-.22-1.151-.22h-.99v-1.6h7.53v1.6h-.815c-.628 0-1.018.073-1.172.224-.153.15-.23.508-.23 1.076v8.317c0 .568.077.93.23 1.08.154.15.544.225 1.172.225h.815v1.599h-7.53v-1.6h.99c.617 0 1.001-.073 1.151-.22.15-.148.223-.509.223-1.084v-3.494h-6.066v3.494c0 .568.077.93.23 1.08.153.15.544.225 1.171.225h.984v1.599h-7.531zm17.386 0v-1.6h.899c.621 0 1.008-.073 1.158-.22.149-.148.223-.509.223-1.084v-8.313c0-.575-.074-.937-.223-1.084-.15-.147-.537-.22-1.158-.22h-.899v-1.6h7.572v1.6h-.896c-.624 0-1.011.073-1.161.22-.15.147-.223.509-.223 1.084v8.313c0 .575.073.936.223 1.083.15.148.537.222 1.161.222h.896v1.599h-7.572zm13.704-12.564h-.275c-1.12 0-1.935.337-2.444 1.01-.509.677-.774 1.771-.795 3.283h-1.611v-5.85h13.22v5.85h-1.611c-.014-1.494-.275-2.581-.788-3.265-.509-.684-1.325-1.028-2.44-1.028h-.307v9.66c0 .568.077.93.23 1.08.154.15.544.225 1.168.225h1.196v1.599h-8.137v-1.6h1.217c.617 0 1.004-.073 1.154-.22.15-.148.223-.509.223-1.084v-9.66z" fill="#2B2A29"/><path fill-rule="evenodd" clip-rule="evenodd" d="M111.037 43.751c-1.377-.578-3.343-1.248-4.781-2.45-1.437-1.203-2.345-2.939-3.298-4.096-.953-1.156-1.952-1.735-2.542-2.785-.59-1.05-.772-2.573-.953-3.913-.182-1.34-.364-2.496-.348-3.79.015-1.294.227-2.725.348-4.065.12-1.34.15-2.588.499-3.608.348-1.02 1.014-1.811 1.573-2.77.56-.96 1.014-2.086 1.302-3.03.287-.943.408-1.705.696-2.435.622-1.584 1.917-2.875 3.117-4.034.771-.746 1.74-1.66 2.542-2.406.801-.745 1.437-1.324 2.45-1.613 1.014-.29 2.406-.29 3.768-.564 1.362-.274 2.693-.822 3.798-1.324 1.104-.502 1.982-.959 3.994-.852 2.012.106 5.159.776 6.915 1.141 1.755.366 2.118.427 3.041.99s2.406 1.629 3.571 2.8c1.165 1.173 2.012 2.452 2.98 3.304 4.857 4.276 5.125 6.302 6.401 13.747.227 1.324-.106 3.273-.424 5.19-.318 1.919-.62 3.806-.893 5.192-.272 1.385-.514 2.268-.999 3.09-.484.822-1.21 1.583-1.936 2.344-.726.761-1.453 1.523-2.376 2.269-.923.745-2.042 1.476-2.905 2.161-.862.685-1.468 1.325-2.103 1.827-1.404 1.11-3.275 1.701-5.023 1.949-1.18.167-2.603.228-3.737.517-1.135.29-1.982.807-3.253.746-1.271-.06-2.966-.7-4.449-1.127-1.482-.426-2.753-.639-3.782-.989s-1.816-.837-3.193-1.416zm6.101-36.853a.34.34 0 00.28.616.34.34 0 00-.28-.616zm13.557 3.716a1.886 1.886 0 011.089-.422c.799-.054 1.405.454 1.921 1.005.484-.728 1.167-1.338 1.732-1.997.307-.36.603-.728.882-1.11.152-.207.299-.419.441-.633.098-.148.191-.365.378-.414.444-.115.484.576.451.85-.04.326-.157.638-.328.917.155-.062.317-.085.444.066.144.171.099.42.013.606a1.812 1.812 0 01-.44.597c-.14.124-.301.217-.457.318.148-.01.302.005.402.084.182.145.151.42.041.598-.23.371-.717.574-1.151.663a.76.76 0 01.238.172c.29.382-.291.766-.562.92-.429.24-.925.4-1.42.319a1.443 1.443 0 01-.433-.143c-.226-.117.508.749 1.749.307.113-.04.368-.145.507-.243l.011-.008c.602.447 1.037.79 1.14.868.527.4 1.064.786 1.588 1.19.258.198.518.398.758.619.085.078.272.187.149.3-.078.072-.308.072-.408.076-.584.025-1.173-.227-1.68-.496a8.066 8.066 0 01-1.526-1.054c-.882.36-1.756.42-2.621.16-.812-.244-1.425-.777-1.933-1.444-.261-.343-.501-.7-.774-1.033a5.58 5.58 0 00-.443-.486c-.02-.019-.052-.043-.086-.07a.206.206 0 01-.047-.002s-.045-.008-.117-.017c-.032-.002-.066-.007-.115-.008-.049 0-.103-.003-.165 0a5.364 5.364 0 00-.914.098 8.407 8.407 0 00-.9.233c-.242.076-.402.134-.402.134l-.004.002a.15.15 0 01-.184-.071.153.153 0 01.061-.206l.109-.06c.069-.04.172-.085.296-.14.124-.051.271-.108.432-.157a7 7 0 01.51-.136 5.45 5.45 0 01.987-.135c.069-.003.134 0 .191 0l.115.008c.096-.25.348-.517.475-.625zm1.056.966c.346-.149.151-.701-.219-.605-.451.116-.207.788.219.605zm-13.752-2.783c-.176.08-.381-.28-.431-.547-.031-.16-.087-.588-.286-.496-.146.067-.263.357-.307.491-.103.326-.204.61-.18.932.023.323.22.545.432.679.358.225.665-.048.665-.048s.206.54.706.31c.5-.23.231-.74.231-.74s.406-.054.471-.474c.039-.249.001-.544-.226-.773-.226-.23-.504-.339-.817-.474-.13-.055-.425-.156-.569-.09-.2.092.084.415.185.543.167.214.302.606.126.687zm-2.302-.865c-.081-.177.277-.384.543-.435.16-.03.584-.087.493-.287-.066-.147-.354-.265-.487-.308-.325-.105-.607-.206-.927-.182-.321.023-.542.221-.675.434-.223.36.047.67.047.67s-.535.207-.307.71c.228.503.735.233.735.233s.054.408.472.474c.247.039.54 0 .768-.228.228-.227.337-.508.471-.823.054-.13.154-.426.088-.572-.091-.2-.411.085-.539.186-.213.169-.602.305-.682.128zm.86-2.317c.176-.08.381.28.432.547.03.16.086.587.285.496.146-.067.263-.357.306-.491.104-.326.205-.61.181-.932-.023-.323-.22-.545-.432-.679-.357-.224-.665.047-.665.047s-.206-.538-.706-.309c-.5.23-.23.74-.23.74s-.406.055-.473.474c-.038.249 0 .544.226.773.227.23.506.339.819.474.129.055.423.155.569.088.199-.091-.085-.413-.185-.54-.168-.215-.303-.607-.127-.688zm2.302.865c.081.177-.277.384-.544.435-.159.03-.583.086-.492.287.066.146.354.265.488.308.324.105.606.206.926.182.321-.024.542-.22.674-.434.224-.36-.047-.67-.047-.67s.536-.208.308-.71c-.228-.504-.735-.232-.735-.232s-.055-.409-.472-.475c-.247-.04-.54 0-.767.228-.228.227-.337.508-.471.823-.056.13-.155.426-.089.572.091.2.411-.085.538-.186.214-.169.603-.305.683-.128zm8.516 16.142c-.114.057-.074.23.052.234l-.001.084c-.046.036-.08.13-.092.175-.04.14-.095.313-.02.452-.173.458-.552.778-1.194 1.037-.578.233-1.164.444-1.639.623-.802-.471-1.589-.901-2.342-1.385-.843-.542-1.72-1.058-2.461-1.722-.946-.846-.445-1.248.285-1.923.666.41 1.349.506 2.115.352.424-.086.96-.052 1.335.143.973.507 1.876.478 2.775-.107.745.72 1.646.645 2.513.563.618-.058 1.094-.691 1.161-1.333.12-1.154-.607-1.849-1.991-1.869-.349-1.416-.913-1.843-2.368-1.886-.148-.005-.342-.19-.425-.342-.411-.748-1.045-1.16-1.868-1.21-.379-.022-.527-.18-.698-.478-.82-1.428-2.539-1.926-3.979-1.141-.345.187-.574.167-.9-.027-.776-.461-1.723-.355-2.414.206a2.194 2.194 0 00-.712 2.332c.051.173.096.35.195.709-.886-.313-1.416.169-2.068.476-.881.416-1.195 1.367-2.043 1.737-.115.05-.139.294-.225.436-.138.228-.323.43-.429.67-.126.284-.326.648-.24.881.09.24.561.567.733.502a2.128 2.128 0 011.418-.052c.139.04.318-.075.482-.104.133-.024.285-.07.405-.031.827.268.939.231 1.414-.564.955.82 2.006.966 3.148.425.099-.047.267.006.383.057.32.14.629.304.929.452l.56 1.745c-1.266-.314-2.833.208-3.558-1.495.265 1.19.816 1.684 2.073 1.787 1.981.163 3.415 1.402 4.941 2.46.39.271.356.679.007.97a9.664 9.664 0 01-1.287.9c-.863.51-1.747.983-2.526 1.417-.64-.328-1.234-.798-1.896-.932-.887-.18-1.83-.164-2.744-.12-1.21.06-2.413.277-3.623.335-.807.04-1.496-.293-1.896-1.061.307-.352.523-.36.874-.076.257.208.745.368 1.021.262.714-.273 1.368-.128 2.071-.043.399.047.906-.14 1.238-.391.428-.323.592-.969.27-1.37-.53-.662-1.156-1.466-1.894-1.684-.88-.259-1.405-.859-1.896-1.404-.98-1.087-2.956-1.002-3.613.334-.097.197-.105.443-.134.668-.019.152-.003.308-.003.44-.104.027-.131.044-.143.037-.671-.404-2.211.001-2.608.667-.309.52-.669 1.01-.969 1.535-.112.196-.224.502-.147.67.082.178.39.354.596.35.359-.007.719-.238 1.073-.224 1.172.046 2.341.153 3.509.259a.559.559 0 01.386.26c.525 1.073 1.513 1.319 2.55 1.476.415.063.835.09 1.387.148-.863.58-1.645.891-2.535.873-.562-.011-1.039-.198-1.468-.485a.315.315 0 00-.083-.31c-.076-.073-.393-.235-.499-.182l-.013.01-.051-.05c.093-.095-.019-.252-.139-.191-.141.07-.035.287.108.215.074.137.157.262.248.375.004.034-.003.061-.027.073-.061.031-.138-.094-.16-.189-.013-.056-.038-.207-.107-.172-.106.053-.167.406-.156.512.02.182.246.355.398.21.099.234.432.103.34-.137.375.32.844.497 1.383.569 1.036.137 1.99-.123 2.913-.584.89-.443 1.81-.759 2.836-.685 1.543.11 2.546.959 2.805 2.475.146.86.634 1.464 1.339 1.893 1.022.62 2.067 1.204 3.109 1.791.598.338.989.783.86 1.526-.114.666-.639.846-1.184.96-1.229.26-2.462.502-3.697.733a.743.743 0 01-.474-.076c-1.459-.852-3.05-.966-4.687-.92-.707.021-1.425-.03-2.124-.138-.704-.109-1.12-.504-1.377-1.131.625.327 1.214.441 1.648-.14.388.097.718.218 1.057.256.602.069 1.209.121 1.814.114.284-.004.592-.123.831-.28.056-.037-.123-.436-.193-.67-.03-.099-.027-.222-.087-.296-.342-.431-.62-1.05-1.067-1.225-.566-.223-1.144-.999-1.879-.191-.096-1.482-1.595-2.462-2.623-1.79-.526.343-.941.857-1.422 1.275-.153.133-.351.27-.542.293-.612.073-.905.441-1.088.988-.084.249-.311.45-.386.7-.093.31-.206.687-.11.964.122.353.484.416.845.204.109-.065.258-.076.391-.082.399-.018.798-.018 1.198-.03.447-.013.937-.329 1.292.24.274.438.588.85.891 1.282l-1.334.294c2.286-.184 4.38.732 6.584 1.014-.081.147-.158.212-.247.248-1.398.585-2.666 2.16-3.397 1.933-.884-.502-1.699-1.002-2.408-1.75-.619-.654-1.537-1.805-2.042-2.238-.505-.432-.397-.32-.604-.471l-.065.005c-.511.301-1.176.275-1.502-.287h.001c-.204-.353-.176-.752-.081-1.135-.06-.078.144.256-.17-.243-.314-.498-.696-2.222-1.089-3.395-.394-1.172-1.187-2.634-1.392-3.318-.205-.685-.093-.581-.072-.942-.306-.254-.407-.556-.319-.954a1.97 1.97 0 01.211-.534c.14-.244.279-.463.418-.677.096-.597.206-.747.125-1.597-.082-.85.893-2.866 1.286-4.263.393-1.396.723-2.118 1.331-3.47.608-1.353 1.362-2.68 2.33-4.08.969-1.4 1.045-2.406 2.421-3.273 1.377-.868 3.153-1.539 3.798-1.873.645-.334.448-.244.657-.37-.144-.47-.07-1.045.338-1.364-.015-.31.093-.688.611-.926.513-.236.868-.073 1.092.14.436-.087.853.138 1.128.468.791-.247 1.465-.395 2.741-.46 1.275-.064 3.298.076 5.038.32a58.99 58.99 0 014.645.853c1.21.274 2.084.593 2.905 1.187.822.594 1.468 1.213 2.209 1.979.313-.395.598-.792.875-1.212l-.001-.001c.131-.219.278-.463.635-.556.527-.136.913.2 1.042.701v.002c.101.397.062.806-.061 1.191.035.031.07.066.103.106h.001c.467.556.089 1.336-.34 1.788a.974.974 0 01.07.73c.345.453.462.626 1.02 1.33.558.706 1.619 1.919 2.224 2.985.605 1.065.969 2.253 1.271 3.227.302.974.545 1.735.757 2.664.211.928.393 2.025.393 3.501 0 1.477-.182 3.334-.681 4.81-.499 1.477-1.316 2.573-2.164 3.624-.847 1.05-1.724 2.055-2.436 3.03-.711.974-1.255 1.917-1.8 2.602-.545.685-1.09 1.112-1.816 1.583a36.39 36.39 0 01-2.512 1.462c-.877.472-1.724.898-3.116 1.218-1.392.32-3.427.532-5.114.532-2.373 0-7.983-.071-2.571-2.447.976-.428 2.01-.723 2.995-1.135 1.384-.579 2.008-1.73 2.161-3.168.127-1.178.792-1.8 1.976-1.817.649-.01 1.304-.013 1.944-.105 2.259-.322 3.888-1.394 4.314-3.825.01-.056.062-.105.102-.17.366.055.783.015 1.085.185.81.456 1.554.39 2.139.003.544.141.995.408 1.338.306.34-.101.697-.53.822-.893.18-.525-.037-1.024-.55-1.354-.182-.118-.409-.319-.432-.505-.204-1.608-.88-2.208-2.302-2.153-.495-.471-.89-.853-1.291-1.227-.219-.204-.498-.361-.664-.6-.711-1.025-1.904-1.432-2.976-.96a18.4 18.4 0 00-1.292.631c-.701.377-1.029 1.079-.947 1.91.019.185-.05.38-.074.543-.443-.211-.877-.586-1.08-.486-.874.43-1.904.55-2.631 1.27-.11.109-.126.309-.212.45-.082.133-.21.237-.3.366-.239.343-.472.69-.702 1.04-.085.13-.131.297-.238.402-.576.564-.434 1.312.345 1.474.427.088.969.092 1.335-.102.613-.326 1.231-.14 1.794-.108.886.05 1.696.108 2.32-.466l1.554.96c-.205.821-.765 1.404-1.637 1.731-.783.294-1.528.056-2.283-.094-.977-.194-1.955-.418-2.675.396-.833-.382-1.596-.723-2.352-1.08-.587-.276-1.201-.514-1.739-.868-.948-.622-.958-1.395-.044-2.073.689-.513 1.47-.91 2.127-1.458.501-.418.985-.937 1.27-1.515.313-.636.726-1.03 1.337-1.334.496-.246.986-.564 1.372-.957.204-.208.332-.437.392-.672a.23.23 0 00.105-.051c.11.259.476.075.336-.17.212-.035.21-.328.073-.457-.079-.075-.404-.242-.512-.187-.072.036.036.15.074.195.146.174.07.345-.041.203a1.519 1.519 0 00-.11-.428c.112-.091-.001-.274-.133-.207zm-.511.395c-.032-.063.096-.143.192-.165.058-.013.212-.04.176-.111-.054-.11-.414-.172-.522-.16-.186.02-.362.253-.214.41-.258.11-.075.479.168.338.036.213.327.212.455.074.074-.08.24-.407.186-.516-.036-.072-.149.036-.194.075-.076.064-.216.119-.247.055zm.283-.855c.063-.032.143.096.165.194.013.058.039.212.11.176.109-.055.171-.416.16-.524-.021-.188-.252-.365-.409-.216-.11-.26-.476-.075-.336.169-.212.036-.21.329-.073.458.079.074.404.241.513.186.071-.035-.036-.15-.074-.194-.065-.076-.119-.218-.056-.25zm.851.285c.031.064-.096.143-.193.166-.058.013-.211.039-.176.11.055.11.414.173.522.16.186-.02.363-.252.215-.41.257-.11.074-.479-.169-.338-.035-.213-.326-.211-.455-.074-.074.08-.24.407-.186.516.036.072.149-.036.195-.074.075-.065.215-.12.247-.056zm-21.057 6.517c-.031-.061.093-.14.188-.16.056-.014.206-.04.171-.11-.053-.106-.403-.167-.508-.155-.182.02-.354.246-.21.4-.25.107-.072.466.164.329.035.208.319.206.444.072.072-.077.233-.396.18-.503-.034-.07-.144.036-.188.073-.074.063-.211.116-.241.054zm.276-.833c.062-.031.139.094.16.189.013.056.038.207.108.172.106-.053.167-.406.155-.512-.02-.182-.245-.355-.398-.21-.106-.252-.463-.073-.326.165-.208.035-.206.32-.073.446.078.072.395.235.5.182.07-.035-.035-.146-.072-.19-.062-.074-.115-.212-.054-.242zm.829.277c.031.063-.094.14-.188.162-.056.013-.206.038-.171.108.052.107.403.168.508.156.182-.02.353-.247.209-.4.251-.107.073-.466-.164-.329-.035-.208-.318-.206-.443-.072-.072.077-.234.396-.181.503.035.07.145-.036.189-.073.073-.063.21-.116.241-.055zm25.945-1.29c-.179.09-.043.364.136.274.18-.09.043-.364-.136-.274zm.419.844c-.078.04-.176-.12-.203-.24-.017-.072-.049-.264-.137-.22-.065.033-.114.166-.131.227-.075.27-.155.553.139.724.165.096.3-.033.3-.033.136.322.59.093.416-.209 0 0 .183-.031.206-.222.041-.338-.232-.445-.492-.546-.059-.023-.193-.064-.258-.031-.089.044.045.186.092.242.079.094.146.268.068.308zm-1.054-.354c-.039-.078.12-.178.239-.205.072-.016.262-.048.218-.137-.032-.065-.164-.114-.225-.132-.268-.076-.55-.155-.719.14-.096.166.031.302.031.302-.318.137-.091.593.209.419 0 0 .031.183.22.206.337.042.443-.233.543-.494.023-.06.063-.195.031-.26-.044-.09-.184.045-.24.093-.094.08-.267.147-.307.068zm.352-1.06c.078-.04.176.12.204.24.016.072.048.264.136.22.065-.033.114-.166.131-.227.076-.27.155-.553-.139-.724-.165-.096-.3.032-.3.032-.136-.321-.59-.092-.416.21 0 0-.182.031-.206.222-.04.339.232.444.492.546.059.023.194.063.258.03.089-.044-.044-.185-.091-.24-.08-.095-.147-.27-.069-.31zm1.054.353c.039.08-.119.178-.239.206-.071.016-.262.048-.218.137.032.066.165.114.226.132.267.075.55.155.718-.14.096-.167-.031-.302-.031-.302.319-.137.092-.594-.209-.419 0 0-.031-.184-.22-.207-.336-.04-.443.234-.543.495-.023.06-.063.195-.031.26.044.09.185-.045.24-.092.094-.08.268-.148.307-.07zM111.22 43.556l-.124-.064-.01.058.134.006z" fill="#6A994E"/><path d="M113.875 5.608a.155.155 0 01.123.284c-.518.228-1.036.457-1.523.678-.473.214-.893.41-1.207.57a6.345 6.345 0 00-.677.388c-.153.102-.261.193-.369.282a.152.152 0 01-.216-.02.155.155 0 01.02-.219c.111-.093.223-.186.393-.3a6.86 6.86 0 01.71-.407 31.07 31.07 0 011.219-.577c.461-.209.994-.444 1.527-.68zm1.977 38.305a.156.156 0 01-.087-.201.154.154 0 01.2-.088l.016.007c.536.217 1.07.433 1.448.54a2.62 2.62 0 00.817.105.155.155 0 110 .31c-.118 0-.237 0-.386-.015a2.956 2.956 0 01-.514-.101c-.394-.112-.937-.331-1.48-.552l-.014-.005zm-13.549-23.434a.153.153 0 01.214-.036c.07.05.086.146.037.216-.153.214-.306.43-.467.676a5.83 5.83 0 00-.241.4 2.317 2.317 0 00-.181.44 2.533 2.533 0 00-.081.47 3.838 3.838 0 00-.012.391c.003.187.016.232.028.276a.155.155 0 01-.148.198.156.156 0 01-.151-.121c-.017-.06-.033-.126-.037-.348a4.09 4.09 0 01.013-.422c.013-.168.041-.352.091-.528.05-.176.124-.344.207-.5a5.27 5.27 0 01.255-.426c.172-.263.322-.475.473-.686zm1.018-1.7a.155.155 0 01.183-.12c.083.018.136.1.119.184l-.005.017c-.143.648-.287 1.294-.42 1.683-.07.206-.139.347-.202.446a1.027 1.027 0 01-.171.21.857.857 0 01-.175.138.153.153 0 01-.214-.043.157.157 0 01.042-.215l.007-.004a.61.61 0 00.128-.1.736.736 0 00.122-.151c.051-.08.109-.2.171-.382.13-.38.271-1.015.412-1.65l.003-.014zm4.98-10.32a.153.153 0 01.187-.04.155.155 0 01.05.238c-.368.447-.736.895-1.14 1.227l-.01.007a6.4 6.4 0 01-.434.32c-.243.168-.477.33-.656.546-.284.344-.461.856-.638 1.368a.154.154 0 11-.291-.102c.186-.538.372-1.076.693-1.463.207-.25.457-.424.717-.604.138-.096.28-.194.416-.305l.007-.007c.382-.314.741-.75 1.099-1.185zm-4.576 8.248a.154.154 0 01-.205.075.156.156 0 01-.075-.204c.217-.496.433-.992.607-1.705.082-.333.156-.722.231-1.119.086-.452.175-.916.285-1.345a8.82 8.82 0 01.302-.963c.13-.348.263-.63.373-.832.179-.326.305-.45.472-.613l.08-.08c.2-.202.467-.5.735-.8l.004-.004a.154.154 0 11.23.206l-.004.005c-.274.307-.549.613-.747.813l-.083.081c-.147.146-.259.255-.417.542a6.36 6.36 0 00-.355.79 8.87 8.87 0 00-.293.932c-.104.406-.192.872-.279 1.327-.076.398-.15.787-.234 1.134-.181.739-.403 1.247-.625 1.755l-.002.005zm3.075-5.96a.153.153 0 01.214-.03.155.155 0 01.031.217l-.003.003c-.287.371-.575.743-.82 1.38-.11.284-.212.622-.321.985-.144.476-.3.995-.501 1.49-.359.89-.862 1.718-1.365 2.546a.154.154 0 11-.263-.162c.496-.816.991-1.632 1.342-2.5.199-.492.352-.999.492-1.464.112-.37.216-.715.329-1.007.261-.679.563-1.069.865-1.458zm-3.491 22.985a.156.156 0 01-.051.213.153.153 0 01-.212-.05 19.892 19.892 0 01-.536-.91 7.97 7.97 0 01-.465-.993 9.258 9.258 0 01-.323-1.071 15.521 15.521 0 01-.268-1.378c-.018-.114-.029-.189-.046-.257a4.04 4.04 0 00-.166-.483l-.004-.011a.154.154 0 01.286-.113l.005.011c.069.178.138.356.178.523.023.092.034.167.052.283a14.883 14.883 0 00.262 1.352c.081.332.184.694.313 1.034.127.336.28.65.446.954.166.303.347.6.529.896zm.329-.16a.156.156 0 01-.086.202.153.153 0 01-.2-.086 91.223 91.223 0 01-.619-1.585 24.534 24.534 0 01-.513-1.488c-.162-.54-.275-1.025-.371-1.435a12.133 12.133 0 00-.196-.78c-.079-.257-.163-.432-.241-.597-.071-.149-.139-.29-.197-.474a3.33 3.33 0 01-.143-.791 3.31 3.31 0 01.047-.799c.069-.372.211-.741.346-1.096.077-.201.152-.398.21-.588a4.21 4.21 0 00.153-.713c.03-.227.046-.455.061-.683a.154.154 0 11.307.02c-.015.23-.03.458-.063.703a4.606 4.606 0 01-.163.764c-.059.194-.138.398-.217.607-.131.341-.267.697-.331 1.042a2.99 2.99 0 00-.042.724c.016.273.066.52.128.716.052.165.115.296.181.434.084.176.173.363.258.64.068.221.13.49.203.8.095.412.208.897.365 1.416.138.46.313.955.506 1.47.192.51.405 1.044.617 1.577zm2.027 4.2a.155.155 0 01.108-.29c.348.131.697.263 1.034.401.332.137.638.275.892.414.517.284.82.573 1.122.861a.156.156 0 01.005.219.153.153 0 01-.217.006c-.288-.275-.576-.55-1.057-.814a8.792 8.792 0 00-.861-.399c-.315-.13-.671-.264-1.026-.399zm10.006 4.635a.154.154 0 01.184.117.154.154 0 01-.116.185c-.273.062-.546.124-.838.168a5.51 5.51 0 01-.977.06 7.652 7.652 0 01-1.192-.135 10.453 10.453 0 01-1.284-.328 13.076 13.076 0 01-1.151-.437 16.666 16.666 0 01-1.204-.578 14.038 14.038 0 01-1.258-.755c-.227-.153-.266-.185-.305-.216l-.013-.012a.156.156 0 01-.001-.22.154.154 0 01.213-.004c.036.027.081.063.277.195a13.684 13.684 0 001.231.737c.338.18.744.38 1.18.567.361.156.743.304 1.125.428.42.136.842.243 1.245.319.409.076.798.12 1.144.13.34.01.642-.016.925-.058.287-.043.551-.103.815-.163zm-7.973-2.693a.154.154 0 11.15-.27c.366.205.732.41 1.089.618.349.202.665.391.913.555.253.166.444.31.613.436.168.126.313.235.467.327.15.09.313.167.507.214.197.047.429.066.718.036a5.1 5.1 0 001.022-.23c.351-.113.7-.26.993-.423.46-.257.788-.563 1.081-.836.083-.078.163-.153.254-.233.193-.17.383-.316.586-.441.204-.126.421-.23.664-.316.478-.168 1.052-.26 1.627-.353l.024-.002a.155.155 0 01.012.31c-.557.09-1.113.18-1.561.337a3.106 3.106 0 00-.606.288 3.99 3.99 0 00-.543.41 9.743 9.743 0 00-.247.227c-.306.285-.648.604-1.141.88-.311.174-.68.328-1.049.448a5.4 5.4 0 01-1.086.242 2.407 2.407 0 01-.819-.043 2.088 2.088 0 01-.593-.248c-.171-.102-.321-.215-.495-.345-.165-.124-.352-.265-.596-.425a19.884 19.884 0 00-.898-.547c-.328-.19-.707-.403-1.086-.616zm15.006 4.38a.155.155 0 01.028.309c-.585.053-1.17.107-1.725.121-.562.015-1.093-.011-1.561-.117a4.078 4.078 0 01-1.247-.522c-.364-.224-.693-.486-1.023-.748a.155.155 0 01-.025-.218.152.152 0 01.215-.025c.322.255.643.51.993.727.345.211.72.386 1.155.484.44.1.947.124 1.485.11.546-.015 1.125-.068 1.705-.12zm2.621 1.326a.155.155 0 01.052.306c-1.061.184-2.122.368-3.305.256-1.179-.112-2.456-.518-3.734-.923a.143.143 0 01-.051-.028.154.154 0 01.144-.268c1.264.401 2.528.802 3.67.91 1.139.109 2.182-.072 3.224-.253zm4.535-.892a.155.155 0 01.015.31c-.482.022-.965.045-1.436.055-.468.01-.915.009-1.316-.018a9.097 9.097 0 01-1.823-.31c-.377-.1-.488-.149-.599-.197a.156.156 0 01-.082-.203.154.154 0 01.202-.082c.101.043.202.087.558.183a8.74 8.74 0 001.763.3c.397.026.834.028 1.291.018.455-.01.941-.034 1.427-.056zm6.799-5.044a.154.154 0 01.214.043.156.156 0 01-.037.211c-1.409 1.189-2.818 2.377-4.027 3.135a8.755 8.755 0 01-1.715.85 7.181 7.181 0 01-1.61.367 11.96 11.96 0 01-1.647.06 38.108 38.108 0 01-1.679-.09.155.155 0 01.02-.31c.562.04 1.124.078 1.666.09.544.013 1.082.002 1.605-.058a6.877 6.877 0 001.543-.352 8.443 8.443 0 001.654-.82c1.191-.747 2.591-1.928 3.991-3.11l.022-.016zm6.592-7.008a.154.154 0 11.286.116l-.007.016c-.16.352-.321.705-.609.987-.189.185-.421.328-.661.477l-.009.005a7.536 7.536 0 00-.364.235 4.784 4.784 0 00-.875.788c-.206.24-.308.427-.41.614a.154.154 0 11-.271-.149c.11-.2.219-.402.448-.668a5.15 5.15 0 011.311-1.084l.008-.006c.227-.14.446-.275.608-.434.248-.242.397-.568.544-.894l.001-.002zm-5.401 6.034a.154.154 0 01-.213.046.156.156 0 01-.046-.214c.38-.604.759-1.207 1.28-1.911.283-.382.608-.795.953-1.19.29-.333.596-.655.902-.937.247-.226.486-.42.715-.607.394-.32.757-.615 1.029-.968.429-.556.66-1.289.889-2.022.019-.059.07-.1.127-.107h.01a.156.156 0 01.119.043l.006.007c.036.04.05.097.033.15-.238.76-.476 1.518-.94 2.119-.295.382-.672.688-1.08 1.02-.229.186-.468.38-.7.594-.296.272-.594.586-.879.912-.337.388-.657.793-.936 1.17-.514.695-.89 1.293-1.266 1.891l-.003.004zm5.935-12.236a.155.155 0 01.159-.15.155.155 0 01.149.158c-.012.375-.023.75-.069 1.152-.048.409-.131.85-.286 1.355a14 14 0 01-.535 1.421 19.72 19.72 0 01-.74 1.528c-.385.702-.573.857-.756 1.001a.154.154 0 01-.215-.003.157.157 0 010-.22l.015-.012c.161-.127.323-.254.686-.916.208-.378.478-.925.727-1.502.202-.465.391-.952.524-1.387.148-.484.228-.907.273-1.3.046-.398.057-.762.068-1.126zm.454-5.555a.156.156 0 01.141-.167.155.155 0 01.167.142v.004c.084.745.167 1.49.075 2.265-.092.776-.36 1.568-.627 2.359l-.001.004a.154.154 0 01-.197.094.156.156 0 01-.094-.199l.001-.001c.261-.775.523-1.55.612-2.294.088-.74.007-1.467-.075-2.192l-.002-.015zm-.612-2.102a.154.154 0 11.307-.023c.045.581.09 1.163.124 1.702.033.53.052 1.002.046 1.36-.011.74-.132.99-.253 1.241a.154.154 0 01-.248.043.157.157 0 01-.024-.188c.104-.218.207-.442.218-1.1a18.13 18.13 0 00-.047-1.338 113.81 113.81 0 00-.123-1.697zm-.453-.797a.154.154 0 11.306-.028v.007c.061.713.121 1.426.124 1.91.004.49-.05.727-.105.963a.154.154 0 11-.3-.069c.051-.22.101-.44.098-.893-.004-.457-.064-1.171-.124-1.885l.001-.005zm-4.221-6.524a.156.156 0 01-.004-.219.154.154 0 01.218-.004c.429.416.858.832 1.344 1.555.315.467.644 1.046.958 1.6.174.306.344.605.499.865.123.205.233.38.335.543.295.472.53.846.663 1.255.183.557.167 1.15.152 1.741a.154.154 0 11-.308-.007c.015-.565.029-1.13-.137-1.638-.121-.373-.347-.733-.631-1.186-.107-.172-.223-.357-.337-.548-.162-.27-.331-.567-.503-.871-.316-.555-.645-1.136-.945-1.581-.467-.693-.886-1.1-1.304-1.505zm.137-1.233a.155.155 0 01-.005-.22.154.154 0 01.218-.003c.915.89 1.83 1.78 2.467 2.791.638 1.013.989 2.135 1.341 3.256l.001.005a.155.155 0 01-.106.191.153.153 0 01-.19-.107h-.001c-.344-1.1-.689-2.2-1.306-3.179-.618-.982-1.519-1.858-2.419-2.734zm-9.145-5.803a.155.155 0 01-.139-.17.155.155 0 01.169-.139l.005.001c.716.084 1.43.168 1.836.282.221.062.356.135.449.213a.756.756 0 01.189.245.154.154 0 11-.269.151.5.5 0 00-.117-.158.883.883 0 00-.334-.152c-.38-.107-1.084-.19-1.789-.273zm-3.346-1.765a.155.155 0 01-.1-.195.154.154 0 01.194-.1l.004.001c.947.31 1.895.62 2.868.836l.006.001c.379.084.744.15 1.088.213.585.107 1.108.203 1.46.332.461.17.627.389.792.607.043.057.086.114.139.173.131.144.315.284.495.42.125.094.249.188.355.284.278.246.435.491.592.735a.157.157 0 01-.037.208.155.155 0 01-.223-.04c-.145-.227-.291-.454-.535-.672-.099-.088-.218-.177-.337-.268a3.967 3.967 0 01-.538-.458c-.055-.061-.105-.128-.156-.195-.137-.181-.276-.364-.652-.503-.33-.12-.839-.214-1.409-.318-.359-.065-.74-.135-1.1-.215h-.006c-.983-.218-1.94-.532-2.897-.845l-.003-.001zm-4.955.144a.155.155 0 01-.145-.163.154.154 0 01.162-.146c.476.027.951.054 1.436.095.496.042 1.017.1 1.586.187.552.086 1.149.2 1.703.32a20.75 20.75 0 011.511.382c.775.235.94.402 1.105.567.06.061.06.16 0 .22a.155.155 0 01-.219 0c-.137-.138-.275-.277-.975-.49a20.331 20.331 0 00-1.487-.375 28.926 28.926 0 00-1.684-.317 22.619 22.619 0 00-1.566-.185 49.629 49.629 0 00-1.427-.095zm-2.678 1.095a.155.155 0 01-.028-.308c1.009-.091 2.018-.183 2.868-.214a19.73 19.73 0 012.676.09c.194.02.337.038.48.056a.155.155 0 01-.037.308 16.57 16.57 0 00-1.093-.11 19.222 19.222 0 00-2.015-.034c-.845.03-1.848.121-2.851.212zm-4.013.636a.154.154 0 01.196.096.156.156 0 01-.095.197c-.283.1-.565.2-.84.303-.278.105-.562.218-.855.347-.285.126-.584.27-.889.423-.317.16-.615.315-.914.471a.155.155 0 01-.141-.276c.314-.163.629-.327.918-.473a16.679 16.679 0 011.774-.782c.291-.11.569-.208.846-.306zm1.244-1.147a.155.155 0 01.063.304c-.383.08-.767.16-1.131.255a7.644 7.644 0 00-1.068.352c-.517.219-1.003.518-1.431.781-.143.088-.279.172-.405.245a9.31 9.31 0 01-.608.33 6.497 6.497 0 01-.565.249c-.258.097-.332.097-.406.097a.156.156 0 010-.31c.047 0 .094 0 .297-.077.129-.05.313-.126.539-.238.167-.082.364-.187.588-.318.128-.076.261-.157.399-.242.437-.268.933-.573 1.472-.802a7.995 7.995 0 011.112-.367c.383-.1.764-.18 1.144-.259z" fill="#FEFEFE"/></svg>