<svg width="15" height="15" fill="none" xmlns="http://www.w3.org/2000/svg"><path d="M7.438.125A7.318 7.318 0 00.125 7.438a7.318 7.318 0 0011.07 6.275l-.58-.967a6.136 6.136 0 01-3.178.879A6.18 6.18 0 011.25 7.437 6.18 6.18 0 017.438 1.25a6.18 6.18 0 016.187 6.188v1.239a1.57 1.57 0 01-1.569 1.573h-.233a1.574 1.574 0 01-1.573-1.573V6.198A2.71 2.71 0 007.552 3.5h-.229a2.71 2.71 0 00-2.698 2.698v2.479a2.71 2.71 0 002.698 2.698h.229a2.69 2.69 0 002.136-1.072 2.695 2.695 0 002.135 1.072h.233a2.706 2.706 0 002.694-2.698v-1.24A7.318 7.318 0 007.437.125zm-.115 4.5h.229c.865 0 1.573.703 1.573 1.573v2.479c0 .87-.708 1.573-1.573 1.573h-.229c-.87 0-1.573-.703-1.573-1.573V6.198c0-.87.703-1.573 1.573-1.573z" fill="#000"/></svg>