<svg width="15" height="21" fill="none" xmlns="http://www.w3.org/2000/svg"><path d="M7.5.438C3.541.438.312 3.666.312 7.625c0 1.112.455 2.33 1.084 3.616.63 1.292 1.449 2.64 2.274 3.87a64.527 64.527 0 003.274 4.469l.556.685.556-.685s1.634-2.005 3.28-4.47c.819-1.23 1.639-2.577 2.268-3.869.629-1.286 1.084-2.504 1.084-3.616 0-3.959-3.23-7.188-7.188-7.188zm0 1.437a5.74 5.74 0 015.75 5.75c0 .674-.354 1.791-.938 2.987-.584 1.202-1.381 2.505-2.173 3.706-1.32 1.977-2.218 3.066-2.639 3.594-.421-.528-1.32-1.617-2.64-3.594-.79-1.201-1.588-2.504-2.172-3.706C2.104 9.416 1.75 8.3 1.75 7.625a5.74 5.74 0 015.75-5.75zm0 4.313a1.44 1.44 0 00-1.438 1.437A1.44 1.44 0 007.5 9.063a1.44 1.44 0 001.438-1.438A1.44 1.44 0 007.5 6.187z" fill="#62617A"/></svg>