<svg width="24" height="24" fill="none" xmlns="http://www.w3.org/2000/svg"><path d="M11.5 12.035A3.518 3.518 0 1011.5 5a3.518 3.518 0 000 7.035zm0-5.412a1.894 1.894 0 110 3.789 1.894 1.894 0 010-3.789z" fill="#FF9800"/><path d="M14.946 13.702c.382-.252.613-.679.613-1.136a.981.981 0 00-.55-.896 1.028 1.028 0 00-1.083.102 4.117 4.117 0 01-4.851 0 1.034 1.034 0 00-1.082-.102.983.983 0 00-.551.895c0 .458.23.884.613 1.136a6.244 6.244 0 001.88.84l-1.635 1.6a1.082 1.082 0 101.534 1.527l1.667-1.726 1.67 1.729a1.082 1.082 0 101.528-1.533l-1.633-1.597a6.223 6.223 0 001.88-.839z" fill="#FF9800"/><path d="M11.504 0c3.174 0 6.051 1.29 8.135 3.368a11.456 11.456 0 013.368 8.136c0 3.174-1.29 6.051-3.368 8.135a11.456 11.456 0 01-8.135 3.368c-3.175 0-6.052-1.29-8.136-3.368A11.456 11.456 0 010 11.504c0-3.175 1.29-6.052 3.368-8.136A11.456 11.456 0 0111.504 0zm7.542 3.954A10.628 10.628 0 0011.504.828 10.616 10.616 0 003.96 3.954a10.628 10.628 0 00-3.126 7.542c0 2.947 1.194 5.618 3.126 7.543a10.628 10.628 0 007.543 3.126c2.946 0 5.617-1.194 7.542-3.126a10.628 10.628 0 003.126-7.543c0-2.946-1.194-5.617-3.126-7.542z" fill="#FF9800"/></svg>