<svg width="15" height="15" fill="none" xmlns="http://www.w3.org/2000/svg"><path d="M2.793.174l-1.771 1.77a3.035 3.035 0 00-.488 3.67c.773 1.327 1.406 2.307 4.056 4.953 2.646 2.65 3.366 3.01 4.672 3.775a3.027 3.027 0 003.665-.488l1.775-1.771-3.428-3.423-1.393 1.393a5.817 5.817 0 01-.707-.391 12.496 12.496 0 01-2.035-1.644A15.457 15.457 0 015.346 5.83a7.913 7.913 0 01-.501-.835l-.009-.018 1.38-1.38L2.793.174zm0 1.59l1.832 1.833-.804.809a.595.595 0 00-.18.457c0 .1.017.171.035.237.04.136.092.255.158.396.136.272.334.597.58.966.493.73 1.187 1.613 1.925 2.356.743.738 1.56 1.362 2.233 1.788.334.216.628.378.878.488.128.057.242.101.378.128.066.013.141.022.242.013a.6.6 0 00.4-.18l.804-.804 1.837 1.832-.98.98c-.61.61-1.556.743-2.303.308-1.327-.778-1.832-.985-4.447-3.595-2.61-2.615-3.111-3.42-3.876-4.729a1.903 1.903 0 01.308-2.302l.98-.98z" fill="#000"/></svg>