<svg width="76" height="76" fill="none" xmlns="http://www.w3.org/2000/svg"><path d="M52.36 43.266H13.178l33.93-21.573a.893.893 0 00.274-1.23l-3.362-5.287a5.386 5.386 0 00-7.427-1.653l-4.774 3.035.378-1.81a5.094 5.094 0 10-9.944-2.213l-2.48 11.14-8.305-1.848a5.093 5.093 0 00-3.117 9.652l-5.115 3.252a5.386 5.386 0 00-1.654 7.427l3.362 5.287a.89.89 0 001.23.274l3.128-1.989v22.546a5.386 5.386 0 005.38 5.38h33.189a5.386 5.386 0 005.38-5.38v-24.12a.892.892 0 00-.89-.89zm-14.81-28.24a3.574 3.574 0 012.713-.476 3.578 3.578 0 012.255 1.582l2.884 4.535-14.028 8.92-4.815-7.573 10.991-6.988zm-13.557-2.104a3.312 3.312 0 116.464 1.451l-.731 3.498-7.966 5.084 2.233-10.033zm1.063 10.048l4.815 7.572-8.129 5.168-4.814-7.572 8.128-5.168zm-17.49 5.606a3.312 3.312 0 013.516-5.01l7.197 1.602-7.99 5.008-.647-.144a3.29 3.29 0 01-2.075-1.456zM5.97 45.738l-2.883-4.535a3.603 3.603 0 011.106-4.968l11.232-7.141 4.814 7.572L5.97 45.738zm17.272 26.137h-8.558a3.603 3.603 0 01-3.599-3.599V45.047h12.157v26.828zm11.32 0h-9.54V45.047h9.54v26.828zm16.908-3.599a3.603 3.603 0 01-3.598 3.599h-11.53V45.047H51.47v23.229zm10.85-33.1l.425-2.484a.89.89 0 00-1.292-.94l-2.23 1.173-2.231-1.172a.89.89 0 00-1.292.939l.425 2.484-1.804 1.759a.892.892 0 00.493 1.519l2.494.362 1.115 2.26a.89.89 0 001.598 0l1.115-2.26 2.494-.362a.891.891 0 00.494-1.52l-1.805-1.758zm-1.903 1.944a.892.892 0 00-.67.487l-.525 1.062-.524-1.062a.89.89 0 00-.67-.487l-1.172-.17.848-.826a.892.892 0 00.256-.789l-.2-1.167 1.048.551a.89.89 0 00.829 0l1.047-.55-.2 1.166a.89.89 0 00.256.789l.848.826-1.171.17zm12.145-14.216l-2.45-.595-.897-2.355a.89.89 0 00-1.59-.15L66.3 21.95l-2.517.126a.89.89 0 00-.634 1.466l1.632 1.921-.657 2.433a.89.89 0 001.198 1.056l2.33-.958 2.112 1.377a.89.89 0 001.375-.813l-.19-2.513 1.96-1.582a.89.89 0 00-.348-1.559zm-3.096 2.049a.891.891 0 00-.329.76l.09 1.18-.993-.646a.89.89 0 00-.825-.078l-1.095.45.31-1.143a.89.89 0 00-.182-.809l-.766-.902 1.182-.06a.89.89 0 00.714-.421l.621-1.008.422 1.106a.89.89 0 00.622.548l1.15.28-.92.743zM59.464 8.426l-.657 2.433a.89.89 0 001.198 1.056l2.33-.958 2.111 1.377a.89.89 0 001.375-.813l-.19-2.513 1.961-1.582a.89.89 0 00-.349-1.56l-2.449-.594-.898-2.355a.891.891 0 00-1.59-.15l-1.323 2.145-2.517.127a.89.89 0 00-.634 1.466l1.632 1.92zm2.077-1.758a.89.89 0 00.713-.422l.622-1.008.422 1.106a.89.89 0 00.621.548l1.15.28-.92.743a.89.89 0 00-.33.76l.09 1.181-.993-.647a.89.89 0 00-.825-.078l-1.095.45.31-1.143a.89.89 0 00-.182-.809l-.766-.902 1.183-.06z" fill="red"/><path d="M43.306 35.304c-2.011 1.265-2.993 2.799-3.034 2.863a.89.89 0 001.504.954c.134-.207 3.356-5.078 10.37-3.343a.89.89 0 00.428-1.73c-4.316-1.067-7.422.094-9.268 1.256zm16.9-9.433a.89.89 0 10.683-1.645c-6.34-2.631-10.948-.66-13.698 1.456a16.697 16.697 0 00-4.433 5.232.892.892 0 001.082 1.24.892.892 0 00.513-.448 15.019 15.019 0 013.925-4.613c3.457-2.66 7.47-3.072 11.928-1.222zm-10.007-6.597a.89.89 0 00.573 1.121c1.226.362 2.498.545 3.776.546 1.49 0 3.21-.269 4.752-1.183 2.019-1.196 3.313-3.234 3.85-6.056a.89.89 0 10-1.75-.333c-.436 2.295-1.446 3.928-3 4.853-2.957 1.759-7.017.5-7.081.479a.89.89 0 00-1.12.573zM38.426 42.286a1.604 1.604 0 100-3.209 1.604 1.604 0 000 3.21zm0-1.781a.178.178 0 01.164.11.178.178 0 11-.164-.11zm12.619-27.313a1.605 1.605 0 100-3.209 1.605 1.605 0 000 3.21zm0-1.78a.178.178 0 110 .354.178.178 0 010-.355zm22.609.557a1.603 1.603 0 100 3.207 1.603 1.603 0 000-3.207zm0 1.781a.177.177 0 01-.126-.303.178.178 0 01.303.126.178.178 0 01-.177.177zM37.77 33.254a1.604 1.604 0 10-3.209 0 1.604 1.604 0 003.208 0zm-1.604.178a.177.177 0 11.125-.052.178.178 0 01-.126.052zm34.847.828a1.603 1.603 0 100 3.208 1.603 1.603 0 000-3.207zm0 1.782a.177.177 0 110-.354.177.177 0 010 .354z" fill="red"/></svg>