<svg width="23" height="23" fill="none" xmlns="http://www.w3.org/2000/svg"><g clip-path="url(#clip0)"><path d="M11.504 0c3.174 0 6.051 1.29 8.135 3.368a11.456 11.456 0 013.368 8.136c0 3.174-1.29 6.051-3.368 8.135a11.456 11.456 0 01-8.135 3.368c-3.175 0-6.052-1.29-8.136-3.368A11.456 11.456 0 010 11.504c0-3.175 1.29-6.052 3.368-8.136A11.456 11.456 0 0111.504 0zm6.493 8.288c.097-.325 0-.56-.455-.56h-1.519c-.386 0-.566.208-.662.429 0 0-.773 1.877-1.863 3.098-.352.352-.51.462-.704.462-.097 0-.242-.11-.242-.434V8.28c0-.387-.103-.56-.428-.56h-2.38c-.242 0-.387.18-.387.346 0 .366.545.448.6 1.477v2.236c0 .49-.089.58-.282.58-.51 0-1.767-1.892-2.505-4.052-.145-.42-.29-.586-.676-.586H4.975c-.434 0-.517.207-.517.428 0 .4.51 2.394 2.394 5.03 1.256 1.801 3.016 2.774 4.624 2.774.966 0 1.083-.213 1.083-.586v-1.36c0-.434.09-.517.394-.517.227 0 .607.11 1.51.98 1.029 1.028 1.202 1.49 1.774 1.49h1.519c.434 0 .648-.214.524-.642-.138-.427-.628-1.042-1.277-1.773-.352-.42-.883-.87-1.042-1.09-.227-.29-.158-.421 0-.676 0 0 1.85-2.602 2.043-3.485l-.007-.007zm1.049-4.334A10.628 10.628 0 0011.504.828 10.616 10.616 0 003.96 3.954a10.628 10.628 0 00-3.126 7.542c0 2.947 1.194 5.618 3.126 7.543a10.628 10.628 0 007.543 3.126c2.946 0 5.617-1.194 7.542-3.126a10.628 10.628 0 003.126-7.543c0-2.946-1.194-5.617-3.126-7.542z" fill="#5E83AA"/></g><defs><clipPath id="clip0"><path fill="#fff" d="M0 0h23v23H0z"/></clipPath></defs></svg>