<svg width="150" height="148" fill="none" xmlns="http://www.w3.org/2000/svg"><path d="M73.357 141.609c-38.067 0-68.93-30.899-68.93-69.012S35.29 3.585 73.358 3.585c38.067 0 68.929 30.9 68.929 69.012.011 38.113-30.851 69.012-68.929 69.012zm.544 5.369c-.688-.067-.444.855-.544 1.022 1.166-.233.511-1.267.544-1.022zm10.992-3.024l-.133.411 1.443-1.2-1.31.789z" fill="#A9DB8A"/><path d="M94.962 141.609c-.7-.611-1.566-.3-2.51.167-.943.489-1.998 1.045-2.952.978l-.378-.278-.544 1.423c1.077-.367 2.287-.867 3.408-1.367 1.11-.511 2.154-.9 2.975-.923zm6.451 1.301c-.555-.434.966-.945-1.321.311.144.011.189.033.277.056.222-.089.522-.212 1.044-.367z" fill="#A9DB8A"/><path d="M100.367 143.276c-1.043.467.888.212 0 0zm4.708-2.367l-1.143 1.123c.433.2 1.698-.278 1.343.166 1.299-.933.844-1.111-.2-1.289zm.779-1.645s-.144.133-.289.278c-.144.133-.299.266-.299.266.188.078.399.056.588-.544zm-1.866 1.667l1.277-1.111c-.311-.145-.533-.601-.6.466-.077-.489-.177.045-.677.645zm-.943.156c-.888.044-1.965.222-.81-.845-1.244.645-1.688 1.145-1.488 1.378.189.2 1.055.156 2.298-.533zm-8.082-1.2s-.289-.022-.566-.056c-.29-.022-.578-.066-.578-.066l-.721.755c.188-.188.7-.222 1.154-.266.444-.056.822-.145.71-.367zm18.715-2.735c-.099-.333-.899-.489-1.21-.789 0 0-.177.234-.366.456s-.377.433-.377.433c.61-.066 1.632-.489 1.953-.1zm-1.209-.801l1.066-1.367c-1.254.734-1.343 1.101-1.066 1.367zm-7.159 1.234s-.444.578-.922 1.112l-.954 1.089 1.176-1.2c.3-.289.567-.623.777-.856.211-.234.345-.389.345-.389l-.422.244zm13.666-4.001s-.077.3-.155.589c-.078.3-.167.589-.167.589s.178-.489.344-.967c.156-.489.311-.989.311-.989l-.333.778zm3.218-2.745c-.122.956 1.432.2 1.122.989.81-.856 1.21-1.912 1.521-2.879-.511.834-1.333 1.445-2.643 1.89zm3.219-3.445c-.233.433-.388.967-.577 1.545a4.82 4.82 0 00.577-1.545zm-9.479 6.18c.222.089.721.389 1.609.022l-1.077-.389c-.166.122-.344.245-.532.367z" fill="#A9DB8A"/><path d="M116.432 133.206l.033.011c.588-.378.988-.645 1.166-.767-.156.1-.522.323-1.199.756zm-.632.456c.044-.033.088-.056.132-.089-.099-.033-.154-.044-.132.089zm-6.396 2.701c.567-.934 1.943-2.379-.088-2.134-.245.889.921.744.088 2.134zm5.084-3.212s-.377.2-.766.378c-.388.189-.777.367-.777.367.156.189.622.322.367.8 0 0 .299-.389.599-.767.144-.189.3-.389.411-.533.089-.145.166-.245.166-.245zm.513-.722l-.511.722.555-.3-.044-.422zm7.604-3.657c.3-.789.888-1.367 1.51-2.056-.833.556-1.666 1.156-2.398 1.789.089.312.111.99.888.267zm-2.997 2.166c.033-.044.077-.1.1-.144-.134 0-.211.033-.1.144zm10.745-10.825h-.222c.033.045.066.078.1.134l.122-.134zm-8.881 8.359c-.677.345-.866.811-.999 1.311.355-.433.766-.866 1.232-1.289-.033-.133-.089-.211-.233-.022zm5.474-3.191c-.411.145-.833.345-1.288.556.5-.044 1.366-.278 1.288-.556zm-6.883 5.558c-.022.033-.033.067-.055.1.311.011.222-.045.055-.1z" fill="#A9DB8A"/><path d="M120.062 130.838c.222-.344.311-.711.41-1.056-.31.334-.577.678-.777 1.012.122 0 .256.022.367.044zm7.217-16.583c.311.312.344.956.078 1.601-.255.656-.833 1.289-1.71 1.578-.51 1.59 2.276 2.757 4.463 2.679-.266-.289-.5-.5.133-2.145-.71.2-3.23 2.111-2.919.544.544-.956.865-1.256 1.198-1.378.334-.122.678-.056 1.188-.333-.699.022-.588-.778-.499-1.634.1-.856.1-1.812-.666-2.09 0 0-.145.467-.311.912-.178.444-.344.9-.344.9-.211-.122-.111-.889-.611-.634zm.644 8.248l-.4.578c.678-.466 1.299-.667 2.509-1.022.456-1.178.367-1.567.189-1.812l-1.177 1.267c-.299.322-.588.634-.81.867a9.754 9.754 0 00-.378.378l.067-.256zm-2.6 2.856c-.255-1.045.567-2.545-.854-2.523-1.355 1.467-.444 1.545-1.022 2.69 2.209-2.434-.322 1.034 1.777-.222-.356.567-.755 1.011-1.122 1.422a14.769 14.769 0 011.554-.878c-.033 0-.066.011-.099.011l-.012.012-.011-.012c-.188.012-.277 0-.111-.066 0-.011.023-.045.034-.067-.056-.122-.089-.244-.134-.367.844-.522.289.078.145.367.022.045.033.089.066.133h.023s.521-.666.988-1.367c.477-.7.965-1.389.965-1.389-.577.4-1.143 1.078-2.187 2.256zm-15.596 6.258c.122.022.155.078.199.134.1-.212.123-.323-.199-.134z" fill="#A9DB8A"/><path d="M111.115 131.395c-.122.233-.078.655-.755.978-.699.1-.233-.389-.433-.634-.233.456-.977 1.412.466 1.056l.122-.233c1.244-.401 3.298-.323 3.186-.089-.81-.5-1.432-.823-2.586-1.078zm7.093-2.824s.111-.133.288-.322c.178-.189.4-.445.611-.712.433-.522.855-1.056.855-1.056l-1.554.256.366.334c-1.277.822-.655 1.078-.566 1.5zm12.712-8.391l.533.923s0-.534-.022-1.079c-.023-.544-.056-1.078-.056-1.078l-.455 1.234zm2.152-2.934l.622.633s.044-.266.078-.544l.066-.545-.766.456zM40.909 17.723l-.477.567c.244-.234.388-.412.477-.567zm4.484-2.366l-.078-.445c-.1.322-.111.522.078.445zm91.254 18.038c.056-1.434.367-3.279-.366-2.612l-.599.845c.588.6.843 1.2.965 1.767zM86.88 5.142c.079.111.167.222.256.345.333-.267.633-.512.91-.734-.344.122-.743.233-1.165.389zm-1.498 3.756l-1.243-.856c.266.278.666.556 1.243.856zm-63.724 28.22s.089.3.167.6c.1.3.189.612.189.612.688-1.034-.012-.856-.356-1.212zm125.114 46.05c.5-.967.766-1.767.9-2.479-.711 1.179-1.654 2.046-.9 2.48zM37.744 7.831c-.344.4-.433.678-.322.856.366-.4.522-.7.322-.856zM147.905 77.71c-.111.178-.166.345-.266.534.1.766.188 1.533.022 2.456.522-.89.821-1.934.244-2.99zM37.867 125.292c.034.078.1.144.133.222.078-.1 0-.155-.133-.222zm25.756 19.853c-.333.011-.877-.056-1.377-.1.233.1.644.144 1.377.1zm77.366-40.203c-.278.723.055.156 0 0zm-5.03 1.555c-.022-.188-.089-.355-.277-.477a.774.774 0 01.277.477zm6.129-36.268v-.067c-.178.222-.144.189 0 .067zm-2.01 35.558c.233-.2.477-.456.7-.756a7.954 7.954 0 00-.7.756zm.479.066c-.156.222-.278.389-.389.555.1.167.222.134.389-.555zm.831-1.913a5.546 5.546 0 01-.611 1.101c.122-.111.2-.145.211-.1.078-.211.2-.512.4-1.001zM7.916 81.278c-.022.045-.044.1-.066.156.466.633.366.344.066-.156zm109.303-55.997c.033.011.055.011.088.022-.011-.033-.033-.066-.044-.088l-.044.066zm-2.252-1.055c1.532-.233 1.909.256 2.287.978l.644-1.29c.31-.644.621-1.3.621-1.3s-.899.4-1.798.79l-1.754.822z" fill="#A9DB8A"/><path d="M31.293 25.092l1.799-.422c-.566 2.367-1.91 2.89.011 2.812-.91-1.167.2-2.301 1.388-3.335.6-.511 1.188-1.034 1.532-1.578.366-.522.477-1.09.088-1.734l1.255-.111c-.267.155-.211.333-.477.478 2.508-.045.055-2.69 2.642-3.857.943-.311 1.754-.256 1.365.378l1.488-1.712c.577-.255.688.278.122.534 0 0 .166-.112.422-.278.266-.156.61-.378.966-.578.699-.434 1.398-.856 1.398-.856l.023.089c.2-.645.877-1.723 1.232-2.223.944.044-.255.467.1.722l.688-.711c.178-.178.344-.356.477-.489a7.86 7.86 0 00.223-.211c.5.222.466.644.155 1.056-.3.433-.855.867-1.454 1.067 1.387 1.022 1.62.7 2.053.133.433-.533 1.066-1.334 3.042-1.156 0 0-.089.056-.222.145s-.31.21-.488.333l-.71.49c.81.6 1.442.61 2.153.577.71-.033 1.487-.178 2.509.022-.289-.189-1.355-.533-2.198-.978-.833-.444-1.432-1-.622-1.667.6.044 1.31-.1 2.143-1 .322 1.011 1.232.489 2.453.078l.278 1.389c1.199-.767.932-1.39 1.587-2.212 1.554-.211 2.076.778 2.609 1.634 1.199-.1.722-.456.266-.878-.455-.434-.877-.923.544-1.312.533.045 1.01.022 1.477-.055a7.26 7.26 0 001.354-.3c.9-.29 1.832-.8 3.053-1.29 1.499.378-.188.878.367 1.245l1.21-1.223c.322 0 .233.356.188.534 1.066-.49.011-1.423 1.743-1.856.211-.778 1.144-.256 2.243.3 1.11.578 2.376 1.09 3.497.289.5.444-.311.845-.178 1.4 1.477-.466 2.132-.622 2.709-.844.588-.212 1.11-.445 2.431-1.067 0 0 .489.289.977.589.477.3.944.633.944.633-1.332-1.311.766-2.212 2.742-2.912-.455-.6-.866-1.122-1.144-1.4l1.499-.111c.755-.045 1.51-.056 1.51-.056.288.311-.1.711-.688 1.178a6.98 6.98 0 00.588-.211c.888.745.177 1.412-.7 2.023-.277-.345-.543-.711-.81-1.078-.866.711-1.665 1.534-1.676 2.378.2-.133.566-.21.955-.222-.223.2-.367.378-.322.534.066.166.4-.112.91-.356l.266 1.678.278-.578s.8.434 1.599.878c.4.212.788.467 1.076.634l.489.3c.7-.211 1.41-.467 2.154-.734.732-.222 1.487-.455 2.286-.644.81-.19 1.666-.323 2.565-.312.9.012 1.887.067 2.92.356-1.41.634-.944 1.645-1.532 2.879-.222-.89-1.033-1.023-1.977-1.09-.477-.022-.988-.044-1.498-.088-.522-.045-1.033-.134-1.499-.367.977.489.533 1.034.2 1.156 0 0 .244-.011.61-.011.367-.011.855-.011 1.344.01l1.965.068c-.5 1 .422 1.056 1.099 1.89.11-1.157.888-1.212 1.865-.968.977.222 2.076.867 2.931.9-.267.7-.933 1.212-2.487.212.533 1.211 1.388.922 2.298.622.899-.322 1.821-.59 2.353.522-.41-.21-.566-.433-.899-.2.622-.022 1.443.412 1.987.878.544.467.8 1 .378 1.112l-.389-.233c.6.455 1.377 1 2.221 1.522.843.545 1.731 1.123 2.608 1.578 1.721.979 3.353 1.601 4.13 1.034-.133.2-1.743 1.478-2.131 1.667 0 0 .51-.11 1.265-.222a88.906 88.906 0 012.831-.411 45 45 0 012.887-.29c.799-.055 1.332-.088 1.332-.088-.744.4-1.421 1.634-2.254 2.612-.821.978-1.787 1.7-2.975 1.19.344.666.81 1.41 2.242 2.089-.155-.512.8-2.523 1.388-2.145.011 1.311.045 1.7.156 2.111.099.423.299.823.455 2.179-.222-.79 2.187-1.867 2.908-.9-.41.11-1.831 1.7-2.298 1.556 0 0 .944.144 1.888.278.943.155 1.876.366 1.876.366-.8-.3-1.71 1.223-1.876 2.146.099-.267.466.222.899.833.411.623.843 1.39 1.165 1.623l-.233-1.323c.766 1.434 1.976 1.556 3.153 1.756 1.177.19 2.465.367 3.253 1.868-.655-.1-3.186.778-2.642 2.345.721.011 2.498-.044 4.34.278 1.821.322 3.853.967 4.918 2.212l-.41.844s.433.467.866.923c.222.233.421.467.577.656.155.178.255.3.255.3-1.132-.356-3.108-1.045-4.996-1.745-1.909-.712-3.852-1.367-5.006-1.912.044 1.334-.6.7.266 2.256-.322.856-1.354-.389-1.621-.822 0 0 .367.956.733 1.9.189.467.333.967.455 1.323s.2.6.2.6c.633-.389 1.299.167 1.943.756.61.6 1.188 1.245 1.732.934 0 0-.189-.234-.478-.578-.277-.345-.677-.8-1.099-1.234l-1.621-1.734c.633-.4 1.843-.267 3.042.367.6.322 1.221.756 1.699 1.323.477.566.877 1.233 1.099 1.978-.267.923-2.676.389-3.109.645.3.089.811.644 1.155 1.256.344.611.588 1.245.466 1.434l-1.154-.934c0 .867.677 1.334 1.276 1.9.589.567 1.044 1.234.644 2.39.122.69-1.343 2.434-.466 2.334 1.399-1.445 6.394-3.045 7.815-2.545a44.552 44.552 0 01-.433 2.356c-.233 1.134-.655 2.357-.977 2.835-.544.71-1.409.389-2.242.077-.833-.322-1.643-.633-2.12-.055.399-.033 1.01.5 1.21.733-.211.778-1.288-.077-.833 1.434 1.532.034.278 3.223 1.354.556.311.745.289 1.178.222 1.634-.066.467-.155.956-.066 1.878.466-.333 1.31 0 2.12.645.8.645 1.599 1.6 1.81 2.423-.389-.078-.877.311-1.088.489a26.526 26.526 0 01-.133 2.256c-.089.69-.211 1.312-.322 1.934a83.363 83.363 0 00-.311 1.879 20.941 20.941 0 00-.278 2.09c-.377.255-.943 1.666-1.532.989.211.455.666.91.589 1.844-1.51 1.623.055-2.078-1.666-.91.844.21.933 2.522 1.199 3.923.689-.09.922-.845.866-1.757-.055-.91-.333-1.967-.521-2.656.921.1 1.798.778 2.486 1.89a7.8 7.8 0 01.877 1.967c.2.745.344 1.567.411 2.434 0 1.378-.4 1.59-.71 1.534-.322-.056-.6-.378-.522-.133-.355 1.2-.4 2.1-.3 2.845.067.745.289 1.334.488 1.89.4 1.122.7 2.156-.632 3.956-1.654 1.2-2.254-.711-3.175-.633.122-1.078.566-1.79 1.021-2.412.433-.634.888-1.178 1.055-1.89l-1.022 1.556c-.188-.766-.1-2.2.444-2.845-.355.256-.677.878-.999 1.7-.166.412-.322.89-.488 1.39-.178.5-.378 1.034-.578 1.578-.199.556-.388 1.123-.621 1.69a44.43 44.43 0 01-.733 1.656c-.477 1.078-1.077 2.056-1.676 2.79.089.755-.011 1.989.644 1.7l.344-1.156c1.332-.622.266 2.623 1.299 1.423-.023.9-.056 1.856-.245 2.845a6.81 6.81 0 01-.455 1.479 5.776 5.776 0 01-.954 1.389l-1.388-.3c.366.155 1.454-.912 1.41-1.678.022.566-.822 1.122-1.532 1.733-.355.312-.677.634-.855 1.001-.189.355-.233.744 0 1.211 0 0 .422-.222.844-.433.422-.222.821-.456.821-.456-.111.9-.2 1.956-.411 3.012-.199 1.067-.61 2.079-1.398 2.823 1.654-.022.155-.466 2.32-.844-2.32.033 3.031-4.591.155-3.879 1.166-.189 1.665-.69 2.165-1.245.511-.556 1.021-1.178 2.165-1.745-.422-.145-1.088.255-.067-1.256-.077-.134-.144-.378-.177-.523.033-.044.055-.055.088-.1-.033.034-.055.045-.088.067-.023-.1-.034-.111-.034.022-.366.3-.732.5-1.021.5-.255-.633-.044-1.556.189-2.467.211-.923.488-1.823.433-2.356.621-.867.288.6.965.277 0 0-.033-.4-.077-.8-.056-.4-.1-.811-.1-.811.966.267 2.553-2.012 2.176.544l.877-2.1c.977-1.067 1.787-2.768 1.732-3.98.51-.978-.311-2.912.177-1.8 0 0 .089-.9.189-1.79.044-.9.1-1.8.1-1.8l.244.022c.489-1.69.366-3.557.489-5.402.033-1.867.322-3.734 1.321-5.657-.078-.6-.167-1.2-.2-1.9a9.278 9.278 0 01.133-2.468l.866-.378c-.111-.767.055-1.912.178-2.957.111-1.044.166-1.99-.322-2.29.544-.444.81-1.144.91-1.978.044-.422.055-.867.033-1.345a14.135 14.135 0 00-.2-1.456 54.385 54.385 0 00-.643-2.945c-.245-.934-.433-1.779-.445-2.468l-1.121.111c-.111-.922-.422-1.778-.744-2.69a22.527 22.527 0 00-.566-1.389c-.211-.478-.466-.967-.732-1.478l-.911.4c-.666-.822-.788-2.056-1.01-3.445-.1-.7-.189-1.434-.322-2.179a11.829 11.829 0 00-.677-2.19c.422.056.622.823.61 1.423.189-1.056 0-2.012-.377-2.9-.4-.879-1.01-1.668-1.621-2.435-.599-.778-1.276-1.478-1.765-2.245-.5-.756-.833-1.567-.899-2.49-.733-.544-.922-1.122-.999-1.756a.632.632 0 00.144.156c-.033-.078-.1-.19-.155-.3-.034-.412-.067-.834-.156-1.267-.011.422 0 .8.067 1.1-.333-.545-.988-1.29-1.699-1.956l.666-.923c-.055-.056-.088-.111-.144-.167-.189-1.011-.822-.355-1.221.512a4.212 4.212 0 00-1.232-.667c.488-.79 0-1.223-.478-1.679-.477-.466-.977-.944-.577-1.9-.555.022-1.421-.812-2.365-1.545-.988-.7-2.042-1.29-2.908-.856.166-.189.066-.467.41-.1-.499-.934-1.065-1.823-2.087-2.134l.666-1.256s-.71-.089-1.432-.189l-1.443-.133c-.411-1.534-.522-2.29 1.199-2.09a21.458 21.458 0 01-1.898-.711c-.444-.178-.733-.334-1.022-.478-.555-.278-1.065-.545-2.631-.834l.655-.589c-.821-.6-2.775-.656-2.808-1.6-.189-.667-.866-1.401-1.81-2.224-.932-.833-2.22-1.622-3.552-2.534-2.765-1.69-5.984-3.423-8.371-5.28 0 1.412-.488.857-1.132.2-.644-.644-1.443-1.422-1.91-.533-.088-.689-.743-1.311.333-1.456-1.498-.3-2.509-.833-3.43-1.278-.921-.444-1.82-.656-3.042-.133-.166-.678.866-.678.666-1.112-.322.09-1.121.278-1.332-.155-.21-.434.555-.378 1.1-.49-.756-.188-1.377-.222-1.888-.144-.51.1-.91.322-1.232.6-.644.567-.977 1.423-1.277 2.257-.644-.578-1.166-.878-1.676-.923-.522-.022-1.044.211-1.677.678-.41-.656-1.188-1.4.7-1.278-.256-.067-.777-.222-1.41-.4a44.124 44.124 0 00-1.022-.267 32.971 32.971 0 00-1.11-.189c-1.487-.211-2.864-.233-2.986.49-.289-.379-1.454-.212-1.732-.068-1.165-.144-1.798-.233-2.431-.266-.633-.045-1.266-.056-2.41-.023l.634.245c-.922 1.656-1.899.378-3.742.622l.045-.177c-1.066-.3-1.72-.345-2.154-.334-.444.011-.666.1-.888.178-.222.078-.433.156-.866.144-.433-.022-1.077-.11-2.165-.31l.356 1.022c-.067 1.156-.988.933-2.22.578-1.222-.323-2.776-.734-3.886-.09l.977.434c-.578.478-1.61-.066-2.731-.744-1.11-.667-2.31-1.479-3.009-1.412-.344-.1.378-.445.744-.69-3.863-.321-.1 1.468-2.575 2.502-.689-.567.066-2.023-1.721-1.612-.522-.144-1.61.856-2.864 1.823-1.233 1.045-2.654 1.967-4.053 1.856.744.311 1.444.623.5 1.523-.8.489-2.21.478-3.475.767-1.265.278-2.464.689-2.753 1.934-.288-.011-.433-.1-.522-.223-.5.578-1.443 1.29-2.22 2.112-.788.812-1.465 1.634-1.543 2.268-.788-.6-1.565-.445-2.331.022-.766.478-1.521 1.278-2.165 2.123-.655.833-1.288 1.612-1.843 2.067-.555.456-1.1.534-1.643-.1 0 0-.822.756-1.61 1.534-.777.8-1.543 1.6-1.543 1.6l-.155-.322c-1.122.89-1.654 1.734-1.965 2.434-.3.723-.355 1.345-.378 1.99-.588.333-.521-.234-.61-.39-1.599 1.335-2.476 2.102-2.976 3.046-.51.934-.799 1.957-1.088 3.846l-1.098-.345c-.012.567-1.233 1.512-2.532 2.935a25.91 25.91 0 00-.999 1.122c-.31.412-.61.845-.888 1.3-.555.901-1.021 1.89-1.188 2.957-.089-.088-.244-.266-.233-.633-.5 2.323-2.353 4.457-3.641 6.558-1.31 2.067-2.032 4.045-.4 5.446 0 0-.022.778.022 1.578l.067 1.567c.677-1.8 1.043-1.534 1.388-.989.344.534.655 1.334 1.176.7-.088.734-.632 1.556-1.12 1.99-.467.433-.911.467-.778-.445l.266-.222c-1.887-1.2-1.82 4.413-3.141 4.046C1.53 62.238.886 65.95.43 69.674c-.455 3.678-.566 7.402-.255 11.014 0 0 .377-.244.755-.5.377-.244.766-.489.766-.489s0 .156.022.39c.022.233.044.544.078.844l.11 1.233c-.288.7-1.143 1.045-1.298-.744-.788 1.067 1.143 2.89 1.52 2.856-.01 1.756-.532 1.523-1.043.945-.5-.567-.988-1.478-.91-.933l.377 1.444.134-.366c.421.544.81.811 1.132 1.189.31.389.577.911.777 1.956-.011 1.39-.81.9-.744 1.445-.11.022-.122.211.145.823 0 0 .033.2.1.489.066.288.155.678.255 1.067.189.778.366 1.556.366 1.556l.877-1.579c.977 1.167.755 2.846 1.72 1.045-.754 1.312-.044 4.19 1.033 6.802.522 1.312 1.177 2.546 1.621 3.568.489 1.001.855 1.768.844 2.134.422.323.8.678 1.132 1.056.355.367.666.756.966 1.167.6.834 1.077 1.779 1.688 2.79-.09-.633.943-1.678 1.864.089-1.432.489-1.232 1.467-.688 2.601.555 1.122 1.31 2.478 1.01 3.768.1-1.023 1.077.089 2.043 1.056.977.967 1.987 1.723 1.987.211.933 1.434-.777.789-.444 2.234.877.6 1.688 1.312 2.454 2.123.388.411.744.845 1.12 1.289.39.434.767.889 1.155 1.345.39.456.766.945 1.177 1.401.411.455.833.911 1.277 1.356a16.649 16.649 0 002.909 2.445c.3-.256 0-1.245 1.198-1.045a47.618 47.618 0 00.477 1.578c.267.79.534 1.568.534 1.568.466.211.977-.112 1.465-.212.477-.1.933-.011 1.332 1.045-.044-.411-.089-1.034.533-.767 3.62 3.49 8.393 5.535 13.155 7.18 4.807 1.679 9.592 3.013 14.355 5.58-1.244-.989-.322-.889.721-.745-.644-.3.167-.944.111-1.489 0 0 .245.122.61.311.367.189.867.434 1.355.678.5.245 1 .5 1.377.689.377.189.633.289.633.289.455-.7 1.576-.633 2.653-.567 1.088.078 2.131.045 2.365-.633l-1.333.222c.91-.8.322-1.723-.388-2.734-.722-1.034-1.566-2.134-1.366-3.179-.488.434-1.021.456-1.598.278-.567-.189-1.155-.6-1.776-.967-1.255-.722-2.576-1.478-4.275-.422-.555-.534.678-.567.422-1.112-.899.778-1.832.734-3.375-.033l.233-.178c-1.154-.178-2.109-.522-2.986-.823-.877-.289-1.654-.689-2.431-1.089-.777-.4-1.554-.833-2.409-1.367-.855-.522-1.82-1.056-2.92-1.745l-.077 1.112c-.966-.59-1.044-.99-1.41-1.434-1.854.9 2.83 1.378 1.043 2.489-.133-.644-.644-1.167-1.343-1.633-.7-.467-1.543-.956-2.398-1.401a10.463 10.463 0 01-2.22-1.5c-.578-.534-.922-1.101-.81-1.757-1.433-.933-.212 1.301-1.655.356l-.022-.789-.833.467c-.888-.723-.854-1.767-.577-2.223.178.211.71.311.977.444-.366-.733-1.221-1.256-2.02-1.667-.8-.411-1.51-.767-1.632-1.011l.51.667c.256.333.522.655.522.655-1-.589-2.02-1.289-2.997-2.078-.955-.811-1.954-1.623-2.876-2.523a75.058 75.058 0 00-1.42-1.289 37.801 37.801 0 00-1.388-1.29c-.966-.8-1.865-1.6-2.864-2.245l-.145.578c-.755-.511-1.199-.945-1.499-1.334-.3-.389-.455-.722-.61-1.078-.322-.7-.566-1.489-1.843-2.934l.178.044c-.866-.333-1.61-1.089-2.143-2 1.01.5-.033-2.123 1.199-1.401-1.388-1.334-1.765-1.667-2.187-1.778-.4-.134-.866-.022-2.254-.734l.456-.9c-1.033-.434-1.477-.3-2.487-2.001 1.299 1.167.621-1.645 2.187-.422-.011-1.1-.255-1.934-.622-2.612-.344-.69-.755-1.245-1.143-1.745-.788-.99-1.321-1.834-.367-3.123-1.365-.512-1.387.4-1.165 1.367.21.967.766 1.911.333 1.511-.189.545-.722.334-1.244-.177-.5-.523-.977-1.368-1.076-2.012-.19-.634.31-1.39.788-2.368.233-.489.444-1.022.544-1.623.044-.3.066-.622.044-.955 0-.345-.044-.712-.144-1.1.066.31.233.288.3.6.144-.656-.178-1.168-.467-1.746-.144-.289-.277-.589-.333-.911a2.039 2.039 0 01.144-1.09c-1.487-.566-.255-1.878-2.02-1.844l.921 2.867c-.366-.789-1.132-1.478-1.742-2.367-.6-.89-.977-1.99-.678-3.446.378.19.944.967 1.277 1.49.422-.878-.566-1.523-.1-2.423.866.044 1.066.922 1.243 1.99.09.533.167 1.122.334 1.666.188.545.444 1.056.854 1.434.289-.489-.188-1.245-.433-1.834-.244-.589-.322-.978.667-.678-1.266-.467-1.3-1.267-1.266-2.167.067-.912.222-1.912-.788-2.946l1.054.078c-.2-.322-.71-1.011-.7-1.645l1.377 1.078c-.599-.833-.366-1.69-.066-2.5.277-.834.722-1.623.41-2.446-.033 1.712-.344 1.912-.754 1.856-.411-.055-.933-.366-1.3.378-1.32-4.412 2.71-2.445 2.576-7.158.078.645-.81 2.346-1.22 1.3.255-.9.81-2.044 1.431-2.522.178-3.146-1.12.333-1.598-1.078 1.376-.9-.278-1.623-.433-3.113l1.043.19c.311-.867.367-1.379.289-1.712-.089-.334-.333-.5-.566-.656-.478-.311-.944-.578-.167-2.123l1.121 1.712v-1.49c.012-.166.012-.266.012-.266l1.076.644c-.188-1-.177-1.634-.033-2.212.156-.589.444-1.122.91-1.922-.843.166-1.754-.823-1.254-2.412.977-.834.71.922 1.41-1.279.444.734.977 1.523-.244 2.135.3.21.466.7.755.91 1.02-.877 1.176-2.678 1.454-3.445-.155.278-.344.6-.555.723 0 0-.034-.9-.078-1.812.011-.9.011-1.812.011-1.812.577-.31.7.2.822.7.177-.644-.111-1.289.266-2.211.666.611 1.466.944 1.288 2.356 0 0 .022-.2.067-.5.033-.3.077-.711.155-1.1.144-.8.277-1.601.277-1.601.422-.022 1.643-.922 1.732-.411.644-.6.789-1.712 1.01-2.879.278-1.134.567-2.39 1.51-3.123-.066-.19-.055-.478.122-.945.356-.411.733-.778 1.122-1.134.4-.344.821-.678 1.199-1.056a6.973 6.973 0 001.043-1.267 5.954 5.954 0 00.789-1.69s.521-.021 1.043-.032c.51-.023 1.055 0 1.055 0 .544-.823-.145-.812-.744-.934-.6-.122-1.121-.367-.167-1.79 1.3-2.078 1.554.278 2.443.012.144-.678.31-1.657.755-2.557.455-.89 1.232-1.634 2.453-1.867-.255.756-.833.945-1.266 1.467zM52.21 12.01c-.19.178-.456.511-.744.733-.278.245-.577.378-.844.145.078-1.345.688-.956 1.588-.878zm37.989-4.013c-.455.245-.966-.044-1.51-.589a2.57 2.57 0 011.51.59zm53.176 88.797c-.011-.034-.022-.045-.033-.078.799-1.045.5-.678.033.078zm-1.321 2.278c.045.29.189.334.367.278-.189-.267.011-.811.321-1.4-.321.077-.621.31-.688 1.122zM2.296 90.158l.156-.556c.555 1.023.21.778-.156.556z" fill="#A9DB8A"/><path d="M85.57 8.463c-.1-.2-.1-.4-.1-.6-.233.134-.266.345.1.6zM21.602 36.897c-.022.01-.033.033-.055.055a.625.625 0 00.11.167l-.055-.222zm115.367 24.519c.067-.49.211-.778.389-.99-.267.034-.444.279-.389.99zm.59 50.805s.178-.389.322-.789c.156-.4.3-.8.3-.8-.366.733-.699.867-1.066 1.122.233.1.711.012.444.467zm-13.678 7.181c-.066.256-.322.356-.377.611l.4.289c.643-.722.81-1.478-.023-.9zm9.87-7.781c-.833-.389-1.066.645-1.599 1.645.034-.056.067-.111.111-.156.833.979 1.199-.244 1.488-1.489zm-1.732 1.867c-.167.3-.356.612-.578.856.322.411.322-.278.578-.856zm9.348-11.158c-.433.411.899.778.444.922.389.522.466-.478.333-1.211-.133-.745-.433-1.212-.777.289zm-10.568 8.426l1.132.278-.411-1.001-.721.723zm4.995-7.027l-1.065 1.412c.177.067.166.311.122.6.521-.944 1.254-1.9.943-2.012zm-.943 2.012c-.277.489-.533.956-.533 1.323.134-.278.444-.867.533-1.323zm-3.054 2.857l.466-.311.677-1.012s-.277.334-.566.667c-.277.334-.577.656-.577.656zm10.225-22.575l.022-1.945c-.344-.244-.655.223-.633.945.178.49.2 1.223.611 1zm-4.252 4.814c.355-.411.599-.378 1.032-.556l-1.31-.41.278.966zm.931-5.257c-.333-.267-.611-2.78-.922-.523.344.255.3 2.1.922.522zm1.422-27.644l.122.456 2.176-.534-2.298.078zm-14.055-19.828c.644 2.011 1.444-.334 1.865 1.589.722.145-.344-1.59.311-1.4-1.165-.756-1.243-1.479-2.176-.19z" fill="#A9DB8A"/><path d="M128.244 38.309c.189.122.389.244.644.366-.322-.244-.511-.333-.644-.366zM69.106 146.888s.377.156.754.278c.389.133.766.256.766.256l-.966-.778-.554.244zm2.988-1.567l.344 1.445.921-1.267c-.344.045-1.01.156-1.265-.178zM56.53 13.667v-.356c-.289-.3-.589-.244-1.188-.144l1.188.5zM40.233 19.78l.278-.133-1.177-.79.9.923zM29.952 30.216c.433-.4.732-1.078 1.199-1.445-.766 1.034-2.454.434-1.2 1.445z" fill="#A9DB8A"/></svg>